<mxfile host="app.diagrams.net" modified="2023-06-27T14:34:00.712Z" agent="Mozilla/5.0 (Macintosh; Intel Mac OS X 10_15_7) AppleWebKit/537.36 (KHTML, like Gecko) Chrome/113.0.0.0 Safari/537.36" etag="BLDWcCS4qUeELuCsyCRL" version="21.3.5" type="github">
  <diagram name="第 1 页" id="3ZQN5xaIZYJmfrFkKDcY">
    <mxGraphModel dx="3162" dy="1508" grid="1" gridSize="10" guides="1" tooltips="1" connect="1" arrows="1" fold="1" page="1" pageScale="1" pageWidth="827" pageHeight="1169" math="0" shadow="0">
      <root>
        <mxCell id="0" />
        <mxCell id="1" parent="0" />
        <mxCell id="IZgi5f1fYp0vKWYEMyVF-1" value="&amp;nbsp; b" style="rounded=0;whiteSpace=wrap;html=1;align=left;verticalAlign=top;fontSize=36;fontFamily=Times New Roman;" parent="1" vertex="1">
          <mxGeometry x="-150" y="810.5" width="1365" height="1050" as="geometry" />
        </mxCell>
        <mxCell id="IZgi5f1fYp0vKWYEMyVF-2" value="&amp;nbsp; &amp;nbsp;a" style="rounded=0;whiteSpace=wrap;html=1;align=left;verticalAlign=top;fontSize=36;fontFamily=Times New Roman;strokeColor=#000000;" parent="1" vertex="1">
          <mxGeometry x="-150" y="46" width="1365" height="764" as="geometry" />
        </mxCell>
        <mxCell id="IZgi5f1fYp0vKWYEMyVF-3" value="&lt;font style=&quot;vertical-align: inherit;&quot;&gt;&lt;font style=&quot;vertical-align: inherit;&quot;&gt;&lt;font style=&quot;vertical-align: inherit;&quot;&gt;&lt;font style=&quot;vertical-align: inherit; font-size: 40px;&quot;&gt;Input&lt;/font&gt;&lt;/font&gt;&lt;/font&gt;&lt;/font&gt;" style="shape=ext;double=1;rounded=1;whiteSpace=wrap;html=1;align=center;horizontal=1;verticalAlign=top;fillColor=#b1ddf0;strokeColor=#10739e;fontFamily=Times New Roman;" parent="1" vertex="1">
          <mxGeometry x="-65" y="61" width="300" height="290" as="geometry" />
        </mxCell>
        <mxCell id="IZgi5f1fYp0vKWYEMyVF-4" value="&lt;font style=&quot;font-size: 28px;&quot;&gt;ATAC-seq bed narrowPeak file&lt;/font&gt;" style="shape=note;whiteSpace=wrap;html=1;backgroundOutline=1;darkOpacity=0.05;verticalAlign=bottom;size=21;align=center;fontFamily=Times New Roman;fillColor=#FFD966;strokeColor=#C73500;fontColor=#000000;" parent="1" vertex="1">
          <mxGeometry x="-35" y="121" width="225" height="90" as="geometry" />
        </mxCell>
        <mxCell id="IZgi5f1fYp0vKWYEMyVF-5" value="&lt;font style=&quot;font-size: 28px;&quot; color=&quot;#000000&quot;&gt;ATAC-seq bam file&lt;/font&gt;" style="shape=note;whiteSpace=wrap;html=1;backgroundOutline=1;darkOpacity=0.05;verticalAlign=bottom;size=28;fontSize=16;align=center;fontFamily=Times New Roman;fillColor=#FFD966;strokeColor=#c73500;fontColor=#ffffff;" parent="1" vertex="1">
          <mxGeometry x="-35" y="241" width="225" height="75" as="geometry" />
        </mxCell>
        <mxCell id="IZgi5f1fYp0vKWYEMyVF-6" value="&lt;font style=&quot;vertical-align: inherit;&quot;&gt;&lt;font style=&quot;vertical-align: inherit;&quot;&gt;&lt;font style=&quot;vertical-align: inherit;&quot;&gt;&lt;font style=&quot;vertical-align: inherit; font-size: 40px;&quot;&gt;Data Processing&lt;/font&gt;&lt;/font&gt;&lt;/font&gt;&lt;/font&gt;" style="shape=ext;double=1;rounded=1;whiteSpace=wrap;html=1;align=center;horizontal=1;verticalAlign=top;fillColor=#b0e3e6;strokeColor=#0e8088;fontFamily=Times New Roman;" parent="1" vertex="1">
          <mxGeometry x="274" y="59" width="390" height="290" as="geometry" />
        </mxCell>
        <mxCell id="IZgi5f1fYp0vKWYEMyVF-7" value="" style="edgeStyle=orthogonalEdgeStyle;rounded=0;orthogonalLoop=1;jettySize=auto;html=1;fontFamily=Times New Roman;" parent="1" source="IZgi5f1fYp0vKWYEMyVF-8" target="IZgi5f1fYp0vKWYEMyVF-11" edge="1">
          <mxGeometry relative="1" as="geometry">
            <Array as="points">
              <mxPoint x="503" y="164" />
              <mxPoint x="503" y="217" />
            </Array>
          </mxGeometry>
        </mxCell>
        <mxCell id="IZgi5f1fYp0vKWYEMyVF-8" value="&lt;font style=&quot;font-size: 28px;&quot;&gt;TOBIAS&lt;/font&gt;" style="rounded=0;whiteSpace=wrap;html=1;fontFamily=Times New Roman;fillColor=#b0e3e6;strokeColor=#000000;" parent="1" vertex="1">
          <mxGeometry x="293" y="134" width="150" height="60" as="geometry" />
        </mxCell>
        <mxCell id="IZgi5f1fYp0vKWYEMyVF-9" value="" style="edgeStyle=orthogonalEdgeStyle;rounded=0;orthogonalLoop=1;jettySize=auto;html=1;fontFamily=Times New Roman;" parent="1" source="IZgi5f1fYp0vKWYEMyVF-10" target="IZgi5f1fYp0vKWYEMyVF-11" edge="1">
          <mxGeometry relative="1" as="geometry">
            <Array as="points">
              <mxPoint x="503" y="259" />
              <mxPoint x="503" y="217" />
            </Array>
          </mxGeometry>
        </mxCell>
        <mxCell id="IZgi5f1fYp0vKWYEMyVF-10" value="&lt;font style=&quot;font-size: 28px;&quot;&gt;HINT-ATAC&lt;/font&gt;" style="rounded=0;whiteSpace=wrap;html=1;fontFamily=Times New Roman;fillColor=#b0e3e6;strokeColor=#000000;" parent="1" vertex="1">
          <mxGeometry x="293" y="229" width="150" height="60" as="geometry" />
        </mxCell>
        <mxCell id="IZgi5f1fYp0vKWYEMyVF-11" value="&lt;font style=&quot;font-size: 28px;&quot;&gt;footprint&lt;/font&gt;" style="ellipse;whiteSpace=wrap;html=1;fontFamily=Times New Roman;fillColor=#b0e3e6;strokeColor=#000000;" parent="1" vertex="1">
          <mxGeometry x="533" y="181" width="120" height="72" as="geometry" />
        </mxCell>
        <mxCell id="IZgi5f1fYp0vKWYEMyVF-12" value="&lt;font style=&quot;font-size: 40px;&quot;&gt;Multiple motifs finding&lt;/font&gt;" style="shape=ext;double=1;rounded=1;whiteSpace=wrap;html=1;align=center;horizontal=1;verticalAlign=top;fillColor=#d0cee2;strokeColor=#56517e;fontFamily=Times New Roman;" parent="1" vertex="1">
          <mxGeometry x="700" y="58" width="500" height="290" as="geometry" />
        </mxCell>
        <mxCell id="IZgi5f1fYp0vKWYEMyVF-13" value="" style="edgeStyle=orthogonalEdgeStyle;rounded=0;orthogonalLoop=1;jettySize=auto;html=1;fontFamily=Times New Roman;" parent="1" source="IZgi5f1fYp0vKWYEMyVF-14" target="IZgi5f1fYp0vKWYEMyVF-16" edge="1">
          <mxGeometry relative="1" as="geometry" />
        </mxCell>
        <mxCell id="IZgi5f1fYp0vKWYEMyVF-14" value="&lt;font style=&quot;font-size: 28px;&quot;&gt;Construct heterogeneous graph&lt;/font&gt;" style="rounded=0;whiteSpace=wrap;html=1;fontFamily=Times New Roman;fillColor=#d0cee2;strokeColor=#000000;" parent="1" vertex="1">
          <mxGeometry x="741.25" y="123" width="420" height="45" as="geometry" />
        </mxCell>
        <mxCell id="IZgi5f1fYp0vKWYEMyVF-15" value="" style="edgeStyle=orthogonalEdgeStyle;rounded=0;orthogonalLoop=1;jettySize=auto;html=1;fontFamily=Times New Roman;" parent="1" source="IZgi5f1fYp0vKWYEMyVF-16" target="IZgi5f1fYp0vKWYEMyVF-17" edge="1">
          <mxGeometry relative="1" as="geometry">
            <Array as="points">
              <mxPoint x="952" y="255" />
              <mxPoint x="952" y="255" />
            </Array>
          </mxGeometry>
        </mxCell>
        <mxCell id="IZgi5f1fYp0vKWYEMyVF-16" value="&lt;font style=&quot;font-size: 28px;&quot;&gt;Build the MMGraph model&lt;/font&gt;" style="rounded=0;whiteSpace=wrap;html=1;fontFamily=Times New Roman;fillColor=#d0cee2;strokeColor=#000000;" parent="1" vertex="1">
          <mxGeometry x="741.25" y="192" width="420" height="45" as="geometry" />
        </mxCell>
        <mxCell id="IZgi5f1fYp0vKWYEMyVF-17" value="&lt;div style=&quot;font-size: 28px;&quot;&gt;&lt;font style=&quot;font-size: 28px;&quot;&gt;Calculate&amp;nbsp;&lt;/font&gt;&lt;span style=&quot;background-color: initial;&quot;&gt;coexisting probability&amp;nbsp;&lt;/span&gt;&lt;/div&gt;" style="rounded=0;whiteSpace=wrap;html=1;fontFamily=Times New Roman;fillColor=#d0cee2;strokeColor=#000000;" parent="1" vertex="1">
          <mxGeometry x="742.25" y="258" width="420" height="45" as="geometry" />
        </mxCell>
        <mxCell id="IZgi5f1fYp0vKWYEMyVF-18" value="&lt;font style=&quot;font-size: 40px;&quot;&gt;Result&lt;/font&gt;" style="shape=ext;double=1;rounded=1;whiteSpace=wrap;html=1;align=center;horizontal=1;verticalAlign=top;fillColor=#ffcc99;strokeColor=#36393d;fontFamily=Times New Roman;" parent="1" vertex="1">
          <mxGeometry x="-60" y="424" width="1260" height="356.5" as="geometry" />
        </mxCell>
        <mxCell id="IZgi5f1fYp0vKWYEMyVF-19" value="&lt;font style=&quot;font-size: 28px;&quot;&gt;Evaluation Metrics&lt;/font&gt;" style="whiteSpace=wrap;html=1;verticalAlign=top;fontSize=20;fontFamily=Times New Roman;fillColor=#ffcc99;strokeColor=#36393d;" parent="1" vertex="1">
          <mxGeometry x="-30" y="484" width="240" height="270" as="geometry" />
        </mxCell>
        <mxCell id="IZgi5f1fYp0vKWYEMyVF-20" value="&lt;font style=&quot;font-size: 28px;&quot;&gt;AEMR&lt;/font&gt;" style="ellipse;whiteSpace=wrap;html=1;fontFamily=Times New Roman;fillColor=#ffcc99;strokeColor=#36393d;" parent="1" vertex="1">
          <mxGeometry x="15" y="561" width="150" height="54" as="geometry" />
        </mxCell>
        <mxCell id="IZgi5f1fYp0vKWYEMyVF-21" value="&lt;font style=&quot;font-size: 28px;&quot;&gt;p-value&lt;/font&gt;" style="ellipse;whiteSpace=wrap;html=1;fontFamily=Times New Roman;fillColor=#ffcc99;strokeColor=#36393d;" parent="1" vertex="1">
          <mxGeometry x="15" y="649" width="150" height="52.63" as="geometry" />
        </mxCell>
        <mxCell id="IZgi5f1fYp0vKWYEMyVF-22" value="&lt;font style=&quot;font-size: 28px;&quot;&gt;Motif&lt;/font&gt;" style="rounded=0;whiteSpace=wrap;html=1;verticalAlign=top;fontFamily=Times New Roman;fillColor=#ffcc99;strokeColor=#36393d;" parent="1" vertex="1">
          <mxGeometry x="225" y="484" width="945" height="270" as="geometry" />
        </mxCell>
        <mxCell id="IZgi5f1fYp0vKWYEMyVF-23" value="&lt;font style=&quot;font-size: 28px;&quot;&gt;TFBS sequence&lt;/font&gt;" style="rounded=0;whiteSpace=wrap;html=1;verticalAlign=top;fontFamily=Times New Roman;" parent="1" vertex="1">
          <mxGeometry x="240" y="531.94" width="240" height="200" as="geometry" />
        </mxCell>
        <mxCell id="IZgi5f1fYp0vKWYEMyVF-24" value="&lt;font style=&quot;font-size: 28px;&quot;&gt;Motif Logo&lt;/font&gt;" style="rounded=0;whiteSpace=wrap;html=1;verticalAlign=top;fontFamily=Times New Roman;" parent="1" vertex="1">
          <mxGeometry x="495" y="532" width="300" height="200" as="geometry" />
        </mxCell>
        <mxCell id="IZgi5f1fYp0vKWYEMyVF-25" value="&lt;font style=&quot;font-size: 28px;&quot;&gt;Letter-Probability Matrix&lt;/font&gt;" style="rounded=0;whiteSpace=wrap;html=1;verticalAlign=top;fontFamily=Times New Roman;" parent="1" vertex="1">
          <mxGeometry x="810" y="532" width="345" height="200" as="geometry" />
        </mxCell>
        <mxCell id="IZgi5f1fYp0vKWYEMyVF-26" value="&lt;div style=&quot;font-size: 20px;&quot;&gt;&lt;font style=&quot;font-size: 20px;&quot;&gt;&lt;span style=&quot;background-color: initial;&quot;&gt;GGTGCGTGC&lt;/span&gt;&lt;br&gt;&lt;/font&gt;&lt;/div&gt;&lt;div style=&quot;font-size: 20px;&quot;&gt;&lt;font style=&quot;font-size: 20px;&quot;&gt;ATCGCGTGA&lt;/font&gt;&lt;/div&gt;&lt;div style=&quot;font-size: 20px;&quot;&gt;&lt;font style=&quot;font-size: 20px;&quot;&gt;GGCGCGTGC&lt;/font&gt;&lt;/div&gt;&lt;div style=&quot;font-size: 20px;&quot;&gt;&lt;font style=&quot;font-size: 20px;&quot;&gt;&lt;div style=&quot;&quot;&gt;GTTGCGTGG&lt;/div&gt;&lt;div style=&quot;&quot;&gt;ATAGCGTGC&lt;/div&gt;&lt;div style=&quot;&quot;&gt;GGCGCGTGC&lt;/div&gt;&lt;/font&gt;&lt;/div&gt;" style="text;html=1;strokeColor=none;fillColor=none;align=left;verticalAlign=middle;whiteSpace=wrap;rounded=0;" parent="1" vertex="1">
          <mxGeometry x="293" y="579" width="135" height="143.5" as="geometry" />
        </mxCell>
        <mxCell id="IZgi5f1fYp0vKWYEMyVF-27" value="" style="shape=image;verticalLabelPosition=bottom;labelBackgroundColor=default;verticalAlign=top;imageAspect=0;image=data:image/png,iVBORw0KGgoAAAANSUhEUgAAC+oAAAaTCAIAAABPKqBuAAAJMmlDQ1BkZWZhdWx0X3JnYi5pY2MAAEiJlZVnUJNZF8fv8zzphUASQodQQ5EqJYCUEFoo0quoQOidUEVsiLgCK4qINEWQRQEXXJUia0UUC4uCAhZ0gywCyrpxFVFBWXDfGZ33HT+8/5l7z2/+c+bec8/5cAEgiINlwct7YlK6wNvJjhkYFMwE3yiMn5bC8fR0A9/VuxEArcR7ut/P+a4IEZFp/OW4uLxy+SmCdACg7GXWzEpPWeGjy0wPj//CZ1dYsFzgMt9Y4eh/eexLzr8s+pLj681dfhUKABwp+hsO/4b/c++KVDiC9NioyGymT3JUelaYIJKZttIJHpfL9BQkR8UmRH5T8P+V/B2lR2anr0RucsomQWx0TDrzfw41MjA0BF9n8cbrS48hRv9/z2dFX73kegDYcwAg+7564ZUAdO4CQPrRV09tua+UfAA67vAzBJn/eqiVDQ0IgALoQAYoAlWgCXSBETADlsAWOAAX4AF8QRDYAPggBiQCAcgCuWAHKABFYB84CKpALWgATaAVnAad4Dy4Aq6D2+AuGAaPgRBMgpdABN6BBQiCsBAZokEykBKkDulARhAbsoYcIDfIGwqCQqFoKAnKgHKhnVARVApVQXVQE/QLdA66At2EBqGH0Dg0A/0NfYQRmATTYQVYA9aH2TAHdoV94fVwNJwK58D58F64Aq6HT8Id8BX4NjwMC+GX8BwCECLCQJQRXYSNcBEPJBiJQgTIVqQQKUfqkVakG+lD7iFCZBb5gMKgaCgmShdliXJG+aH4qFTUVlQxqgp1AtWB6kXdQ42jRKjPaDJaHq2DtkDz0IHoaHQWugBdjm5Et6OvoYfRk+h3GAyGgWFhzDDOmCBMHGYzphhzGNOGuYwZxExg5rBYrAxWB2uF9cCGYdOxBdhK7EnsJewQdhL7HkfEKeGMcI64YFwSLg9XjmvGXcQN4aZwC3hxvDreAu+Bj8BvwpfgG/Dd+Dv4SfwCQYLAIlgRfAlxhB2ECkIr4RphjPCGSCSqEM2JXsRY4nZiBfEU8QZxnPiBRCVpk7ikEFIGaS/pOOky6SHpDZlM1iDbkoPJ6eS95CbyVfJT8nsxmpieGE8sQmybWLVYh9iQ2CsKnqJO4VA2UHIo5ZQzlDuUWXG8uIY4VzxMfKt4tfg58VHxOQmahKGEh0SiRLFEs8RNiWkqlqpBdaBGUPOpx6hXqRM0hKZK49L4tJ20Bto12iQdQ2fRefQ4ehH9Z/oAXSRJlTSW9JfMlqyWvCApZCAMDQaPkcAoYZxmjDA+SilIcaQipfZItUoNSc1Ly0nbSkdKF0q3SQ9Lf5RhyjjIxMvsl+mUeSKLktWW9ZLNkj0ie012Vo4uZynHlyuUOy33SB6W15b3lt8sf0y+X35OQVHBSSFFoVLhqsKsIkPRVjFOsUzxouKMEk3JWilWqUzpktILpiSTw0xgVjB7mSJleWVn5QzlOuUB5QUVloqfSp5Km8oTVYIqWzVKtUy1R1WkpqTmrpar1qL2SB2vzlaPUT+k3qc+r8HSCNDYrdGpMc2SZvFYOawW1pgmWdNGM1WzXvO+FkaLrRWvdVjrrjasbaIdo12tfUcH1jHVidU5rDO4Cr3KfFXSqvpVo7okXY5upm6L7rgeQ89NL0+vU++Vvpp+sP5+/T79zwYmBgkGDQaPDamGLoZ5ht2GfxtpG/GNqo3uryavdly9bXXX6tfGOsaRxkeMH5jQTNxNdpv0mHwyNTMVmLaazpipmYWa1ZiNsulsT3Yx+4Y52tzOfJv5efMPFqYW6RanLf6y1LWMt2y2nF7DWhO5pmHNhJWKVZhVnZXQmmkdan3UWmijbBNmU2/zzFbVNsK20XaKo8WJ45zkvLIzsBPYtdvNcy24W7iX7RF7J/tC+wEHqoOfQ5XDU0cVx2jHFkeRk4nTZqfLzmhnV+f9zqM8BR6f18QTuZi5bHHpdSW5+rhWuT5z03YTuHW7w+4u7gfcx9aqr01a2+kBPHgeBzyeeLI8Uz1/9cJ4eXpVez33NvTO9e7zofls9Gn2eedr51vi+9hP0y/Dr8ef4h/i3+Q/H2AfUBogDNQP3BJ4O0g2KDaoKxgb7B/cGDy3zmHdwXWTISYhBSEj61nrs9ff3CC7IWHDhY2UjWEbz4SiQwNCm0MXwzzC6sPmwnnhNeEiPpd/iP8ywjaiLGIm0iqyNHIqyiqqNGo62ir6QPRMjE1MecxsLDe2KvZ1nHNcbdx8vEf88filhICEtkRcYmjiuSRqUnxSb7JicnbyYIpOSkGKMNUi9WCqSOAqaEyD0tandaXTlz/F/gzNjF0Z45nWmdWZ77P8s85kS2QnZfdv0t60Z9NUjmPOT5tRm/mbe3KVc3fkjm/hbKnbCm0N39qzTXVb/rbJ7U7bT+wg7Ijf8VueQV5p3tudATu78xXyt+dP7HLa1VIgViAoGN1tubv2B9QPsT8M7Fm9p3LP58KIwltFBkXlRYvF/OJbPxr+WPHj0t6ovQMlpiVH9mH2Je0b2W+z/0SpRGlO6cQB9wMdZcyywrK3BzcevFluXF57iHAo45Cwwq2iq1Ktcl/lYlVM1XC1XXVbjXzNnpr5wxGHh47YHmmtVagtqv14NPbogzqnuo56jfryY5hjmceeN/g39P3E/qmpUbaxqPHT8aTjwhPeJ3qbzJqamuWbS1rgloyWmZMhJ+/+bP9zV6tua10bo63oFDiVcerFL6G/jJx2Pd1zhn2m9az62Zp2WnthB9SxqUPUGdMp7ArqGjzncq6n27K7/Ve9X4+fVz5ffUHyQslFwsX8i0uXci7NXU65PHsl+spEz8aex1cDr97v9eoduOZ67cZ1x+tX+zh9l25Y3Th/0+LmuVvsW523TW939Jv0t/9m8lv7gOlAxx2zO113ze92D64ZvDhkM3Tlnv296/d5928Prx0eHPEbeTAaMip8EPFg+mHCw9ePMh8tPN4+hh4rfCL+pPyp/NP637V+bxOaCi+M24/3P/N59niCP/Hyj7Q/Fifzn5Ofl08pTTVNG02fn3Gcufti3YvJlykvF2YL/pT4s+aV5quzf9n+1S8KFE2+Frxe+rv4jcyb42+N3/bMec49fZf4bmG+8L3M+xMf2B/6PgZ8nFrIWsQuVnzS+tT92fXz2FLi0tI/QiyQvpTNDAsAAAAJcEhZcwAAuIwAALiMAcz2uy8AAAAfdEVYdFNvZnR3YXJlAEdQTCBHaG9zdHNjcmlwdCA5LjU1LjDyGIEvAAAgAElEQVR4nOzdy27byhJA0dDQ//8y7yAHRq4f1IvkbpJrjQIkpkrtyBNvVE/zPP8BAAAAAAAAAAAKH/UAAAAAAAAAAABwXfIdAAAAAAAAAADIyHcAAAAAAAAAACAj3wEAAAAAAAAAgIx8BwAAAAAAAAAAMvIdAAAAAAAAAADIyHcAAAAAAAAAACAj3wEAAAAAAAAAgIx8BwAAAAAAAAAAMvIdAAAAAAAAAADIyHcAAAAAAAAAACAj3wEAAAAAAAAAgIx8BwAAAAAAAAAAMvIdAAAAAAAAAADIyHcAAAAAAAAAACAj3wEAAAAAAAAAgIx8BwAAAAAAAAAAMvIdAAAAAAAAAADIyHcAAAAAAAAAACAj3wEAAAAAAAAAgIx8BwAAAAAAAAAAMvIdAAAAAAAAAADIyHcAAAAAAAAAACAj3wEAAAAAAAAAgIx8BwAAAAAAAAAAMvIdAAAAAAAAAADIyHcAAAAAAAAAACAj3wEAAAAAAAAAgIx8BwAAAAAAAAAAMvIdAAAAAAAAAADIyHcAAAAAAAAAACAj3wEAAAAAAAAAgIx8BwAAAAAAAAAAMvIdAAAAAAAAAADIyHcAAAAAAAAAACAj3wEAAAAAAAAAgIx8BwAAAAAAAAAAMvIdAAAAAAAAAADIyHcAAAAAAAAAACAj3wEAAAAAAAAAgIx8BwAAAAAAAAAAMvIdAAAAAAAAAADIyHcAAAAAAAAAACAj3wEAAAAAAAAAgIx8BwAAAAAAAAAAMvIdAAAAAAAAAADIyHcAAAAAAAAAACAj3wEAAAAAAAAAgIx8BwAAAAAAAAAAMvIdAAAAAAAAAADIyHcAAAAAAAAAACAj3wEAAAAAAAAAgIx8BwAAAAAAAAAAMvIdAAAAAAAAAADI3OoB4KKmafr7h3me20mO4u+JOS4AAAAAAAAATmbyu3DYwWes8wifyj/PnJjjAgAAAAAAAODQ5Duwoaeqne8u+PF858QueFwAAAAAAAAAnIB8BzbxZrjzr4t8SNc6sYscFwAAAAAAAACnId+B9a3Y7nw68Uf17nH9+N6Xv+rExwUAAAAAAADAych3YE1bhDufTvlpXTixR97vm18OAAAAAAAAALmPegA4j03bnR2ev7/345uFf3a+4wIAAAAAAADglOQ7sI59YpEzJSlrLc5R8AAAAAAAAABwaPIdWMGemcg5kpR1L71S8AAAAAAAAABwXPIdeNf+gcjRk5R12527X3j04wIAAAAAAADg3KaXf1kO/HksDfn+KVslKDnoh3eLdmefhwMAAAAAAADAFuQ78LpVYpF3Up7DfX6X3+ym+c4qzwcAAAAAAACA1d3qAeCofitFnm1EPv/9xe94WqWtmef54scIAAAAAAAAwOF81APAqbzToLzwtcdKVfJp8wEAAAAAAAAA4Dv5DrzixxDk/f0x8zyf9YKn3a61Wn6UggcAAAAAAACA0ch3YB27BShf6FEAAAAAAAAA4NDkO/C078XM6itzTraDZ+fGyAIeAAAAAAAAAA5EvgPvOllqsz8HCAAAAAAAAMCVyXfgOV92t2yXnjz+ZOtknuXEAAAAAAAAABiHfAfGdY61NFoZAAAAAAAAAFgg34HXnSOvaW10hncfKyoCAAAAAAAAYBDyHXiC5uNZTgwAAAAAAAAAlsl34EX7rN6x4AcAAAAAAAAAzk2+A1yUzUAAAAAAAAAAjEC+A6+wFOcRbR/jewQAAAAAAADAIch34FGWtaxOYQMAAAAAAAAA8h142s7RicZlO5IsAAAAAAAAAHK3egA4DBnNU5QxAAAAAAAAAPAI23cAAAAAAAAAACAj3wEAAAAAAAAAgIx8Bw7PrV7vcMkXAAAAAAAAAC35DrC+QZoYYRMAAAAAAAAA45PvAA1tDQAAAAAAAAD8ke/A+AbZZAMAAAAAAAAAbEG+A8dmhw0AAAAAAAAAHJp8BwAAAAAAAAAAMvIdAAAAAAAAAADIyHdgaNM0Lfytm7NWsXzIAAAAAAAAALAp+Q6wMjUMAAAAAAAAADxOvgNHZfUOAAAAAAAAAJzArR4A4ACuvFJIKAYAAAAAAACwKdt3YFwLyYiiAgAAAAAAAADOQb4Dx6PdAQAAAAAAAIDTkO/AoK58WxMAAAAAAAAAXMetHgB4jtU77OxLSeZ/IAAAAAAAAMC6bN+BEf22ekc5AQAAAAAAAAAnI98BAAAAAAAAAICMfAeGY/UOAAAAAAAAAFyHfAeOQbsDAAAAAAAAAKd0qwcA/s+Pq3e0O7lLfQt+2/8EAAAAAAAAwBZs3wEAAAAAAAAAgIx8BwZi9Q4AAAAAAAAAXI18B0ah3QEAAAAAAACAC5LvwLgO2u4cdGwAAAAAAAAASMh3YAjfV++IYAAAAAAAAADgCuQ70NPutJw2AAAAAAAAACH5DsS0OwAAAAAAAABwZfIdGIt2BwAAAAAAAAAuRb4DpS+rd7Q7AAAAAAAAAHA18h3IaHcAAAAAAAAAAPkONL60OycjRQIAAAAAAACAB8l3IPC93blg7zJIwHTBkwcAAAAAAABgKPId2Jt2ZzeDFEIAAAAAAAAAsEC+A7vS7gAAAAAAAAAA/5LvwH60OwAAAAAAAADAF/IdyJy73Tn3uwMAAAAAAACAtch3YCdfVu+oW0bguwAAAAAAAABATr4De9DuAAAAAAAAAAA/ku/A5i7b7tx9p19OBgAAAAAAAAAuSL4D27psu5O72wb5XgAAAAAAAAAwAvkObEi7AwAAAAAAAAAsk+/AVsJ2Z5xLqRRLAAAAAAAAALBMvgObyNudcQqeMemKAAAAAAAAABiEfAfWN8KdWUfJUzbKjNRLAAAAAAAAAByFfAdW1rY7A2YrA4ZEA44EAAAAAAAAwGXJd2BNg7Q78hQAAAAAAAAAOAr5DqxmkHZnQMtHsfrkyw/UNgEAAAAAAAAwlFs9AJzECdqdHx8idgEAAAAAAACATdm+AysYqt157dV/C4DWWo0zSAY0yBgAAAAAAAAA8Em+A+8K251pmrbbu/Pg365ixZcY+RIxAAAAAAAAAPjO5Vnwlu+xSJuPvBAPPTLwNE3vZ0nzPB/ucAAAAAAAAABga7bvwOssennWQkCz9Roh7Q4AAAAAAAAAY5LvwKU9Hs0c6wotAAAAAAAAADgK+Q68aMDW5BALZrYb0uodAAAAAAAAAI5IvgOvGLDdOZAtrtDS7gAAAAAAAABwUPIdeNqY7c6xIpV1Cx7tDgAAAAAAAADHJd+B54zZ7rwsrFuWC57Hz1m7AwAAAAAAAMCh3eoB4EhO1u48ZYsU5u8zfzvVaZqWX1S4AwAAAAAAAMAJyHfgUSO3O+/UKvM8t29tYYDXBtPuAAAAAAAAAHAgLs8C7vcuWwcx8zyv8hJrPQcAAAAAAAAAdnPnbhrgOn5cdZP8iHhh6Y4fZStaPn9HDQAAAAAAALAul2cB/xkny/h3kt9SknGmBQAAAAAAAIB3yHeAocl0AAAAAAAAADi3j3oAAAAAAAAAAAC4LvkOAAAAAAAAAABk5DsAAAAAAAAAAJCR7wAAAAAAAAAAQEa+AwAAAAAAAAAAGfkOAAAAAAAAAABk5DsAAAAAAAAAAJCR7wAAAAAAAAAAQEa+AwAAAAAAAAAAGfkOAAAAAAAAAABk5DsAAAAAAAAAAJCR7wAAAAAAAAAAQEa+AwAAAAAAAAAAGfkOAAAAAAAAAABk5DsAAAAAAAAAAJCR7wAAAAAAAAAAQEa+AwAAAAAAAAAAGfkOAAAAAAAAAABk5DsAAAAAAAAAAJCR7wAAAAAAAAAAQEa+AwAAAAAAAAAAGfkOAAAAAAAAAABk5DsAAAAAAAAAAJCR7wAAAAAAAAAAQEa+AwAAAAAAAAAAGfkOAAAAAAAAAABk5DsAAAAAAAAAAJCR7wAAAAAAAAAAQEa+AwAAAAAAAAAAGfkOAAAAAAAAAABk5DsAAAAAAAAAAJCR7wAAAAAAAAAAQEa+AwAAAAAAAAAAGfkOAAAAAAAAAABk5DsAAAAAAAAAAJCR7wAAAAAAAAAAQEa+AwAAAAAAAAAAGfkOAAAAAAAAAABk5DsAAAAAAAAAAJCR7wAAAAAAAAAAQEa+AwAAAAAAAAAAGfkOAAAAAAAAAABk5DsAAAAAAAAAAJCR7wAAAAAAAAAAQEa+AwAAAAAAAAAAGfkOAAAAAAAAAABk5DsAAAAAAAAAAJCR7wAAAAAAAAAAQEa+AwAAAAAAAAAAGfkOAAAAAAAAAABk5DsAAAAAAAAAAJCR7wAAAAAAAAAAQEa+AwAAAAAAAAAAGfkOAAAAAAAAAABk5DsAAAAAAAAAAJCR7wAAAAAAAAAAQEa+AwAAAAAAAAAAGfkOAAAAAAAAAABk5DsAAAAAAAAAAJCR7wAAAAAAAAAAQEa+AwAAAAAAAAAAGfkOAAAAAAAAAABk5DsAAAAAAAAAAJCR7wAAAAAAAAAAQEa+AwAAAAAAAAAAGfkOAAAAAAAAAABk5DsAAAAAAAAAAJCR7wAAAAAAAAAAQEa+AwAAAAAAAAAAGfkOAAAAAAAAAABk5DsAAAAAAAAAAJCR7wAAAAAAAAAAQEa+AwAAAAAAAAAAGfkOAAAAAAAAAABk5DsAAAAAAAAAAJCR7wAAAAAAAAAAQEa+AwAAAAAAAAAAGfkOAAAAAAAAAABk5DsAAAAAAAAAAJCR7wAAAAAAAAAAQEa+AwAAAAAAAAAAGfkOAAAAAAAAAABkbvUAANwxTVM9AgAAAAAAAABbsX0HAAAAAAAAAAAy8h0AAAAAAAAAAMjIdwAAAAAAAAAAICPfAQAAAAAAAACAjHwHAAAAAAAAAAAy8h0AAAAAAAAAAMjIdwAAAAAAAAAAICPfAQAAAAAAAACAzK0eAIA75nne8+Wmadrz5QAAAAAAAAAuzvYdAAAAAAAAAADIyHcAAAAAAAAAACAj3wEAAAAAAAAAgIx8BwAAAAAAAAAAMvIdAAAAAAAAAADIyHcAAAAAAAAAACAj3wEAAAAAAAAAgIx8BwAAAAAAAAAAMvIdAAAAAAAAAADIyHcAAAAAAAAAACAj3wEAAAAAAAAAgIx8BwAAAAAAAAAAMvIdAAAAAAAAAADIyHcAAAAAAAAAACAj3wEAAAAAAAAAgIx8BwAAAAAAAAAAMvIdAAAAAAAAAADIyHcAAAAAAAAAACAj3wEAAAAAAAAAgIx8BwAAAAAAAAAAMvIdAAAAAAAAAADIyHcAAAAAAAAAACAj3wEAAAAAAAAAgIx8BwAAAAAAAAAAMvIdAAAAAAAAAADIyHcAAAAAAAAAACAj3wEAAAAAAAAAgIx8BwAAAAAAAAAAMvIdAAAAAAAAAADIyHcAAAAAAAAAACAj3wEAAAAAAAAAgIx8BwAAAAAAAAAAMvIdAAAAAAAAAADIyHcAAAAAAAAAACAj3wEAAAAAAAAAgIx8BwAAAAAAAAAAMvIdAAAAAAAAAADIyHcAAAAAAAAAACAj3wEAAAAAAAAAgIx8BwAAAAAAAAAAMvIdAAAAAAAAAADIyHcAAAAAAAAAACAj3wEAAAAAAAAAgIx8BwAAAAAAAAAAMvIdAAAAAAAAAADIyHcAAAAAAAAAACAj3wEAAAAAAAAAgIx8BwAAAAAAAAAAMvIdAAAAAAAAAADIyHcAAAAAAAAAACAj3wEAAAAAAAAAgIx8BwAAAAAAAAAAMvIdAAAAAAAAAADIyHcAAAAAAAAAACAj3wEAAAAAAAAAgIx8BwAAAAAAAAAAMvIdAAAAAAAAAADIyHcAAAAAAAAAACAj3wEAAAAAAAAAgIx8BwAAAAAAAAAAMvIdAAAAAAAAAADIyHcAAAAAAAAAACAj3wEAAAAAAAAAgIx8BwAAAAAAAAAAMvIdAAAAAAAAAADIyHcAAAAAAAAAACAj3wEAAAAAAAAAgIx8BwAAAAAAAAAAMvIdAAAAAAAAAADIyHcAAAAAAAAAACAj3wEAAAAAAAAAgIx8BwAAAAAAAAAAMvIdAAAAAAAAAADIyHcAAAAAAAAAACAj3wEAAAAAAAAAgIx8BwAAAAAAAAAAMvIdAAAAAAAAAADIyHcAAAAAAAAAACAj3wEAAAAAAAAAgIx8BwAAAAAAAAAAMvIdAAAAAAAAAADIyHcAAAAAAAAAACAj3wEAAAAAAAAAgIx8BwAAAAAAAAAAMvIdAAAAAAAAAADIyHcAAAAAAAAAACAj3wEAAAAAAAAAgIx8BwAAAAAAAAAAMvIdAAAAAAAAAADIyHcAAAAAAAAAACAj3wEAAAAAAAAAgIx8BwAAAAAAAAAAMvIdAAAAAAAAAADIyHcAAAAAAAAAACAj3wEAAAAAAAAAgIx8BwAAAAAAAAAAMvIdAAAAAAAAAADIyHcAAAAAAAAAACAj3wEAAAAAAAAAgIx8BwAAAAAAAAAAMvIdAAAAAAAAAADIyHcAAAAAAAAAACAj3wEAAAAAAAAAgIx8BwAAAAAAAAAAMvIdAAAAAAAAAADIyHcAAAAAAAAAACAj3wEAAAAAAAAAgIx8BwAAAAAAAAAAMvIdAAAAAAAAAADIyHcAAAAAAAAAACAj3wEAAAAAAAAAgIx8BwAAAAAAAAAAMvIdAAAAAAAAAADIyHcAAAAAAAAAACAj3wEAAAAAAAAAgIx8BwAAAAAAAAAAMvIdAAAAAAAAAADIyHcAAAAAAAAAACAj3wEAAAAAAAAAgIx8BwAAAAAAAAAAMvIdAAAAAAAAAADIyHcAAAAAAAAAACAj3wEAAAAAAAAAgIx8BwAAAAAAAAAAMvIdAAAAAAAAAADI3OoBALhjmqZ6BAAAAAAAAAC2YvsOAAAAAAAAAABk5DsAAAAAAAAAAJCR7wAAAAAAAAAAQEa+AwAAAAAAAAAAGfkOAAAAAAAAAABk5DsAAAAAAAAAAJCR7wAAAAAAAAAAQEa+AwAAAAAAAAAAmVs9AAB3zPO858tN07TnywEAAAAAAABcnO07AAAAAAAAAACQke8AAAAAAAAAAEBGvgMAAAAAAAAAABn5DgAAAAAAAAAAZOQ7AAAAAAAAAACQke8AAAAAAAAAAEBGvgMAAAAAAAAAABn5DgAAAAAAAAAAZOQ7AAAAAAAAAACQke8AAAAAAAAAAEBGvgMAAAAAAAAAABn5DgAAAAAAAAAAZOQ7AAAAAAAAAACQke8AAAAAAAAAAEBGvgMAAAAAAAAAABn5DgAAAAAAAAAAZOQ7AAAAAAAAAACQke8AAAAAAAAAAEBGvgMAAAAAAAAAABn5DgAAAAAAAAAAZOQ7AAAAAAAAAACQke8AAAAAAAAAAEBGvgMAAAAAAAAAABn5DgAAAAAAAAAAZOQ7AAAAAAAAAACQke8AAAAAAAAAAEBGvgMAAAAAAAAAABn5DgAAAAAAAAAAZOQ7AAAAAAAAAACQke8AAAAAAAAAAEBGvgMAAAAAAAAAABn5DgAAAAAAAAAAZOQ7AAAAAAAAAACQke8AAAAAAAAAAEBGvgMAAAAAAAAAABn5DgAAAAAAAAAAZOQ7AAAAAAAAAACQke8AAAAAAAAAAEBGvgMAAAAAAAAAABn5DgAAAAAAAAAAZOQ7AAAAAAAAAACQke8AAAAAAAAAAEBGvgMAAAAAAAAAABn5DgAAAAAAAAAAZOQ7AAAAAAAAAACQke8AAAAAAAAAAEBGvgMAAAAAAAAAABn5DgAAAAAAAAAAZOQ7AAAAAAAAAACQke8AAAAAAAAAAEBGvgMAAAAAAAAAABn5DgAAAAAAAAAAZOQ7AAAAAAAAAACQke8AAAAAAAAAAEBGvgMAAAAAAAAAABn5DgAAAAAAAAAAZOQ7AAAAAAAAAACQke8AAAAAAAAAAEBGvgMAAAAAAAAAABn5DgAAAAAAAAAAZOQ7AAAAAAAAAACQke8AAAAAAAAAAEBGvgMAAAAAAAAAABn5DgAAAAAAAAAAZOQ7AAAAAAAAAACQke8AAAAAAAAAAEBGvgMAAAAAAAAAABn5DgAAAAAAAAAAZOQ7AAAAAAAAAACQke8AAAAAAAAAAEBGvgMAAAAAAAAAABn5DgAAAAAAAAAAZOQ7AAAAAADA/9i71+RIkWQNoMlYrbIWqG0yP9SlSqnyCQH+iHPs2jUbm24JAhQ+OB8RAABAGPEdAAAAAAAAAAAII74DAAAAAAAAAABhxHcAAAAAAAAAACCM+A4AAAAAAAAAAIQR3wEAAAAAAAAAgDDiOwAAAAAAAAAAEEZ8BwAAAAAAAAAAwojvAAAAAAAAAABAGPEdAAAAAAAAAAAII74DAAAAAAAAAABhxHcAAAAAAAAAACCM+A4AAAAAAAAAAIQR3wEAAAAAAAAAgDDiOwAAAAAAAAAAEEZ8BwAAAAAAAAAAwojvAAAAAAAAAABAGPEdAAAAAAAAAAAII74DAAAAAAAAAABhxHcAAAAAAAAAACCM+A4AAAAAAAAAAIQR3wEAAAAAAAAAgDDiOwAAAAAAAAAAEEZ8BwAAAAAAAAAAwojvAAAAAAAAAABAGPEdAAAAAAAAAAAII74DAAAAAAAAAABhxHcAAAAAAAAAACCM+A4AAAAAAAAAAIQR3wEAAAAAAAAAgDDiOwAAAAAAAAAAEEZ8BwAAAAAAAAAAwojvAAAAAAAAAABAGPEdAAAAAAAAAAAII74DAAAAAAAAAABhxHcAAAAAAAAAACCM+A4AAAAAAAAAAIQR3wEAAAAAAAAAgDDiOwAAAAAAAAAAEEZ8BwAAAAAAAAAAwojvAAAAAAAAAABAGPEdAAAAAAAAAAAII74DAAAAAAAAAABhxHcAAAAAAAAAACCM+A4AAAAAAAAAAIQR3wEAAAAAAAAAgDDiOwAAAAAAAAAAEEZ8BwAAAAAAAAAAwojvAAAAAAAAAABAGPEdAAAAAAAAAAAII74DAAAAAAAAAABhxHcAAAAAAAAAACCM+A4AAAAAAAAAAIT5FX0AADyxLEv0IQAAAAAAAABwFKvvAAAAAAAAAABAGPEdAAAAAAAAAAAII74DAAAAAAAAAABhxHcAAAAAAAAAACCM+A4AAAAAAAAAAIQR3wEAAAAAAAAAgDDiOwAAAAAAAAAAEEZ8BwAAAAAAAAAAwvyKPgAAnljX9cxftyzLmb8OAAAAAAAAYHJW3wEAAAAAAAAAgDDiOwAAAAAAAAAAEEZ8BwAAAAAAAAAAwojvAAAAAAAAAABAGPEdAAAAAAAAAAAII74DAAAAAAAAAABhxHcAAAAAAAAAACCM+A4AAAAAAAAAAIQR3wEAAAAAAAAAgDDiOwAAAAAAAAAAEEZ8BwAAAAAAAAAAwojvAAAAAAAAAABAGPEdAAAAAAAAAAAII74DAAAAAAAAAABhxHcAAAAAAAAAACCM+A4AAAAAAAAAAIQR3wEAAAAAAAAAgDDiOwAAAAAAAAAAEEZ8BwAAAAAAAAAAwojvAAAAAAAAAABAGPEdAAAAAAAAAAAII74DAAAAAAAAAABhxHcAAAAAAAAAACCM+A4AAAAAAAAAAIQR3wEAAAAAAAAAgDDiOwAAAAAAAAAAEEZ8BwAAAAAAAAAAwojvAAAAAAAAAABAGPEdAAAAAAAAAAAII74DAAAAAAAAAABhxHcAAAAAAAAAACCM+A4AAAAAAAAAAIQR3wEAAAAAAAAAgDDiOwAAAAAAAAAAEEZ8BwAAAAAAAAAAwojvAAAAAAAAAABAGPEdAAAAAAAAAAAII74DAAAAAAAAAABhxHcAAAAAAAAAACCM+A4AAAAAAAAAAIQR3wEAAAAAAAAAgDDiOwAAAAAAAAAAEEZ8BwAAAAAAAAAAwojvAAAAAAAAAABAGPEdAAAAAAAAAAAII74DAAAAAAAAAABhxHcAAAAAAAAAACCM+A4AAAAAAAAAAIQR3wEAAAAAAAAAgDDiOwAAAAAAAAAAEEZ8BwAAAAAAAAAAwojvAAAAAAAAAABAGPEdAAAAAAAAAAAII74DAAAAAAAAAABhxHcAAAAAAAAAACCM+A4AAAAAAAAAAIQR3wEAAAAAAAAAgDDiOwAAAAAAAAAAEEZ8BwAAAAAAAAAAwojvAAAAAAAAAABAGPEdAAAAAAAAAAAII74DAAAAAAAAAABhxHcAAAAAAAAAACCM+A4AAAAAAAAAAIQR3wEAAAAAAAAAgDDiOwAAAAAAAAAAEEZ8BwAAAAAAAAAAwojvAAAAAAAAAABAGPEdAAAAAAAAAAAII74DAAAAAAAAAABhxHcAAAAAAAAAACCM+A4AAAAAAAAAAIQR3wEAAAAAAAAAgDDiOwAAAAAAAAAAEEZ8BwAAAAAAAAAAwojvAAAAAAAAAABAGPEdAAAAAAAAAAAII74DAAAAAAAAAABhxHcAAAAAAAAAACCM+A4AAAAAAAAAAIQR3wEAAAAAAAAAgDDiOwAAAAAAAAAAEEZ8BwAAAAAAAAAAwojvAAAAAAAAAABAGPEdAAAAAAAAAAAII74DAAAAAAAAAABhxHcAAAAAAAAAACCM+A4AAAAAAAAAAIQR3wEAAAAAAAAAgDDiOwAAAAAAAAAAEEZ8BwAAAAAAAAAAwojvAAAAAAAAAABAGPEdAAAAAAAAAAAII74DAAAAAAAAAABhxHcAAAAAAAAAACCM+A4AAAAAAAAAAIQR3wEAAAAAAAAAgDDiOwAAAAAAAAAAEEZ8BwAAAAAAAAAAwojvAAAAAAAAAABAGPEdAAAAAAAAAAAII74DAAAAAAAAAABhxHcAAAAAAAAAACCM+A4AAAAAAAAAAIQR3wEAAAAAAAAAgDDiOwAAAAAAAAAAEEZ8BwAAAAAAAAAAwojvAAAAAAAAAABAGPEdAAAAAAAAAAAII74DAAAAAAAAAABhxHcAAAAAAAAAACCM+A4AAAAAAAAAAIQR3wEAAAAAAAAAgDDiOwAAAAAAAAAAEEZ8BwAAAAAAAAAAwojvAAAAAAAAAABAGPEdAAAAAAAAAAAII74DAAAAAAAAAABhxHcAAAAAAAAAACCM+A4AALqbkp0AACAASURBVAAAAAAAAIQR3wEAAAAAAAAAgDDiOwAAAAAAAAAAEEZ8BwAAAAAAAAAAwojvAAAAAAAAAABAGPEdAAAAAAAAAAAI8yv6AAB4YlmW6EMAAAAAAAAA4ChW3wEAAAAAAAAAgDBW3wEAAAAADvTWqrLrethxAAAAQFbiOwAAAABDfXyPKvwWRmAuO7eA/vdfF+hhamoKAKOoKQC5LavHX4Dclp2Nz6FUDQAA+M/H7v+hrl1OI+c8uXokpS01pZZMzTo4jzJchZoCUJb4DkB24jsAAJDC/j74Y7rkFBT4wOrxlNrUlNIyNevgPEpvWmoKQBfiOwDZie8AAECYo1vhN+mPk16e51QPqVSiprSRZxKEMym6qagpAB2J7wBkJ74DAAABQhriP+iPk0+mJ9S/PKqSnZrSTM6pEI6m3CahpgD0Jb4DkJ34DgAAnCdDN/wHzXFyyPRsepsHVtJRU7rKPyHCERTaWGoKwATEdwD45nFaSNUAAKCthA3xH/THCVLrPbXHVlJQU3qrNS3CKEpsFDUFYBriOwB8I74DAMBc8nfDf9Ac50R131B7eCWGmjKJupMj7KG4nkxNAZiP+A4A34jvAAAwkXI98S+a4xyvwetpj7CcSk2ZR4P5ETZQVs+kpgBMSXwHgG/EdwAAmELdhvgXnXEO0+nFtKdYzqCmzKbTLAmvU1PPoaYATEx8B4BvxHcAAGiuQUP8muY4Q3V9Je1ZlqOoKXPqOlfCY6rp0dQUgOmJ7wDwjfgOAABtNWuIX9McZ4Te76M9zjKYmjKz3tMl3KOUHkdNAeByuVwu/4s+AAAAAIDjNe6JX7qfHado/zK6/Qlyqt6zbu+zA8im96zb++wARrP6DgDfWH0HAIBupmoZ+7yV982Wa/Fcyy5qCpf55k34pIIOp6YA8J3VdwAAAIC+puqJX+Y7X3ab8B30hKfMMLPNsbOdL8CZZptjZztfgE2svgPAN1bfAQCgiZkbxL5t5TUzB1k83fIeNYVrM8+ezEztHEVNAeAO8R0AvhHfAQCgg5l74l80x7nPq+eLt5C8Tk25qCnfmUOZk8I5hJpyUVMA7rJ5FgAAANCLnvgn48Ad3jt/Mg68xFz6yTgA7Gcu/WQcAO4Q3wEAAAAa0Qu+ZjT4h8zKNaPBE2bRa0YDYA+z6DWjAXCLzbMA+MbmWQAAVKUFfI/V6flDWuUmT7rcoKbco6ZcTKbMSr3cTE25R00B+M7qOwAAAEB9euIPGBwul4vXzfcZGX4ybT5gcADeYtp8wOAAfCe+AwAAABSn7fuUIZqehMpjxoe/TJhPGSKAF5kwnzJEAFfEdwAAAIDKNHxfZKAmJpvyCqPE5WKqfJmBAnjKVPkiAwXwh/gOh1iWZdHzAAAA4GhavW8xXFPSoXmdsZqdSfIthgvgAZPkWwwXwOVyuVyWdV2jj4EOXgzruN8gv8d/zv6KAQBIRJN3m9/+V/1E5FE28OA7KTVlmzlrirmVOSmQr1NTtpmzpgBcsfoOuyx/vPXPH3pIAAAATEFPfDNDNw09mG2M24xMjJsZOoAfTIybGTpgeuI7bLc5iCPEAwAAwC4auzsZwAlovexh9OZiStzJAAJ8MSXuZACBuYnvsNH+/I0EDwAAAFto6Q5hGFvTdNnPGM7CZDiEYQS4mAwHMYzAxMR3eNvAtXMswwMAAMB7NHMHMphN6bXAq0yDAxlMYHKmwYEMJjCrZV3X6GPgbUMiL9su/UFpG/ch5PH4z9xfKwAAkbRxj/Db/8hvRXZnLA/BnakpR5ikpphqmZOi+ICacoRJagrAFavvkII1eAAAAHhCTxye0V8ZzpC2paYAMIqaAsAg4jsl7V/9ItXSOwAAAPCEnvhxjC08pB/WkHnvOMYWmI157zjGFpiP+E5V2/I36x8b/t2jszuyQQAAABBDZ7wFnRUgBTUFgFHUFGAy4jtT2JPa+XROtkaCBwAAgBs0bU9gkIvTUzmU4W3FdHcCgwxMwnR3AoMMzER8p7P9qZ1PUjUAAACE0a49jaEuS+fmBAa5CRPdaQw10J6J7jSGGpjGr+gD4BD7IzsD3TyYe5GgZVlSHTwAAACRNGrhGbGS0yzLRdeqNjUFgFHUFAAOYPWdhsbGXzYvvfN47Z8hywIBAADQmZ74+Yw50JX57XzGHOjK/HY+Yw7MQXynqpupmjyZmBcP4+YB26sLAAAAwuiMl6KJcjIDDu9RUwAYRU0BJiC+08cRwZ1tSZp3jyRJ5AgAAIBENGfhGVGSEIa9JDUFgFHUFAAOI77TRN3szsBfDQAAQBN64rGMfwV6J/Aqc1os4w90Yk6LZfyB7sR3SvqRbsmzes3mI8lzCgAAAATTk83AVYD7ZKcqMZtl4CoAPZjNMnAVgNbEd7htw/o3OyM4EjwAAACQiM54YuIjQDFqCgCjqClAX+I75SVJvSQ5DAAAAGrTioVnZHcycBVqUFMAGEVNAeB44jvcsGHpHQAAANhLTzwbVwTu0z/LzgyWjSsC1GUGy8YVAZoS36nnOltzxJo352+bdfPniBABAADMRQc2J9clGf0SeIm5KyfXBajI3JWT6wJ0JL4DAAAAAAXI7mTjigAAADCK+A7fBC69AwAAwLx8OpmZqwP3SfBkZNbKzNUBajFrZebqAO2I77CL7A4AAAB76brCC8RE4CVqCgCjqCkAnEt8h782LL0DAAAA9OfVRTQ9m8xcHXiPmgLAKGoK0Iv4DttZegcAAIC99FurcKWA/MxUVbhSQH5mqipcKaAR8R3+k23pHdkgAACA/nRa4QXJejbc4BqloKYAMIqaAkAE8R0ul03ZHfEaAAAAmIvXGBHkQoCe1BQARlFTgC7EdwAAAIAIeqxAI4JWwdQUAEZRUwAIIr6DpXcAAACA13iZcS6JEKAzNQWAUdQUoAXxHd52XHZnQ5AIAACAknRXgXZ0tsKoKQCMoqYAEEd8p7b9eReJGQAAAM6mJ16ay3cWPRt4iUmpNJcPSMWkVJrLB9QnvlPPwMVv0m6bZXMuAAAAYGayO0W5cAAAAGwjvlPe5uVzsq27k+14AAAAOIRvIhtwEYEkTEcNuIhAEqajBlxEoDjxnQ5OC75YFAcAAADgaD5xKs3lAwAAYAPxnZJ2xmiWZcm2bZaldwAAAKbga8g2XEognImoDZcSCGciasOlBCoT32ni9UROwqBMwkMCAAAAntAZP4Y2SQMuIrxNTQFgFDUFKOtX9AEw0mcO5t4yOXtSMsctvfPvUdmiCwAAoCddVABGUVMAGEVNASAH8Z2q1nW9F8cZvpjNmdkdAAAAetIThxfolLSxLBdfqB1ITQFgFDUFgDRsnlXYOavUyO4AAAAAt3nbMZROCTA1NQWAUdQUoCar7xBAcAcAAGAumqfAfCzAcxQ1BYBR1BQAMrH6Tm1HL8BzxM+X3QEAAIA+vPMYRL8EQE0BYBg1BSjI6jvlret6UCBmbHZHagcAAGBS2qbArCzAM56aAsAoagoAyVh9p4Mj1sgZ+DOXZZHdAQAAgLa8+dhN4wTgP2oKAKOoKUA1Vt9pYuAaPKOCOyI7AAAAaJgCk7MAz0hqCgCjqCkA5GP1nT7Wdd2fvNn5E5Yre37InmMAAAAAzub9xw4aIQDfqCkAjKKmAKWI73SzOX+zP/0zMHYjwQMAANCBVikAo6gpAIyipgCQkvhOQ+sfb/3zhx4SAAAA0Jy3IJv4gmkGrjK8TU0BYBQ1BajjV/QBcKDrUM6yLOu6fv7/E34dAAAAs9MkBWAUNQWAUdQUALKy+s4sPrM1EjYAAAAASViUZR6uNQAAAI+J7wAAAACj+aR1Tq47cARzy5xcd+AI5pY5ue5AEeI7AAAAAHA2y7HMxhUHAADgAfEdAAAAAAbxYSsAo6gpAIyipgAViO8AAAAAQ2mMAjCKmgLAKGoKALmJ7wAAAADAqeyjNCfXHQAAgHvEdwAAAIBxfNKKewAYxXyCewAYxXyCewBIT3wHAAAAAM5jCZaZufoAAADcJL7D2ZZlWTQqAAAAWvI5I5/cCcB+ZhI+uROA/cwkfHInALmJ7xBDiAcAAACYkHYIAAAA8C/xHSJJ8AAAAPThQ0aAF+iHvURNAWAUNQWAIsR3ONu6rtf/UYIHAAAAGvKa5BZdEIAt1BQARlFTgMR+RR8AW/wbefmRiUluXdfrU1iWpdbxAwAAAAAAAACMYvUdYliDBwAAoBWfMAK8TCfsCTUFgFHUFADqEN8hCwkeAAAAaMXLku90PgC2U1MAGEVNAbKyeRZhfmyhdbGLFgAAQFG6n8AzT1s+s8WbluX5mExKTQFgFDUFgFLEdwAAAADgWLNlUy4v5HUe//MTjhgAAAAzs3kWkf5da8cWWgAAANCHL54ns65//y/PjwKaUFMAGEVNAVKy+g7p2EILAACgEn3Pa7/vP88aKPo6upHz+fP7ffNl/6wbTJXX1BSAPUyV19QUgArEdyAX6aV7PldmMjgAAEAWDzrgr/zzuuQz6Zc7+XLmY3rXEA9cLmoKAOOoKQBlCQqU9O8OU3Wv483dsuqezh7XQzHnCFx7fRs1YzXc48E34AAAfDNbb/fdVvgrZhjDI8atlJaJk9inwzZD6iH7mxnmw2tqyjYZakqbOQjeUqtozTAfXlNTtslQUwCuWH2HjCZcgeb1tEpvG8bh61+Z7Z4BAADOc2hX9+uHz9Afn1K/J/4Mz99tVuKxf9aM1BQARlFTAHoR34Fggjuf9o+D3bUAAIDxzvwc8/N3aY6TWLZn7nXtkOBhImoKAKOoKQAdTbfGSQ9tNs96kNgoekZvmfz0vzwN7twcDRs8HcfYAgDwqsYN3PBF1PuNbfiQxmmTL0n7OFh9hNMO7Nn6zXtfwifAfmMbPqTsETtrm3Mn0W/e+xI+AfYb2/AhBbhi9R0IYMWdL5szTJ//7b1/fcL91wAAgGEyNHB94dpFjwZA8ifs6htp2T+rOTUFgFHUFIDuxHcI8zjC0jV+Ibhzbf/6Q+u6SvAAAADDZGiIX9McJ4Eqz9Y20iIdNQWAUdQUgDl4vV1S9c2zXoyw1Dqpp94K7jQ795sG7h1mG7KxbJ4FAMBLmvVqszXEf+gx2skH+QAN0iTlHgGLjnm5cR6vxyz3Jfl012O0kw8yD9g8i6P1mOW+JJ/ueox28kEGZvK/6ANgLsuyTLj8zJxn/djYwM2Df8XIAwAAz+Vv1+Y/QtpZ15KvOCse8yX6XTaD5Z+x8x8hAJ/yz9j5jxCgFJtnRRoYLJBRyMl1uemIxXLsogUAAGxRqN1sgXpOVPox2i5ahFFTABhFTQGYktV3YliOpT2X+J7jNrqyBg8AAJynR3O2UE/8S8VjnlXdJ9HS2Z1PDU5hLmpKlIrHDPCYmhKl4jED5CO+E8NaIE/VHSLBnQcCR8ZFAQAA/vq9Fu4v1z3yHm9Tuivbj/mp3InoWxSmpoRQU4CW1JQQagqQhvhOmHVd6yZUuOlHcGe9JfDwkhsyOEYYAADOUL25Wbet/KXBKZBSs6fqZqfTlpoSrsEpAHxSU8I1OAWAUOI7waQN+pHUuSd8/ZvwAwAAAOK1aSi3OZGmKj6AtuxktDwpEmkzFbc5EYC62kzFbU4EIIL4TjxRjzZeuZTTXuvH0ZmBw/L4R0nwAADA1Jq1kiueTvVPovtq3K5ofGoEqzgJP1DxdNQUoI2Kk/ADFU9HTQFyEN/JYtpUx01GAwAAIKm6bc2KTeSnWp4Up2vfhqlygjN+c6SmpNLypIB5qCmptDwpgOOJ7yQis0JXJ695YwEeAADgp8bt48anVlat507tKHhb44m38akB5NR44m18agCHEd/JxUZaFzGm+bjiAADAsdo3jtufIIeZ54l8njPlcO2n3PYnCJBH+ym3/QkCjCa+k9HMaYaZz53TWIAHAAA2qrgi/SQt40KnWfEuooUSPae5OhYVZ4NCk+0ehU6z4l0EHKHibFBost2j0GlWvIuAdsR3kpozxTLnWbcnKwMAAIQp1Czeb6qTTazQQ/CEbZgJT5mRpppmpzpZgPNNNc1OdbIA+4jv5DXVRlpTnSzXDrruT3+sUBEAAPQ3YZt4wlNmK20YeM+EE+yEpwxwjgkn2AlPGWAT8Z3s2odaBHd6k5IBAABiTNsgnvbEecfMnZiZz53tpp1apz1xgONMO7VOe+IA7xDfKaBlumX9I/pAAAAAeM2HdD6D9L2XSnzDohmTfARK3EUD9J0HOJt7CTAPMIp7CYgmvlPD05jLWs054wYPWBkIAADamvzLzslPH2CsySfVyU8fYKzJJ9XJTx/gBeI7ZYi8UE5sPsafDAAATEpT+GIQuMuz8ifjwKtMpxeDADCI6fRiEACeEN+pRByBZtzSAABQRpVVxLWDvxiK0+Vf49VT+LXMo5H/XtpLTSnHUABpqSnlGAqA+8R3ihF3gIHsnwUAABCjyosWAPJTUwAYRU0BQonv1CPBQwmSMQAAwNl8x/mDAeGKftK/jAmPmEJ/MCAAm5lCfzAgAHeI7wAAAAAPlfgAUQv4JsNyluTfsMipkIiaUpdhAbJRU+oyLAC3iO+UZAEeAAAA+EvzF9gkbY8teSCsOTUFgFHUFADeIb5TlQQPDGGTLwAAoLm07wxKfC3dgh7SY8YH3qCmADCKmgLwD/GdwiR4SCtJJsbfCAAADJC/d5m27ZuHITpYjodgqEBNacAQAUmoKQ0YIoDvxHdqk06gLncvAAAwgIYvPOTh+xVGif+oKQCMoqYA8D7xnfLWdRWDAAAAAB7x/mBKOkalWdWJvNQUAEZRUwCuiO8AAAAANWn1AoOIOqGmADCMmgLAJuI7AAAAwB0fiRd/0BN/V8IRy3yDvSztEinyKKST+U8+4QyZXMIRy3yDAcNl/pNPOEMml3DEMt9gQGviOwAAAABzSNgZhzQEnuA9agoAo6gpAJfLRXwHYEn7pSQAAHCP9i48JInSg47FSdQUAEZRUwDYQXwHGEwaBgAAmrBgeEveKAzlCbgZsacDqSktqSlACDWlJTUFQHwHAAAAKEZjtxNvXw4ggwJvUFM6UVOAWGpKJ2oKEEF8h0SWP6IPBH5aZhI92AAA8JCe+H7GEO4TfpqL+XA/YwjwyXy4nzEEpie+AwAAAABNSJ804ysbAACASYjvAAAAAP/IuVS4zzFHMZIjyFXAq9SU3owkcCY1pTcjCcxNfAcAAAAAOrD0zhCGEQAAgPOJ7wAAAAAV+BBzrDzjmfMTaqC3PHNgD3nGU00BzpdnDuwhz3iqKcDpxHcAAAAAoDxrxgyUajBt0wYAADAD8R0AAADgu4RfGeb5BLMTo7qDRAW8Sk2ZhFEFTqCmTMKoArMS3yGLRd8LAAAAYJNUq8UAAAAA7xLfAQAAAHLz8eVxjC3cIRHVlnnvOMYWmI157zjGFpiS+A4pWHqH5NaZRA82AAAwn4T7IDyUrY3hSa69bLccpFatpgCQl5oCnEt8h3iyOwAAAIlka1D67BIIIhc1gJoCwChqCgDdie8QaVkW2R0AAACI5MVDcSImQCJqCgCjqCnAfH5FH0BPPyIpYzejkXcBAABgFjq2AIyipgAwipoCwAGsvjPYzeVkrDHDVMbm1QAAADic1w/v0OOZiiYHvE1NAWAUNQWYjPjOSI8zOhI8AAAAZPeR6dFVrxaeES6ZR8nOopoCwChqCgATEN8Z5pV0zpAEj6VNYCx/UwAAAPFSvZIBoDQ1BYBR1BTgROI7Y7yey7EGDwAAAJCOb4gL8jXKOYwzvE1NAWAUNQWYifgOAAAAkI8uLSn5LAtKUlMAGEVNAeAw4jsDvLugzv4FeOz1AwAAwHhWBZ+cVxHAQGrK5NQUYCA1ZXJqCjAN8R0AAAAgGf1ZeMa3XWdKMtoWf9pITQFgFDUFgCOJ7wDjWSAKAACAt/muGoBR1BQARlFTgLOI71QlHkF1+3eRG8KfEgAApOOT1kAG/6EcD7KXS5rFYKAA01oggw80Y1oLZPCBOYjvAG0lSQgBAAAA1YlMAQAAcCjxnQCjVvuwaggAAADDWA8cgFHUFABGUVMAmIb4zgBiNAAAADCGRdHDuQTpaUTNzELD7zGhhXMJgDZMaOFcAmAC4jtnk/VhEm51AAAAAAAAAHiF+M4YUUmFF3/vmsbRAwJvcU8CAEAuvqck8eYIVj1BF6EYNYXENQUoRk1BTQFOIb4zzNMcwMn5lZyhGYEeAACAjPQiueb9RGJaKRSgpnBNTQH2UFO4pqYA3YnvjPQgj3JyTqVQLKbQofKupxd38ekiAAAAAAAAANP7FX0ADZ2f1PmRgSgXiPn3FGC/pzdVub8UAABozpeU8IwH2XDrGr+N2rK4E16gpgAwipoCwFmsvkMKghQAAABAWuGJDQAAAKA38R3gQIJZAAAAJfnIGIBR1BQARlFTgNbEdzrokZDocRZU4X4DAIC/PhKsK6IJy5cMN2RKHmSpIcOfsJrClww3JLBZhj9hNYUvGW5IoDvxHSDScsz64wf9WAAAAGByclQAAAAcQXwHOFbCdW4SHhIAAEA6PjWGrHy1RD1qCgCjqClAX+I7TYgjAAAAUJX2K7lliEpo/MCr1BQARlFTADiX+A5wuMfxsuEbXT3+gbJuAADwzUeCYAIAPagpAIyipgAwn1/RB8Aw67oOj0EwlZv3j7ALAAAAwLV1TbEmEwAAAJ1YfQe4XO6vWDMqE5YkBpTkMAAAgL+sSJ+Zq5ODZ1l4lVkrM1cHqMWslZmrAzQlvtPKuq6l0wnrH9EHMp3HGZ0TVnUa+CusQQUAAFBepr0SPGUC1JappgBQm5oCHEx8B2b3St5lSCYmPJgVfgAAAAAAQwiWAQAANCO+A5znQYBmSELowQ+R3QEAgBvCvx205jlQkzbDDWoKAKOoKQBMSXwHpvZ6aKbWFloAAACM4dVFNDERoA81BYBR1BSgI/EdOJWEynGr4Fh6BwAAAAAAAICKxHeAsx2xhZbsDgAA1ONzSdKb/hscqENNAWAUNQWAIOI7cJ5UO1XFGpvgkd0BAADo5qP5c/GLPNRm5upAGWoKAKOoKcCRxHfgJO+mUs5J8ASmWx4neIZEnWR3AAAABvD9MaTU/eMvmlJTABhFTQHa+RV9ANDcnhTO17+bIYZyxDF8/sx7Q7Qsy+NfKrgDAAC7+GoQgFHUFABGUVMAmJX4zuw2h0vEI246aMmcmz921CVY1zV2r64HB7DtwNycAABQgA8lARhFTQFgFDUFgDjiOzMaktW4/iHSEtU9TfAcfYkfL8Pz7s8BAACA/cJ3JvKMm9+6xt8nAAAA9CC+M5HjVlhJtcdTrLojcC/Bc+YZff2uDfdq3ZEHAAAAAAAAYHL/iz4AzrAsyzm7Iy1/nPC7GG69JfxIXvlnZHcAAKAYK9KX45IBaZmgynHJgLRMUOW4ZEAvVt9pLipJ8/l7hSrYz10EAACH+PDdBUB5y5JjkzU1BYBR1BQAJmb1nbYyrIITfgAAAABAVXO/vEmRyQBoY+6aAsBIagpwGPGdnvLkZjKkiAAAAADgCIJWAAAADCG+01DCuIwQDwAAAP/57V03BWhjQA1qCgCjqCkARBPfaSV5SibzsQEAAACPeJ8BwChqCgCjqClAI+I7fZQIx5Q4SAAAAIBA9mMCAACA2YjvNFEoFlPoUAEAAHr6iHsu82Uk0M7scSs1BYBR1BQA5ia+00G5QEy5AwYAAACAhLTZAAAAehDfKa9oFKboYQMAAADtaVoAAAAAJxPfIYwEDwAAAFRy/p4CgRsoxJl9JyZgEmoKAKOoKUAXv6IPgF1OSMCsrzWNth3Jsiwv/nwAAADKO7+pCkBXagoAo6gpAOQgvlPYEdmdzWGaH//i68cmwQMAAABAaetqzzUAAAB2Ed9he2TnxZ/5NMojwQMAAHAeq3wDMIqaAsAoagoA0xPfqWr/0junJWY+f9EJ+3wBAAAAlOb7JgAAAJjT/6IPgADrup6/2s3jXyrcAwAA0NxvqQRq0KKgnBlvWjUFgFHUFADSEN8paXPYJSS48+MA7v1XEjwAAACQndcbAIyipgAwipoCtGDzrFnEpnau2UsLAAAAAAAAAOCL1XemkCe78+XmIcn0AAAAHOvDYxfVzHTT5uvf8IYZL99Mf5404aaFtPx5Uo6bFjiA+E5/CbM7n9IeGAAAAAAAAADAacR36nlriZrkEZl/D88CPAAAAA39Tv1wCkAlagoAo6gpAGQivtNZ8uwOAAAAQCq+KgIAAABCiO+0VSW7U+U4AQAAgMvFN8oAjKOmADCKmgLUJ75DOvbPAgAAAGbj+6YGAi+idhoAAEB14js91VrSptbRAgAA8B4fQQIwipoCwChqCgDJiO8AAADAHD4szgDAIGoKAKOoKQBwuVzEd1qquJjNj2O2fxYAAAAAAAAAMAnxHQAAAAAS80E2AKOoKQCMoqYAo4nvAAAAAPCO3/XW/X1F4FrABVdSBhikaU0BIICaAhQnvtNNxZ2zAAAAaEv/FJiJztyx1BQARlFTAMhHfAcAAAAAoLbA5aMAAADYT3wHAAAAJvDhvS4Ag6gpAIyipgDAH+I79UyyPdbiiyEAAAAAAAAAYALiOwAAAAAAAAAAEEZ8BwAAADjG7ymWj52UizvOHOssw26mncZcXOBkpp3GXFygMvGdkh7sn2XPKQAAAIB3aagwijwWAAAAG4jvAAAAAJDbh3ANAIOoKQCMoqYAQ4nvVPVgAR4AAAAAAAAAAKoQ3wEAAIDufBEIwChqCgCjqCkAcEV8p7B7C/AsLXZrt7wQAABAbb891gGcqkVT8A41BYBR1BQAshLfIYUekSMAAACAt/h8CQAAALiI71TXewEeAAAAIC8fLgMwipoCwChqClCW+E55NpkCAAAA2MNnUIylXQcAAMC7xHc6uJngKbQAT6FDBQAAAICcxIYAAADqEt9ponqCBwAAgFYsVw5wrs7ZHTUFgFHUFAASE9/po2iCJ/8RAgAAAByhc96CaypTzwAAIABJREFUE62rewkAAKA88Z1WyiV47h3bzRMBAABgi4+8T4XwBncy3HJ2F81fIj24k/k/e3e3nLiOhQEUd+UpecC8pueC0wydBGJA9v7RWpWLqampaSMJNpY/tsjAO5EerGRgHPGdbtZ1/Z59yZngyXlVAAAAAJCfpjsAAACdfERfALu4JHhu8zHX/5yhsY3gDgAAAAC8LMEOHwAAACOJ7wxQK4xS62oBAACAvM5rg17xdkrYw7rutbQEd2irRU0BIAU1BahJfId0MvQHAgAA4HVnt3XswLpiepPumXnvswfrCubkvc8erCtgnD/RF9CBuAkAAADAjuyJMz0bkDCMmgLAKGoKMJTuOwAAAABk1XdDXBqDjSwVGKZvTQHgaGoKsAPdd8hFKyMAAICRPpfoK4A32BNnerm2ytQUSlNTIBU1hdLUFGAf4jtjCJ0AAAAAjGRPnLmta7LsDpSmpgAwipoC7MbhWQAAAABkYkOc6QnuwDBqCgCjqCnAznTfIRFNjAAAAMqzocmbLCG6eG2jS9Odf/hA4E2WEHDlA4E3WULA/sR3hhE9AQAAAKYzdhf78D3xZTn4H4RH7C8yu+I1BYBE1BSgIIdnkYX8EwAAAMzLhjhzszEGI6kpAIyipgAHEt8hBdkdAAAAmNd8e+I2QriyGGCw+WoKAHtRU4BjOTxrJBkUAAAAEvl0LBAV2BNnYpV2E9UUSlBToAQ1hRLUFOBwuu8QT+wJAAAAJmVPnFnZD4Px1BQARlFTgAjiO0QS3AEAAIBJ2RBnYrbEYDA1BYBR1BQgjvjOQeRUAAAA6M9GJxtZKsxhXU/L8vW/YSsfFGxkqQC/8kHBRpYKEOpP9AV082NMR3YHAAAA4D/2xJmVPUIYT00BYBQ1BYim+87uZHcAAACAzs7r6XP5/X92siHOvGwQwlZqCgCjqClANbrvAAAAALC/fHviy7bNfHiT7A6Ml6+mAFCVmgKkIb4znnY7AAAAAP+wJ37D1tFUTDeMp6YAMIqaAmTi8CwAAAAAdmNDHIBR1BQARlFTgHx03wEAAICOPh0LRAL2xKEHNYUM1BToQU0hAzUFSEl8BwAAABjBBihfWBLAy3yA8IUlAbzMBwhfWBJAVuI7u1gdag0AAADMzJ44AKOoKQCMoqYAiX1EXwAAAAAAjdgQB2AUNQWAUdQUID3ddwAAAAB4z3Ur3J44AG9SUwAYRU0BStF9Zy/OzwIAAADmYk8cgFHUFABGUVOAInTfAQAAAOBt1fbElyX6CgC4p1pNASAvNQWoQ3wHAAAAAA6iXzMAAADwnfgOAAAA8Da/aARgFDUFgFHUFADqEN8BAACAdj4dCwTAIGoKAKOoKQBwn/gOAAAAAAAAAACEEd8BAAAAAAAAAIAw4jsAAAAAAAAAABBGfAcAAAAAAAAAAMKI7wAAAAAAAAAAQJiP6AsA4BfLskRfAgAAAAAAAAB70X0HAAAAeM95jb4CqGH1XoFfqSkAjKKmAFCK+A4AAAAAc9HkFAAAAEhFfAcAAAB6+RRMAGAQNQWAUdQUAHhIfAcAAAAAAAAAAMKI7wAAAAAAAAAAQBjxHQAAAAAAAAAACCO+AwAAAAAAAAAAYcR3AAAAAAAAAAAgzEf0BQDwi3Vdj/znlmU58p8DAAAAAAAAmJzuOwAAAMAbzofGzQHoTE0BYBQ1BYBqxHcAAAAAYHfHdlYFAAAAKhHfAQAAAGAiTgwGAAAAshHfAQAAAAAAAACAMOI7AAAA0MinviIADKKmADCKmgIAvxHfAQAAAAAAAACAMOI7AAAAAAAAAAAQRnwHAAAAAAAAAADCiO8AAAAAAAAAAEAY8R0AAADgVec1+goA6EJNAWAUNQWAgsR3AAAAAAAAAAAgjPgOAAAAAAAAAACEEd8BAAAAgH2tDnAAAAAA7hPfAQAAAAAAAACAMOI7AAAAAAAAAAAQRnwHAAAAAAAAAADCiO8AAABAF59L9BVAdot3CWykpgAwipoCABuI7wAAAAAAAAAAQBjxHQAAAAAAAAAACCO+AwAAALzkvEZfAQBdqCkAjKKmAFCT+A4AAAAAAAAAAIQR3wEAAAAAAAAAgDDiOwAAAAAAAAAAEEZ8BwAAAAAAAAAAwojvAAAAAMCO1jX6CgAAAIDcxHcAAAAAAAAAACCM+A4AAAAAAAAAAIQR3wEAAAAAAAAAgDDiOwAAAAAAAAAAEEZ8BwAAAFr4XKKvAIAu1BQARlFTAGAb8R0AAAAAprB4eAQAAACkJL4DAAAAPO+8Rl8BAF2oKQCMoqYAUJb4DgAAAAAAAAAAhBHfAQAAAAAAAACAMOI7AAAAAAAAAAAQRnwHAAAAAAAAAADCiO8AAAAAAAAAAEAY8R0AAAAAAAAAAAgjvgMAAAAAe1nX6CsAAAAA0hPfAQAAAAAAAACAMOI7AAAAAAAAAAAQRnwHAAAAAAAAAADCiO8AAAAAAAAAAEAY8R0AAAAAAAAAAAgjvgMAAAD1fS7RVwBAF2oKAKOoKQCwmfgOAAAA8KTzGn0FAHShpgAwipoCQGXiOwAAAAAAAAAAEOYj+gIAgPfs0YHW71QAAAAAAADgKOI7AFDEkQdFP/i3JHsAAAAAAABgKPEdAMjnyKTOs75cmzQPAAAAAAAAvEd8BwASyJzXeUyaBwAAAAAAAN4jvgMAQepGdh64fVGiPAAAZLJ0/AIOAAAA9CC+AwDHapna+dH1lcrxAAAAAAAAwH3iOwCwv3kiOz+S4wEAAAAAAID7xHcAYDeTp3a+k+MBAAAAAACAb8R3AGA0qZ1fyfEAAAAAAADAX+I7ADCO4M6zLiMmxAMAQFOrr7oAAADABuI7APA2qZ03acYDAAAAAADAxMR3AOANgjtjacYDAAAAAADAfMR3AOAlgjv7EeIBAAAAAABgJuI7APAkwZ1jCPEAAAAAAAAwB/EdANhMcOd4QjwAAAAAAAB0J74DABsI7sQS4gGAVBRlAEZRUwAYRU0BoLg/0RcAALl9LrI7WZgIALhHlQRgFDUFgFHUFAB4hu47AHCH28uEtOEBAAAAAACgHfEdAPhGcCc5IR4AAAAAAAAacXgWAPxLdqcKMwUAAAAAAEALuu8AwF/iIOVowwMAAAAAAEB9uu8AwOl0kt2pzNwBAAAAAABQmfgOANP7XOQ/yjODAAAAAAAAlCW+A8DcxD7aMJUAAAAAAADU9BF9AQAQRNqjn8ucntfo6wAAAAAAAIAn6L4DwJRkdxozuQAAAAAAAJQivgPAfMQ72jPFAAAAAAAA1CG+A8BMPhfBjlmYaAAAAAAAAIoQ3wFgGvIcszHjAAAAAAAAVCC+A8AcJDnmZN4BAAAAAABIT3wHgAnIcMzM7AMAAAAAAJCb+A4A3UlvYA0AAAAAAACQmPgOAK3JbXBhJQAAAAAAAJCV+A4AfUlscMt6AACY2OLLIAAAAJCY+A4ATclq8J1VAQAAAAAAQD4f0RcAADuQ0uCez+V0XqMvggg7fSxYTgDAfatvCgAAAMA24jsAtDNVdmeP6ED7AZTg6Sdw0f76T1tsAAAAAADAb8R3AOild/TkmBzA93+l96hSSMWl+OM1y/QAAAAAAAA3xHcAaKTio/3Hkjzjv72MHoOsAU8JPRbbj768NKsRAAAAAADmJr4DQBdtnvQnf5DfJsojwZNT6UX1MmkeAAAAAACYm/gOAC00eORf8YH99ZqLjr8ETwZFF8+ubsfEEgUAAAAAgAmI7wBQX+nH/z2ezVfP8XAw62Q7UR4AAAAAAJiA+A4AxRXNAXR9DH95XYUmRQOeIxVaGDldB9CiBWL5FAJgFDUFgFHUFADqE98BoLKKaYAZ7iRrNeOR4NlViTVQjhwPAAAAAAD0Ir4DAIeY8yl7uWY8jGLSjyHHAwAAAAAALYjvAFBWlXyAx+r5Qzwa8IySeZZ7k+OByfn4BWAUNQWAUdQUAHjSn+gLAICXlLj9O68epf9f8qEosaIy+1yMYQomAgAAAAAACtJ9B4CCSjycTp5WCZG/DQ/PMps5acYDAAAAAACliO8AUE3+uIDn5Y+lDfE4QuspCWeQ7y7TZGEDAAAAAEBu4jsAMI5n5NudV/mPksxaRUI8AAAAAACQ25/oCwCAZ2SODng0/qzzmm7QMi+wcJ+L8anNDAIAAAAAQFbiOwDUkfbBc8IYSiHZhi7tMgsk9tGJ2QQAAAAAgHzEdwDgPdnSJxXJP6Ul6tGVaQUAAAAAgEzEdwAoIuHDZqGTsfIMZsLFdjzBnfZMMQAAAAAApCG+A0AFCZ8x58madGJUM5DqmIrpBgAAAACABMR3AOB5Uib7STK20wYapn3hkzPvAAAAAAAQ6iP6AgDgN6meKycJl/R2XnNN+iSM+eQuC8BHHAAAAAAARNB9B4DcUkUKPNg+TIahTrX2duX4JK6sBAAAAAAAiCC+AwDbZAiUTMWAH0Ncgy8sCQAAAAAAOJz4DgCJ5XmKLEoSwrDvStMd7rE2AAAAAADgWB/RFwAA6QmRBDqvkTGCz6Xt7M8Zzhg1m5OMXuP1DwAAAAAAyYjvAJBVkgfknl6Hi03wtNR1PA97tz74h5qNrQQPAAAAAAAcQnwHgJSSPAL33Jpm8YUk76whcs7L96uqPubN3gIAAAAAAJCS+A4A3OGJdR4a8AxRfQyLviVvL7voFEjwAAAAAADAzsR3AMgnwxNuz6qzCUzw9MguZHhbvaDByN+qG+Xp8S4AAAAAAICsxHcAgCL04HlZrXGbJCZyfZlVZkeCBwAAAAAAdiO+A0AyGZ5ke0RNJxneUxvN+dYrlOOR4AEAAAAAgH2I7wDAvzycziyqAU/R1EL+OMhFxbHdQ4kcT9H3AgAAAAAA5Ca+A0Am4Q+tPZbOzxFaG+UfJW+3e5LneCR4AAAAAABgNPEdAPjLA2nayBn7uPBG2+4yVplnEwAAAAAAGOFP9AUAwF8eUbNRSP6j0PpMe6nnVXbnFQnHLe0aAwAAAACAmnTfAYDT6aQjCF3kzFV4f70vWyceR2gBbJTno7sflQiYjZqyHzUFmI2ash81BXiD7jsA5BB7w+ArdTmm7EcJb7wTdo4pLdV4JlxvAAAAAABQk/gOAMA2ycMK2S4vVdCkGQMLAAAAAAC9iO8AkIDWO7zAxN1Kld0R3DlAkkFOtfAAAAAAAKAs8R0A5pbh+Td04j11pAyjLcEDAAAAAABvE98BYGIZnnzzjuNnMGdSIclVJekHMxvDDgAAAAAA9YnvABAtSfIAikryDpIgiRU7/kkWIQAAAAAAlCW+A5Ddcqzol3sgaYMeJp/HDLEJ3V+SkOABAAAAAICyxHcACOWJL+XkWbQZrkRwJxXTAQAAAAAANYnvADAlD7k7mXM2ZXf4UeCkZFiTAAAAAABQk/gOAPOROYD3eR+lZWoAAAAAAL5ZlmF/sAfxHQDiaNVAUeFLN/YCzquASHZRExT+1gAAAAAAJnZY5ka4hz2I7wAwGbGDlqaa1vDsDiVI8AAAAAAAfWXOzaS9MJIT3wEgiEe8UI7sTi3mCwAAAADoonQgpvTFcxjxHQBm4mF2Y5NMbmDubZIR5n3SmQAAAADACF0jL11fF28S3wEAeF5IQEF2h2eZOAAAAACglNmiLbO9Xh74iL4AAH6xroc+fF2O+XYQkkLwGBte471T2nnVDgcAAAAAyExy5eI6Dsc+GyQL3XcAgC56p0yiEhi9R3USx0+iwBAAAAAA8BtdZ+4xMnPSfQeAOYggUJrsDgAAAAAALUilbKcfz1R03wHgcLoy0IOVTCEa8AAAAAAAoXSUeYfRm4H4DgDQSMtuMVrvMIQJBQAAAAAOJ3cylsFszOFZAEzAQ2vGmmFFzfAa2dvnYiEBAAAAwLSkTPZzGVsnajUjvgPAsRynQlFRKYSQt4zIRVfn1YcwAAAAALArqZ3DCPE0I74DQHeCCLMZG1CwfgAAAAAAYAPBnRBCPG2I7wAAfJMktaP1DsMd3IDH+VkAAAAAMAHBnXBCPA2I7wBwIIe2kJmQwckgAAAAAADwBMGdVIR4ShPfAaA1WYQ5PdVfJO0iOT7ulnYoGOvgBjwAAAAAQEeCO2kJ8RQlvgMATElUBQAAAAAAnie4U4IQTzniOwAcRSsRwhVaEt4v7GrXBjzWEgAAAAA0JbhTzrJI8JQhvgMAdCdMALvyFgMAAACA7gR36tKGpwrxHQCgo9J5Aq13OMA7DXgsGAAAAACYhuBOD9rw5Ce+A8AhxBEgLW8WfmWRAAAAAMCUZHc60YYnOfEdAIBMjs+6wXfyOgAAAAAwN8GdrrThSUt8BwBgYlIaM7s9P8tKAAAAAAD+kt3pTYInJ/EdADryHJqitN7hYD4tAQAAAIAbgjuTcJBWQn+iLwCACUgkQE6iGwAAAAAA/CW7Mxsznor4DgAAAAAAAADMa1kkOSZl3vMQ3wEAyEGfKgAAAAAADifAMTkLIAnxHQDacR4QbOGdAgDMZPXdBwAA4CeiG5wsgxzEdwDYmYYiAAAAAAAA+QhtcOUAtXAf0RcAAMDhQTetdwAAAAAAJjZnUOPNzqwzDNqy6F8bRnwHAAAAAAAAAGbRO4ayX/rk3v9zs/GU4IkivgNAL3qKAAAAAAAA3NEsa5IhaPLlGhqMsARPCPEdAIBoTs4CAAAAAGB/DZIlpxyRnQduL6/ugEvwHO9P9AUA0NrBoQQAAPbmCx4Ao6gpAIyipsA2daMkp9NpXf//V0jRy74ovWAq0n0HAAAAAAAAADorGsWomHq55/pais4FexPfAaARRwJRkZOzAAAAAADYU7m8SKfUzneXV1diUhyhdSTxHQAAAAAYzy4nAACQQYmYyMVU91BVmvG4tz3Mn+gLAAAAAN6gsxoAo6gpAIyipkAayaMhV+s6b0Yk/2uvsoqqE98BYDcHHwkE/Mq+CQAAAADANEqkLvKHV46RfBxKrKXqxHcA6EIugYqk3AAAAAAA2EH+vEXywEqIzAOSf0VVJ74DAAAAAAAAAH0kT1oI7jyQeXCSr6vqPqIvAAAAAAAAAAAYI3PGIm0wJZvLQGWeSobTfQcAYA4OmAMAAAAA6C5t4CNzU5m0Eo5Y2gXWgPgOAAAAAAAAAJSXNlqRMIZSRcLYU9plVp34DgD7+FS64TfeJgAAAAAADJIzVJEwfVKRMZyB+A4ALTgVCAAAAAAAIBOhk4FSDWbOrFh14jsAAAAAAAAAUFi2OIWmO3tINaTZllwD4jsAABPQoQoAAAAAoKlsQYpUKZNmUo1ttoVXnfgOAAAAAAAAAJSULUKRKl/Sks5GXYnvAAAAAAAAAABvESs5UpKhzpYeK018BwAAAAAAAADqyROeSJImmYoxb0Z8B4AdfKb5tghpeZsAAAAAAPAG2R0yyLMOqxPfAaC+s2+FAAAAAADARPJkJmR3AiUZ/DyrsTTxHQAAAAAAAADgaUniIzMzBW2I7wAAAAAAAABAGUmanQiOJJFhIpKsydLEdwAAAAAAAACghiQ5iQyREa5MRwPiOwAA3Z19bQcAAAAAYBhhkYTCJyVJsKwu8R0AAAAA+gvfxwQAAHhfhoSE2yvYg/gOAAAAAAAAAPA72Z3MwmcnQ7ysLvEdAAAAAAAAAMguPBsRng7hV+aoro/oCwAAgEw+o++Aezu7dwQAAACAV4Rnd2CLZREhepHuOwAAAAAAAADAIzIZVZiposR3ABjt4MYVGjkAABxMozIARlFTABhFTaG78NY7EiG1xM5X+HItSnwHAAAAAHZhyxIAAGhAdgcOIL4DAAAAAAAAAEn5YQAvELoqR3wHAAAAAAAAAPiBFEhdgXMnc/YC8R0AAAAo7mwjDYBB1BQARlFTYJDYGITsDhxGfAcAAAAAAAAAoBsNeAoR3wEAAAAAAACAdLTegXmI7wAAdPcp4g4AAAAAwBNkd9owlVWI7wAAAAAAAABALs4eojpr+CniOwAAAAAAAADAf/RracaEliC+AwAAAAAAAAAAYT6iLwAAONCnNoW7OcuuAwAAAAAwRuCpQzq1tLSuMYtqWayorcR3AAAAAAAAAAAYRmrnWQ7PAgCIoFsPAAAAAAA/0XqHPew9uev6zx/P0n0HAAAAAAAAAIAnyOiMJb4DAAAAwBTWNfI3rAAAAMlJY/CYFbIrh2cBAEzg03MqAAAAAIAC/OqA/Tybv3Ee1pF03wEAAAAAAAAAQEwnjPgOAAAA8KTP5XS2l7PBbKOk4R/wAjVlo9lGSU0BXqCmbDTbKKkpmwltTOL7udKmPgnxHQAAAADYy7LYCQUAALZychYHcJea05/oCwAAmNVsP3MBAAAAACAleQ4Ip/sOAADApI75OZfdHwAAAACAx3TfAQCYgzOeYSbLsukvz8UAAAAAYJMEZqb7DgAA3JjtUDO5ruLa7OnceyE69zzhvHpHAzCGmgLAKGoKFGEHBjIQ3wEAACigTVLnKd9fte0kAAAAAKAfh2cBAMSZrdELsJnjpe4xLAAAAEBLNjpgcuI7AADT0KwYEpNKeY1BAwAAAHiHVseQhMOzAAAAYkicjHU7njaeAAAAAIBCxHcAAACOI7JzDFEeAAAAAKAQh2cBAIQ6H/tU2flZEMEBT7EMPgAAAJBc1MaFXz1BHuI7ABQniwBAVlIj2ZgRAAAAACAn8R0ARju4lQgAZKLRTgnmCGbmp6UAAABAQuI7AADRnJ8F9YmDFGXWAAAAAIAMxHcAAABeJ//RgPTVi+RBYTOfMPALNQWAUdQUaoq6ZdCdFFL5iL4AAACAejyIbekyrbauAAAAAICD6b4DAJCA87OgCG1aZmCKAQAAAICD6b4DAADwO3mO2VxnXDMeAAAAAGBvuu8AAExJAx7YTC+WyVkAAAAAQD9+sATZiO8AAORw8PlZwAZyG1zVWAlKCQCjqCkAjKKmwG9q7DkA+xPfAQCYlQY8cN8kwZ113eWvq0lWBQAAAABwPPEdAIA0/BoJEugU0YjK2fRO9nRaIQAAAABAEuI7ANSngwi8zNsHbpSOZVTJylS5zl/VXSoAAAAAQELiOwDsQAcRAEqpGNxpkIC5KvpaKi4bAAAAgNOp0g4MzEN8BwAgk+PTbxrwMLdCCYyiGZcX1HqZVdYPAAAAAJDZR/QFAAAAxMgfvCiRX9nVdQQyT9bl2kwWFLKuqT9VAACAebg3Aa503wEASEYDHthf8qY7hXrPHCb/mGReUTtSQQAYRU0BYBQ1BYCaxHcAALCvwVzSxizyJ1QyyDxKaZcWkIGPCAAAAOABh2cBwEyOb+sSq24k5bwWvnhILOej05xJlPwu45ZtTh2kBQAAAAC8QPcdAFoQdID3eR/RXbacR+YuMoXkHMNsiw0AAADgKuFeCnAS3wFgL7N1eYHhQt5EEjz0lSpOkTNxUlrCIU215ADIQGkAAADgAfEdAICsJHhghGVJ9LQsYcqkk2zDm2fhAZCE0gAAAMA94jsAAEBbeR6SZUuWNJZqqANWoA6IALmlChb/Qk0BYBQ1BQA2EN8BAEhMAx54Q5JnY6nSJPPIM+ZJ1iEAqagOAAAAfCG+A0AXAgcwkDcU9WV4Kia4EyvP+GdYjQBkU6kNDwAAAPsT3wEAyC2qvbAED5WFPwzLExwhyUSEr0kAYt0rBAoEAMDMfBsEbonvALAbRxrDKBI88IzwjY8keRGukqSpwlfmXhQLgPdow/N/agoAo6gpABQkvgMAwH02O6gm9ulXkpgIPzI1wC2fCWQjwQMAADA58R0AgAoC21lJ8FBHeHaH5MLnyKNZmJwPAR7ThgcAAGBm4jsANCJkQG8SPPCQ7A5bhM+U57IAPKZSAAAAzEl8BwCADSR4yC3wQZcDs8oJny/PZQF4TBseAAD2E74xAtwjvgPAngKbhUBLse8pCR6yis3uUJGJAyA/CR4AAICpiO8AAJQiwQP/kt3hNbHT54ksAFtowwMAADAP8R0AepEtgL19Lt5ocIoOfzBE2wSP9ocAvUQmeNQUAEZRUwDgN+I7AADVZNjvkOBpoEUSK+ppluxOG6YSgBK04QEAAGhPfAcAoCAJHt7UYvpkd6iuz4PYFh8pAPn1KRwPqCkAjKKmAFCN+A4AO8sQMoCWMry5WrRvmU6XWZvi8RWHODKPta5f/wCYwcDvLdrwAAAAdCW+A0A7LR5LwyYZEjwnb7o6ugR3YslbtDR8Wr/HdIR1gAvBC4awkAAAAPr5iL4AAADecF5TBDIu15AkTsR3GRbJUI7NYrh1fXpdWQ9Q3QtvfMjjsnoVIwAAgDZ03wEAKC5PaKZdRqQDHXfG8XhsTvf66FgPAGQgggYAANCG+A5AdsuxdnkNx2cLPKtmNqkSPN6ASfSdC4+p2ImMDgAVLYtvRwAAAB04PAsAgNGcpRWraWrnwrFZAADfLYuvKwAAALWJ7wAAtHBe04U2hHgOlm0BNOJhGACQ3yXl7HsLAABAUQ7PAuAQzs+CA5zXjFmZvkc4JTLNIDsYAgDgMd+XAAAAihLfAQDoJWGC5zRRvuRQl1E1sDvzE3ZKkpwGmNiyDA3xqCkAjKKmAMBDDs8CAGgn4UFaF9erypkxqiLn5O7PT8kBALZbFilkAACASnTfAeAofl0BR0qej9E25gUGLYKHXgAMJ5A6m8AZt9gAAAAK0X0HAKCptD14bl2uMHnYKFb+SdzORAMAAABAKG0aIS3xHQCAvkokeE7/JlQkPC5KTNxT3pvZkN+O28gAaG9dtScBAAAAUhDfAchuPfbh4dJs9/pzEQVgdlUSPFfXq53wzVtrprabcCoBAAAAAOAZ4jsAHKhcjAB6uIQnyr37JmnJU25entJ44gAAAADgPRqCArfEdwDoTgMeuCidn2sW5ak7EdsNnSYnZ0ENvnQBJFP4+4yaAsAoagoAdYjvAABMo3SC5+rLSyixBdNg2J9SYlKgvR6f+QBkoKYAMIqaAgD3ie8AcKyQOzS/sYCrogdpPfD9tYS/3zsN77PCBx8AAAAAAAoS3wEAmE9O5AqXAAAgAElEQVTvnzo9eGkDwyWNB/A1vYI7hU+aAAAAAACgIPEdAA6nAQ9k0K8Nzxazvd5j7Pzpupg0ANpZFlHRWfgmAwAAwEZ/oi8AAIA4Ym2847xaQgAAAAAA8D7xHQCmoesG/EgCgxe0XjbaIQBMxcc+AAAAkIH4DgAR+j70hapapzEYyVIBAAAAAIDRxHcAmIkGPPCYWAYPCO4Av/JdC4BR1BQARlFT4JvF2wJS+oi+AAAAMrnkM+xrcEtqBwCgGgfDAQCUsK7CNMB/dN8BIEjUw2ChBNhCnxUuoleCzQt4i09yAEZRUwAYRU0BgDt03wEA4A6deKZlKw0AAAAAAA6k+w4AcTTggRKi+69wKNMNAIfQYW4GZhkAAIDtdN8BYEqfi+fT8BydeHrzkQgAAAAAAHF03wEglAfGUMulNYt3bicm9F+rwYA3CXoCMIqaAsAoagp8o1UkJKT7DgCz0oAH3qEZT3U+AAHgr3W1cw0AAIRxSwJciO8AAPCqawREjqcQwR0AAAAAAEjG4VkARAt8kCxwAKM4gCk/B58BAAAAAEBW4jsAzE2CBwYSEEnIpMDkvP0BprTu8fGvpgAwipoCAD9xeBYACZzXyBjN5+KOEQZzqFY4H2sAkN6y7JOxAAAA2MAtCWQjvgMAwG7keA4mtfM22xYAwBCL778AAGy2rr5AAg7PAiCJ2EfOggWwN0c47ec6toYXSMI3KwBGUVMAGEVNASA93XcA4HQ6OUILjnL7RrNv8jKfVwAAAAAA0Ij4DgBpnNfgZ/kSPHAwUZ6nTPkBpW8wAMdQcQAAAIBY4jsAACQgyvOjKSM7AAAAAMABluW02oCENMR3AMhEAx4GEgGp6/vbcJLZ9PkD7CH8+xUAbagpAIyipsA3eoIC4jsA8C8Jnh7c/zfz5V3ZZn592gBd+UIF2/ipK3votqjUFABGUVMA/nVJjHW7g6hMfAeAZDL88MKNXHXhS4i9/fgOTT7vPlUAAKbhZ9MAAEAVX+5fpHkCie8AkI8ED+8IXzxE2fKe3W95+MRoRCMEAAAAACZhK2xa9351IM0TSHwHAO6Q4KlIdofHvKkLcuw3AAAAADOwD0ZCt2tSlGdvf6IvAAB+kuQRuyxIIZ+L+QIAAAAAANjDsvzzx3DiOwDwkERICaYJAID3+BEhAAAwJzkMXiPNM5z4DgBZJWnAcxINSc8EAaO526SbkK9VCjRso+hQjJoCwChqCvzE7wo4xh63oqI87xPfASAxCR4ec2AWzMG2BQBQiK1qAABgchrzvOYj+gIAoIhLTCRPogjBHQAAgH/JPQMA8IJl8U2SHd0meKy0B3TfASC3bHEZkZEMNN0B9udHIQAAAAAcT7iBvdn5TEt8B4D0JHi4ZfxhSrYtAAAAAABozOFZAPC8zyVdqGgGnYI7wu3MqVoGR9NgeJevTACMoqYAMIqaAnfYCuMA1thjuu8AUEHCGyrnNx3JaANu7QDYX1StEe0GAABu2QdjP+5AMxPfAaCIhAmeU69+MGkZZACCLMt/fx3k/CoF0E6TqvGYmgLAKGoKJDPFt1lIzOFZAPCeS7jEreYeBHeAaJoGc3Fv98ryAAAAAACG0H0HgDoyR2QETcZyWhbwE1EJjrTlB2fX9jxf/gAAAADeYR+MPcRuW1nVvxLfAaCU5AkeiZP3GUYgGVEMXiDW83/KOsCBmu+GqykAjKKmwH2Tbl9ADg7PAqCa85r6/spZWi/LPK1AGusasIngCK0J7bTMHMIFAAAAQAitd/IT3wGAHQjxPEVwB4C53e6e2MuAOYmKAgAAX4T8jO3k9gTiODwLgIKqxGKcA/WrNkNUZU1CCyHbB/oGTyVwuvdd3qoVbGCTmndM9IVBTQFgFDUF4BAT3a1UJr4DQE2F7uvaJFTG6jQshVYjdCHBQ0tCAwAAAMCtqL0C+2CMZddrI/EdAMqqlZnolFZ5U7OhqLUOAfiN/anxOtV9AGKpKQCMoqYAM7HfVcVH9AUAwBvOa7EbrcvVzhn4qDVTG805lZBDyOHfTv5ur+2xWQAAAADPsA8GxxPfAaC4cgme002QZZLwR7kJ2mKSuQO+sXPRmN8hAbGUGN5k/QAAtBTyGzY6CV8/blW2E98BoL6KCZ6L3s14ik7KFl2nDKqJ2rzweJXhrCiABsL3xAEAYCybYHCwP9EXAAAjlI5TfC7//fXQ7OV8V3qxQTtROwiez/Uzy7FZUVWs8RcDgGmpKQCMoqbAbwIzNDbBqgufQQmwp+i+AwBplD5Ua5Lb3YpTA8BvwjcygFS0pgcAAACOJ74DQBd1j9D67vaFZM6LtBnwjTLPBUzMEVq8KfYhvVUEAAAA/CrwZwY2weoK/2mKlfMs8R0AGumU4LlKFeXpN7wbhY888FBggufkLrQ42R0gFdviAAAADBGe3eEF4jsA9NIywXP1/aXtHStpPJjbye5ABX6BxAvsYhzqc1FSgcbUlEOpKQCMoqZQiu0vaE98B4B2eid4vvj1lf56/znPWL3GDTzUYQuDp4Q/Z7VmABhIWQEAYFe2v2oJ3/g6uUl5ifgOAB1dIheCKSeD8AbBHeAZtjAKmX3/YqqgMwC7UlMAGEVNgW0Cf712sv1VR4a9L17zJ/oCAGA34he8zOKBmmJ3EJbFvXEBGebIVhfkF/g+zfAxBQAAAO+w/fUa8R0AWhPC4AWWDVQWfmfosWtmGWYnfIlG8mtaAEZRUwAYRU2hmvBfr5GcOSpNfAeA7kQx2O68WjDQQHg8wk1yQkl6I4UvTgD2kKHEAADAMXz7zSzJ7NgBe5n4DgATEMhgC+sEGgm/RUwSFuEiyVyEL0sAAACggfAdhiQ7LXxhXhoQ3wFgDpIZPKDpDnQUvpFxEuJJIM8UZFiQAHSlygAAcLAk+y0k5PbkHeI7AExDRIMfhayKdfX3+l+48BGo+xcxVxnkSZBMJdWwJ1mK/xf4jegzzaxAYnk+vuB3agoAo6gp8Ix0Ww1ES3IjaWW+SXwHgMlI8HAl0QUTyHPHmCpN0lu2oc6zCIGnePMCAAA8kGr7ZXLmog3xHQDmI7HByTKAiaR6/potWdJMwuFNtfwA2EO20gMAwCQy7Dn4MpxBnlnIsCar+4i+AACIcIluaIs6J8EdmM/l1jHPrezlStzQDpRncm+ZYgAAAGA/6xq/JbIsNkAihS8AxtJ9B4CJiXFMyKTDxLJtJVxaxbjHflPaMcy23hKRn4YNcn6yQTpqCgCjqCnwhrSbM+2lGnZbYUOI7wAwN2GOeZxX0w3kvI2U43lB8kHLudL+oSYCdBFfdNQUAEZRU+B58d8G/0q7S9OVAW/J4VkATM9BWjNw8w/8le0grVvXq8qz85JNzom7Ze4AppK/MAEAwGEcpHWYbHci5n0U3XcA4HQ6iXf0pekO8JPkt5TX1jLZbsWjVBmN5OsqEbFpivCmhgLUFABGUVMoK9WdS/7dmwayDXKqFVid7jsA8Jc2PM1I7QAPrWu6e90f3V7kVDfDJWbnaqqpAY7hd6sAAMBGqba53MvsKs9EswfxHQD4lxBPA4I7wDaZD9L6UfsoT6G5uNVyLgAAAIBCsiV4TjZMRsszv7fM8lgOzwKAn8h/FOWoLOB561ryPvP2gK0SB0v9qPpLKLp4/qNiArynYuXai5oCwChqCjTiC/NAOQez8LZYVuI7AHCHIEgt5gt4T4O7zfyBnvxXuF3t4E4GOh0CjKAYnU5qCgDjqCkUl/DLYenNnzxyDmPC9daAw7MA4CFnaeUntQMMUu4srV89fi173GN3Gr0HbE8Ax1gWHzgAAMATUh2hdeEgrXdkm032Jr4DABsI8eQkuAPsoF+I554ZXuNwNptgNgn3vgEAAB7IeRcjxPOChPN4ZSp34vAsANjM8UypmAtgT45G4gtLYjzBaKCyzDvpM1JTABhFTYE9+Ra9UfJD522R7Ud8BwCeJMQT6zL+pgA4hMQGp97LQD0FYBQ1BYBR1BR4W+Z9jOTBlHD5xyfz6mrA4VkA8BLHaR3PrTsQZJ7jtPjCfgQQbll8FgEAAE/LeYTWlbO0fpR5yi5M2d503wGAN2gDcwzjDCTQuQUL35jug0hCA7xBqfqHmgLAKGoKXeT/upi/08xhDAUXuu8AwNt04tmJyA6Qz3Xjwx11S/k3toDjJf/RKiEsCQAASihxO3O9wjm3ZfJP0NWcE3Qw8R0AGOSaNZHjeZ/gDpCeE7WasQEBpOX8LAAA4GUlEjwXs52oVWVeLuaZl1gOzwKA0S4nPQmgvMDQAdVcjlhy+1qXGYwvu3LPAG2oKQCMoqbAxC7HSNWKtjyl4guceuvsWLrvAMBuHKq1UfgNOcDbHKpVi00HAF6m1gMAUEuhBjy3+jXjqTgLp15TkJ/4DgDszKFa90jtAB3J8WRmuwH25evubpyfxXeWBM2pKQCMoqacTqeyCZ7TzQ5b3S/ARUf+ou6wFyW+AwBHkeO5kNoB5nB7c1v6Lr0BGw3ZfS6+HpBc3Z1umI6aAsAoagrtVL+vub34/Fs9pYf6Kv849yO+AwCHu73xmyTK414XmJuWPMezvwBHm+RrLQAHUFMAGEVN+Vf1BM9VzihPj7G9yjOwUxHfAYBQjaM8IjsA33y57212Vx/OtsKLzmu3LyEAu1G7f6GmADCKmgL7aJPgufryco7cHWo2krdsskUR3wGANL7kXSreoIrsADzDAVtvspXQh7701VX84lrNsvjQg23UlOrUFCAPNaU6NeWOy51F152oe6/rzfuprsP1I/eegcR3ACCrEmked7AAg3y/MZ5qX2Aj2wcAAAAA7+vXhuexqV7sO2y+xRLfAYAifgzKHJnpkdQBONaPd8tT7TXYLwAglTxVWIkEgP+xd2/JjeNaFkCljBxlTaYiJ1PTVH/4ptsvURQF4jywVvRX102bhggcENgCgdetluDhIQ8a4a43HwIAH1w3J2uqBhAv/JnSSEhK4T3jRTpWvAzn/MkKFxV180y/YTKMtEbLWBnugTfZ7wQ1hcOWqSlLix1Msw+gfKOmcJiaslueWS6xFMkMnL4DAABQ3lMP2DPXZTz5AwAAAKTlDB4s3+XxK/oCAAAAmOp2m/d/8IQM36zlWT41lmFLoxijU0U+NSAno1NFPrUnWcBZmU8/FfEdAAAAAChAggQAADiDb2GtyYeejfgOAAAAAM9b7CutljVJwq1IT4vVFABOpKa8wFRzKT7uhMR3AAAAYHn/5FizscwKjziAJ4Rmf46aAsAoagpMJ9KxAoctpSW+AwAAAMCT7GEAMIqaAsAoasoIsh29+XAzE98BAAAA0rDYCsAoagoAo6gprEfIox/BrPzEdwAAAAB4ht2LUF7kNFmqBrfaTkNqCgCjqCmjSXt04qMs4Xf0BQAAl+ufmOeK27/mawDAX//crHXCttstV5ID8lJTABhFTYFonoOqE9wpRHwHAIJFZXfefrUED5CatQEWZE3lcrn8d738ox0Ss30CFKKmJKemAIWoKcmpKWd6W6uwUFeRdaZavDwLAAAAgH2siedg3XwaTQ0nUlMAGEVNmcK7tGrxeVUkvgMAkQKP3klyAQAAP7D2CsAoagoAo6gpIBRSgc+oLvEdAAiTJDqT5DIAgHiOgmeb7YpMnAqzoGJL8GoK29QUYD81hW1qSoRiU9OV+GhKE98BACR4AIB8rMCSkpXQpchI9aGmADCKmgJ/OeIllbePwydS3e/oCwCARUnMAABQiY0KAEZRUwAYRU2J9p4XkX2PIrLTidN3ACBAwuxOwksCAFZnHRY2WR8/lebtRk0BYBQ1BX7i6Jf5tHk/4jsAMFvaoEzaCwMA5vnHwg8/sUUBHKCm8CM1BThATeFHako+AiVzaOeuxHcAAACArKzGZuBT+CzVIqkTYtaR6sarymiWgU8B6MFoloFPIbG3cIkZ7Bk0bG/iOwAwVfITbpJfHgAAwARyUQAA8DpZk1EkohYhvgMA85QIx5S4SABgIb5SGUv7pydoAk8wpsXS/kAnxrRY2r8U0ZPDNN1qfkdfAACQzvXP9fav+SCQgGfTw8L3cn12pf1zsxIKrCy8iraipgAwipoC9X1cLjLr3mZpbU1O3wGASZxqAwBwkGX6KFr+DgupTOaWG8nIFkXLA/0Y2aJo+RacK/Pde5tolmWJ7wDADOWyO+UuGACAwayJ1+F7q0B2agoAo6gp7SyeWVn8z+cL8R0A4GcSPABAIpZogSlkoZagpgAwipoCQ33MsjSOs6zwN3KM+A4AnO6kHMztXzM7AOAc/5hmLM8+RDVCJ+SlpqCmAKOoKagpi2mT5mnzh3A28R0AOFfpM2xKXzwA0I2F2mk09Q6WXFvKmYJys53CQDeNpgbaM9BNo6mX9yUEkzYKU+IiyUl8BwAKm3AAjwQPAACUkDN6AgAAcJ4fMz0TojPzfyMrEN8BgBOdl32Z+eYsCR4AWFHOc+l923ICjcyq5J9OpKYsSyMDw6kpy9LIHPUw33Ps/+AM4jsAcJY5qZeZOR4AAJqzJl6cAAqQiJoCwChqCrAG8R0AqGd+ZMcBPABAFtZtz6Ntn+QLl52kTT65zc5l3DuPtgVWY9w7j7YFliG+AwCnmJl3mZPmkeABALKwegv3pY2hQFJqCgCjqCkAvEZ8ByC761zRf24TpyZdfgzreIUWADDePyYYK7HZ0IgHu2dpsRnUlKWoKcCp1JSlqCnASsR3AIC9HMADAGRhDXcs7QmszBg4lvYEVmYMHEt7AosR3wGAweYfvfPwPw0kwQMAZGEllwRuWb/77TiZ/TK3VdobrCE1BYBR1BQAjhLfAYCRVki3rPA3AgD/41z6FdhgAOZQU1agpgBzqCkrUFOA9YjvAEAfcw7gAQDIwnru67RhX5kPlclDK/H/jIev04YAb4yHr9OGwJJ+R18AAPRx9rE0e9I5t39vE07Huf65igoBACn8d/XV2+OsiQN8pKa8Qk0B+EhNeYWawqao9wPYE2ECp+8AwBgZsjszeYUWAABcLpdbrnn6J46W2Za8fTLfWgAAMN/1zzVwYyL2t7MI8R0A6CZb0AcAqC3/d0Z9NfMY7baG5AkVlqOmdKXdgPnUlK60G3ckic4I8XAq8R0AGCDb0TtzEjwmqQBAFlZ4n6XFWJ5gE3cZIZ+lxQDuMUI+S4vxk4SJmYSXRA+/oy8AgAduc8/LvlrCfN7Ks7Trn6vDfgAAirEmvpjr1WuYgNOoKQCMoqbwTfLNl7fLs0XCQE7fAYDsjk3+pk0Zk0+gAYAB8p9Lf7HUu5uGOkH+cIyvaXyRv0Hy31THqSmdaCgglprSiYbis0LH2xS6VPIT3wGAl2Selgl9AwBrseC7jhJbNWSVP7tDCmrKOtQU4GxqyjrUlEHO23Y5b9NEiIchxHcA4LgJs7ESERyzUgAgCyvj27TPwmRW4GnGzG3aB2A/Y+Y27cNfp4Zg3nZbbv/ehHhIS3wHAPJ6fRLpFVoAwBiFvkRo5fceLXOmEq86kuC5FGmEErfTS9SUBrQMkISa0oCW4XK5nB/c+bJXcnaI56SfTHviOwBwUJUZWInzewAAOFenNfFCmzQkUyK7AwWoKQCMoqZw/ok1G1skjuEhG/EdADjCa7O+MxkFALLotAQ8hAbhL/kVeJoh9AsNAnCYIfQLDbK8CRmXh/ss3qVFKtdb/8NYAXjCdXM1V9V4Fz6nfNa0OWK51BH1hG86GQkpQU/hJLVWV3338U2tT+2hxB9r+NC735qDtA8onVqjU+LBZ6pan9pDPtYQscPxKiPsemqNTgafN7U+tYd8rM9LuMkSdQgQvHP6DgA8rWJc2tQQAFhOs+XgYzTCRIU2BAsFWUYp9CcXupHWYji9aASAQQynF42wugyH7tz7V07iIZb4DgA8x2uztpmAAgCJLL4o3O/P95VWIFC/QfUp/f58NQUI1G9QfUq/P19N2W1OhOXFHZZTN2iEeNjm5VkAfOLlWQ/lTIXv5BVadBD+1WkjISXoKZyn4krrmmupFT+ph9J/lOGj71PWGap9LnlVHKnSD0SnqPhJPbTmR5mBl2dxkooj1ZoDUcVP6qE1P8onzdmbGLsxUXoziKKcvgMAT6gei542HazeUABAKy0XiLe1/JMrrInX2hOsFWo5rNafWesWWlTLAXZbyz+5Qk0B+ms5wG5r+SerKTvMOXFn+PbHqe/SuthG4SfiOwCwV/5DHZP8CgCAdFouE9+z1B/La2pFWw5o/wcSY6lhdqk/FmC+pYbZpf5Y/irxtqzAH+5dWnzh5VkAfOLlWRvanJToFVrUFr4Js/ZISBl6Cqequ+q6wtci63462+p8duED8AGNx+xyH0fjz+KuuqNWnXHpuLqfzrYVPrvMvDyL89QdtVYYl+p+OttW+OyOqvi2rG1tdojIzOk7ALBLpwR0v5wQAMAuXZeM37X/AyuouC1YLuOyU9e/iyzaD7nt/0CAPNoPue3/QD6bduLO5LzLhHdp2VJBfAcAHqt+umP4rwMAyKLxwnHjP81XWnlexexOxezX6hoPvI3/NDUFyKnxwNv4T1NTvpkWQAnc4BDi4VTiOwAQL2SuOeeXmmgCQEPV1yhbLh+3/KOYqGLYZUOzP6c5NSWhln8UsAI1JaGWfxR3TAvuZPhy8tnXIMSzLPEdAHjAJOlFGhAASKfZInKzP+eLgtswRc9QaRN5afOHUEazQbjZn/NFwZoCrKXZINzsz/lCTfmg69uytk24HiGeBYnvAMCWfq/NCvnVppgAQDptlpLb/CEk0CD4UvdPKJr64n/aDMVt/hCAutoMxW3+EDatGdz5SIiHscR3ACBS2kknAMCWHl80rL6g/N+1/J/wUI87rZS68ZdL8YtfWo+eXn1AVlOAHnr09OoDspqyhmmZkhJ7KBMuUoJnEeI7AHDXCvMhB/AAAEuru7Jc9LKXUfoklaIhmKKXTStqCgCjqCnkNi24UyK788YxPAxxvZVeTgBgtOvmkudSVaP3a7O+mDbny/MnU1j4zsxKIyGF6SnM0Wlltta3Jzu1/IZaH8o34SPx6wqN5dVbu1BTn6jTyFZr+OrU8htqfSi9xQ7ZBtxFdBrZag1fnVp+Q60PZTQn7uyx1O4SY/2OvgAAWJTZFQBAIv9dayzCLrIgTg7Xa41dzurZHRpSUwAYRU0hDcGd/W7/3s5urref36O5+MjpOwB84vSdNwuGox3AQxnh+zPLjITUpqcwR8sl2syL4y0b/J7MH8Ru4YPxEMlHdI3cR8shLvNQ1rLB78n8QSzI6TtM0HKIyzyUtWzwezJ/EKexd3CYzBPPEt8B4BPxncuS2Z03ZuHUEL5Fs8ZISHl6CtN0XajNtibbtZ03ZPsIDgkfjEfJOahr3oa6jnXZBrSu7bwh20ewOPEd5ug61mUb0Lq284ZsH8HJbBkMIcTDfr+iLwAAWM60ST8AwEF5lqH/uya6mGkWWxPP73pNl5XJdj2wJc8wrqYAVJdnGFdTFjAtdNI+dzLnb7z+udp5acDpOwB84vSdZY/eeSNNTwHhezULjIR0oKcwU+9F28D12d4Nu63Rsnj4eDxWktFdq3bWe+hTU0I0qilNOH2HaXoPfWpKiGVqitNiTqJheUh8B4BPFo/vLJ7deSPBQ3bh2zXdR0Ka0FOYaZHV25kLtYs06T291sTDx+MzBI7x/dpTwfxqkQFQTZmmV01pQnyHaRYZANWUadaoKXYHJhDiYcPv6AsAABZ1/XM1gwQAynhbqj57xXbxBXGKeNt4nbwB2i+4w9LUFABGUVMYRHBnmrcWOLvB336+1i7H6TsAfLLy6TuO3nlnpk5q4Vs3rUdC+tBTmGzBxdyx6+MLNuA9Hb/SGj4kn2rCeK8Bl7PgkKimnKRjTenA6TvMtOCQqKacpHtNcR5MCBsxfCe+A8Any8Z3ZHe+MHEkr/ANnL4jIa3oKUy2+KrusZXcxRvtno7L4uFD8gQnjfrtm061/Nniw6OaMlDHmtKB+A4zLT48qikD9a0p0zYCCGcvpgTxHQA+Ed85T6250cxZe62WIV74Nk7fkZBW9BTms8j7xcflXY2zU9M18fAheaYhw/86LaZa3mXY/EJNOaBpTelAfIfJDJtfqCkHNK0pgjtrsh2TnPgOAJ+sGd+R3fmRBA9Jhe/nNB0J6UZPYT4rv7yu6bL4JcGoHOLZUrBaKymVW9QUXte3ppQnvsNkagqva1dTBHewI5PW7+gLAIBgsjv33P69mccDADBJuzVxVovjAImoKQCM0qumWPDnzdudUHTrqrdf0RcAAOCxAQDq67WmCUAkNQWAUdQU+MsiPF+4JRIS3wFgaY7e2Tbz4s0UAQDW1X1bxZs6+MItASfqXlMAmKdLTbn+uVp+50fujWzEdwBYl+zOHg3+BABgki4rmwDEU1MAGEVNYWHCGezhPsnjd/QFAAD8z/XPVVoIAGA5a2yo3G6Xq+VQgLOtUVMAmKF4TZmZxrCqf7Y5n+bbb/FpxnL6DgCLcvTOfl6hBQDsVXx9E2ACb87aS00BYBQ1hcXI7jRz+/c2rZ2dxBNLfAeAFcnuZGZqCACwEFspAIyipgAwStmaMjN7MTNTwmX6F63t1ITw8iwA4LHbvzdzNQAAeIX3Z3Fx9A4AAOdw4s4K3lp+2mftdVrzXW8eGQH44Lq5nNyjajh65zAPAKQQvuvVYiSkPz2FWP9F34FUUfYrrYeFD8+EUyGfpqaw03o1parYWmgUXpyawk7Vasrkb95auk/Cfk1LTt8BYC2yO1Vc/1y1JABAZ9XWxIdwAA/AKZasKQCcolRNEdxZ2cyTeBzDM82v6AsAAMowOQMAdim13AkwjUMfjlBTABhFTaGXyYev2B3Iaebncv1znZwYW5CXZwHwSe+XZzl6ZwhHMhIs/BvrxUdCVqGnEM659GxbeO8kfIQmkPJ4kJrCtoVrSklenkUsNYVtRWqKQ3f4zl3Rg/gOAJ80ju/I7oxiFkiw8C2vyiMhC9FTyPZtQrUAACAASURBVMDKOBuKLIufJHyQJoTa+BI1hQ1r15R6xHcIp6awIX1NsTjPNndIdV6eBcASHOg3kAkZAAAvSb8mDkAZagoAo+SuKfPfW2QjoKLJn5rXaQ0nvgMAYyw1l538OtVpvwsAGCn30icE8s1/eJqaAsAoagoFzQ/uLLXf0cz8j0+IZyDxHQD6M2+ozicIANCH/RKWJLMFp1BTABgla02ZHIwQ3GkjJMQz89d1db15dgTgg+vm+6crVo05M4Y1Z7TO6iTG5jA1Q8GRkBXpKeTxX/TdSCpZ18RDhA/VzKQwjqGm8JGaUlRs/TMc805N4aOUNWV+GMIKfEtupFp+R18AAJS37Fzk9u9NnhoAAGCbzWIAAPaTt2Cgtw935k319rvcVMc4fQeAT5qdvuPonbM5gIcA4V9UrzYSsig9hVR8sZU3Kb/SGih8qGYaVXEkNYU3akpdTt8hDzWFN5lqSsjXZa26r0MyLL9f0RcAAGeR3ZnAy1MBAOAYG4iL8EEDALBHSLRi8Q2O1cz/xK9/rrZ1nuL0HQA+6XT6zoQ5gantm5nTL21O/BfVS42ErEtPIRtfbCXTV1rzCB+tmUBJHE9NQU0pzek7pKKmkKOmOBOFyZzzlJbTdwDoSZ63K58sAEA9OdbEE7KHCPA0NQWAURLUlJCzSaQoCDl4yUk8ezh9B4BPepy+47VZ802edWn8pYV/S73ISMjq9BQS8sXWlSVYFk8rfMDmVOrhWdSUlakp1Tl9h2zUlJWpKUAyTt8BgCPER2LJaAMAlGFNfJNtRIAnqCkAjKKmAPmI7wDQjWBHCHkmAOABa6PAYmSzTqSmADCKmgJAGl6eBcAn1V+eJbuzFJmhRYW/YSL9SAiXi55CYo6mX43tkH3Ch23OoBieTk1ZjZrSg5dnkZOasho1BUjJ6TsAQFXSWgAAqVkTZ2E2iGEwNQWAUdQUICvxHQD6EOYAAMjOOin8RNQDjlBTABhFTQEgAfEdAJqQ3VmTzx0AIClbICxMHgsGU1MAGEVNARK73jxNAvDBdfP905mrhhjHym7/5r0zGW9zmJoh8UgI/09PIbn/om9RzmZN/JDwwZtRlMGp1JT21JRmYqudAZptakp7agobNkYAdw6ziO8A8EnR+I7sDhI8Cwnf18o6EsInegr5WRnvzeLmIeGDN0OogQHUlN7UlGbEd0hOTelNTSlntS7pFl3e7+gLAIBXye4AAEAiFhyPut0keAA+U1MAGEVNSWK1RM5T9jeO+7kpp+8A8EnF03fEd3jjAJ5VhG9qpRwJ4Ss9hRKs2bVkDfE14eM3L1IAw6gpLakpLTl9h/zUlJbUlGn0oCTc8zU5fQeA2mR3eHf9c5XgAQCgNAfwAAAA2cno5HfvMxLryc3pOwB8Uuv0HdkdvhDfWUL4jlaykRB+pqdQhSW/ZqwDjhA+hHOY6hdMTWlGTenK6TuUoKY0o6a8QndYgT6ShvgOAJ+I71CdBE9/4TtayUZCgPIsBbZhvW+c8PkOB5gkpqCmtKGmNCa+QxVqShtqyn5ue97oNXG8PAuAqmR3+JFXaAEAAAAAwAMr5HXmJFGateSXP0eaZyKn7wDwSZXTd2R32CbB01n4t9HTjIQAfTRb51qT5bzRwqc8PMUMMRE1pQE1pTen71CImtKAmvJFxbu694dY7hPp/XEkIL4DwCfiO/QgvtNZ+F5WmpEQoJVyK1Z8ZP3uHOGzHvYzQ8xFTSlNTWlPfIda1JTS1JQ3yW9jH9O2tB+fD+4cXp4FQD2yOzzkFVoAAMAc9oIBAMglYeZD2uOYe+0W/hG/X4BPdiin7wDwSf7Td2R32E+Cp6fw76EnGAkBegpfe+IYS3VnCp/4sIfpYUZqSlFqygqcvkM5akpRa9aUPLfrmu0fKPyj94kPIr4DwCfiO3QivtNT+C5WgpEQoK3w9SaeZYXuZOETHx4yN8xLTSlHTVmE+A4VqSnlrFZTwm/R1Ro8v8Bbws3wGvEdAD5JHt+Zlt0R+zjJ/PSVj7Kh8F2s6JEQoLPwNUeeYlVuivC5DxtMDFNTU2pRU9YhvkNFakot69SU2DtznXYuLeomcXscJb4DwCeZ4zuyOw2EHJ7kA+0mfAvL/JkKJo+3RlpGsjJeiPW4WcKnP9xjYpidmlKImrIO8R2KUlMKWaGmyGTwrJB7xg3zPPEdAD4R37EBeTYH8PCq8P0r82dyC3zLpPGWYayMl2AZbqLw6Q8/MiusQU0pQU1ZivgOdakpJfSuKVI7vG7yXeTmeZL4DgCfpI3vOHqnEwkeXhK+f2X+TEqBqZ3vjLq8yrJ4fhbgpgufAfGdWWENakp+aspqxHeoS03Jr3FNcXQKYwnxZCW+A8AnOeM7sjvNeIUWLwnfvDJ/JplUwZ2PDLy8xMp4ZtbdIoTPgPjClLASNSUzNWVB4juUpqZk1rWmzL/rurYk3828u9xX+4jvAPCJ+M6cX4QED8eFb16ZP5NG2uDOF4ZfDrIynpMVtzjhkyDemQ/Wo6bkpKasSXyH6tSUnLrWFEekcLYX7zH3zGjiOwB8kjC+I7vTlVdocVD4zpX5M9HOGz9v/95O/eEn/WQ6szKekLW5UOHzIN6YD5akpiSkpqxJfIcG1JSE+tUUwR1m+u/qHkhCfAeAT7LFd2R3GnMADweFb1uZPxPn1JHz4wgpxEMWlsWzsZwXLXwexMVksC41JRs1ZVniOzSgpmTTr6Z4pRGsSnwHgE/Ed5hJgocjwretzJ+JMC24E/5L4Ssr43lY1c0hfCq0ODPB2tSUPNSUlYnv0IOakkezmuLQHVib+A4An6SK78jurMArtHha+J6V+TMTnT1I7hkShXiIZ2U8A6u6mYTPhlZmJliempKBmrI48R3aUFMyaFZTZHdgeeI7AHySJ74zM9Vh7zCQA3h4WviGlfkzU0wYHp8dDOV4iGRlPJZV3XzCJ0RrMg1sQk2JpaYgvkMnakqsZjVFdgcQ34FYbzkJ3XAPbTXNgvEd+4XhJHh4TvhulWLEyRIGdz4S4iGMlfFAFnbzCZ8QLcgcsBU1JZCagvgOzagpgTrVFNkd4HK5iO/ATNupiI90TG0VKEl8R3ZnNRI8PCF8t0rp4RxzRsJRQ1+Gt3qxHMviUSzsZhU+J1qNOWArakoUNYVLdAEzmjOcmhKlWU2ZeSM1azroRXwHTrc/ifLdaj1UW2WQIb7jtVkLEt/hCeFbVSoOo9UK7nwkxMNsVsbns7CbW/i0aB0mgA2pKfOpKbwR36EfNWW+ZjVFdgf4S3wHTvRKGOWjFfqptspjqfiOTcFUJHjYK3yfSq1hnLrBnS+8UYt5rIzPZGG3gvCZ0QrM/tpSU2ZSU3gnvkNLaspM/WqK+A7wl/gOnOJhGOXHrpchNjGftsomvG1ld1YmwcMu4ZtUqgwv61rsHMbDJFbG57CqW0T4zKg9U7/m1JQ51BQ+Et+hKzVljn41RXYH+OB39AVAQxvph+3ow9t/vffPr9eGeTttxRch6Q0AmKbNcTsbv/e8v/HtJwvxcPnnZmX8dFZ167jdJHjgBWrKBGoKsAg1ZQI1BejODjcMdjiPMvyH5Ketcoo9fafraQTs5wAeHgvfoVJfOKR3cOe7CX9vnj+WGFbGz2NNvKDw+VFX5n2rUFPOo6bwndN36E1NOU/XmuL0ncz06JO4Fe8T34GRBkZJ2qdStFVagfGdmbkNG35pRZ3A5JaoJHx7SnHhGYsnU4V4OJd1tDNYRCsrfIrUj0nfWtSUM6gp/Eh8h/bUlDM0riniO5npzidxK94nvgPDDA+RNE6laKvMouI7sju8k+DhgfC9KZWFfVY7bmebHA+nsI42nBW04sJnSZ2Y8S1HTRlOTeEe8R3aU1OG611TJt8wvRtzON35JO7D+35FXwA0cUZ8ZOMfbgcsktNWxLK3l5/PCKju+uc6J61SaMCccLVzmp1cLPeMpT3rsyM5ipZckTFwLO0JrMwYOFb79mz/BwLPcPoODHDq0S/NzpXRVvmFnL7j6B2+cAAPW8JzmWoKdyz+nqz9nMTDYL4MN4Ql40bC50oNmO6tS00ZQk1hm9N3WISaMsQiNcX7s9LSkU/iPrxPfAdedXbWIepNRmfQViXMb0bZHX4kwcNd4VtSCgrfeE/WARqNkSyovcjCWTvh06XSzPVWp6a8SE3hIfEd1qGmvGipmiLBk5NefBI34X3iO/CqCSe+tDlURluVIL5DHiEJHjdJAeH7UQoKH8igvM5hPIxhTe0wq2ZNhc+YijLR43JRU16gprCH+A5LUVMOW62mTL5VVmte9pAhy0F8B14yJ+jQ41AZbVXF5DaU3WGDA3j4WfhmlGqC92SdQBCKAayMH2DJrLXwSVM5Znn8PzXlADWFncR3WI2acsCaNUWCh1jiOzmI78BxM1MO1VMp2qqQqR+W7A6PSPDwg/CdKKVkbYI7pxLiYQCL4/tZL1tA+LypEFM8fqCm7KemsJ/4DmtSU/ZbuaZI8BBIfCcH8R04TiRlP21ViPgO2Ujw8FX4NpRSsirJkmlkpHiVlfE9LJYtI3zqVIL5HXepKXuoKTxFfIdlqSl7qCkSPEQR38lBfAcO2o44XM54x1DZVIq2qmVa68nusJP4Dl+F70GpI4sRJQkkMsVxVsa3WSlbTPjsKTmTOx5QU7apKTxLfIeVqSnb1JR3QjzMJ76Tg/gOHDQ/IFI3kqKtapnTepMDGbblqpPg4ZPwDSh1ZBlRgw9RDPvdWBn/kTWyVYVPoNIys2MXNeVHagrHiO+wODXlR2rKd/NvFZ/C4sR3chDfgYOyRVJO+qVDaKta+sV3bMX1IMHD/wvffVJEFiC4szIjfytWxr+wQLa28DlUQqZ1PEFN+UJN4TDxHVBTvlBTNgjxMI34Tg6/oi8ASnqYDuGdtuI72R0A0rr+ucruLM490Ir1oI+0xvLsV36hQXiOUfQjrQHwCqPoR1pj2z+32U3031XCDAI5fQeOiHo3U8VDZbRVOWd/ZF6bxWEO4OF/woOhKkhH4hrcowo0YfHRmjh/hc+kkjCh4zg1RU3hRU7fgXdqiprylJAbxme0Dqfv5CC+A08LzIWUi6Roq4o6xXfst/UjwcPlEr3Sd7HY143gDnsoBB0suzJuUYyfhM+nApnKMYCaAq8Q34GP1BSeFXXP+MjaE9/JQXwHniaSsp+2qujU+I7sDi8K3GV3RyUSvt2kgnQxbUgxgJzNBIO9FlwZtyLGfeFTqhDmcQyjpsBh4jvwhZrCAbG3jU+wJfGdHMR34GmZIymn/vYDtFVF58V3vDaLIRzAQ/xek/JRnKhHVz5Z9lpkcdxaGPuET6xmMoljPDUFDhDfgR+pKRwTfuf4THuYfCO5be4T34HnhIdCCh0qo62K6hHfsanWmwTP6sJ3mZSPslSiFYgLs0v4+ubZLITxjPC51QSmb5xITYFnie/APWoKr0hy//iU88twq7hP7hPfgeeEJ0LCL2C/8EsNv4CiTorv2EtjIK/QWl34FpPyUZDgzmpMPNglw4rVcJbAOCp8hnUeczdmUFNgP/Ed2Kam8Lpsd5EbIEq2O+GdW+I+8R14TngiJPxIm/20VVFnxHdsoTGcA3iWFr65pHbUoQAhucUDaVeyjrH+xWvCJ1lnMHFjHjUFdhLfgYfUFAbKfDu5N16X+fPd4KO/T3wHnpAhDpLhGvbIcJ0ZrqGi6vEdO2eLcADP0sJ3ltSOCgR3+Mj9wANFV7s+svLFOOFTrVFM2YihpsBD4juwk5rCcLVuKvfPpdpH9pDPdAfxHXhChjhIhmvYI8N1ZriGiobHd2yYcRIJnnWF7ympHbmpO9zj3uCBootiFr84R/iE6xUma8RTU2CD+A48RU3hPEXvru9q3W9tmv2hWp9LGuI78IQMcZAM17BHhuvMcA0VjY3v2CfjVF6htajw3SS1I6X5A4KhoCi3Cg8UWkezEMb5wqddB5ipkYiaAj8S34ED1BQmKHSbkY2OP474DjwhQxxkzzVMuIyHtFVdA+M7tsc4mwN4FhW+j6RwJCMqyjHuHLYkX7W0LsZc4ZOvnczRSEpNgS/Ed+AwNYXJkt9yzKebn098B/bKkwXJkIzZpq1KqxvfsSu2JgmeFYXvICkcaSg0vE7amC0JVyqtlBEqfBb2I1MzalBT4J34DrxITSFcwpuQ4fTrIOI7sFeeIEieK7knzxXmuZJCRsV3bKkyjQTPcsI3jhSOaPIWDOem4oHwpUmrZmQSPhd7Z1JGSWoKiO/AKGoK2YTfkzxFF05JfAf2yhMEyXMl9+S5wjxXUsiQ+I49MGYS31lO+JaRwhFHfeFUIQXFPVbM5LVIS2nkFjUpMxejCTWFZYnvwHBqCiUI90ymq9YkvgN75QmC5LmSe/JcYZ4rKaRifMe+FxI8axHfWZLgDtMI8bDXeSuPltgoaMIEzRSMztQUliK+A6dSU6hOyuchnbE18R3YK08QJM+V3JPnCvNcSSGvx3fssBJCgmch4jsrEaQgkNuP57yywmjpjXZGzddMu1iUmkJv4jswk5rCUkpEf/QsNonvwF55giB5ruSePFeY50oKGXL6DgAAANzz9tzp+RIAAADe/Yq+AOAUe2IrvNFWAAAAMNPtJrsDAAAAn4jvwC4SHvtpKwAAAAAAAADYT3wHAAAAAAAAAADC/I6+AIACHCn0nTYBAAAAAAAAhrgt/5Zlp+8AAAAAAAAAAEAY8R0AAAAAAAAAAAgjvgMAAAAAAAAAAGHEdwAAAAAAAAAAIIz4DgAAAAAAAAAAhBHfAQAAAAAAAACAMOI7AAAAAAAAAAAQRnwHAAAAAAAAAADC/I6+AIACbrdb9CWko02SuF6v9/6Tzwje6Smwh54Ce+gpsIeeAnvoKbCHngJ76Cmwh55Cfk7fAQAAAAAAAACAMOI7AAAAAAAAAAAQRnwHAAAAAAAAAADCiO/ALl55uJ+2AgAAAAAAAID9xHcAAAAAAAAAACCM+A705Aic/bQVAAAAAAAAAIHEdwAAAAAAAAAAIIz4DgAAAAAAAAAAhBHfAQAAAAAAAACAMOI7AAAAAAAAAAAQRnwH9rrdbtGXUIa2AgAAAAAAAICdxHdgpOv1Gn0Jl0uR9Iy2AgAAAAAAAICL+A6UkyT1UoK2AgAAAAAAACA/8R0AAAAAAAAAAAgjvgMAAAAAAAAAAGHEd+AJt9st+hLK0FYAAAAAAAAAsIf4DnQjN7OftgIAAAAAAAAgnPgOAAAAAAAAAACEEd+B5zw8r+V6vc65kvy0FQAAAAAAAAA8JL4DlTzMu3gb1DttBQAAAAAAAEAJ4jsAAAAAAAAAABBGfAee5tSW/bQVAAAAAAAAAGwT34E+ZGX201YAAAAAAAAAJCG+A+Ndr9dCPzaWtgIAAAAAAABgceI7cETCs1sSXtKbhBeW8JIAAAAAAAAAWJb4DgAAAAAAAAAAhBHfgYO2T3AZ/vKm7R+Y/DgZbQUAAAAAAAAA9/yOvgAgix9TL8IuAAAAAAAAAHAqp+/AcUmiLUMu496JNaOOxunUVgAAAAAAAAAwkPgOnGXgO6GGv17qqZ9/9m8f+ysmXC0AAAAAAAAADCS+Ay8JP83l9QvYk3cZkolp0FYAAAAAAAAAMJz4DrxqIxQyJPWy8UPK5VG0FQAAAAAAAAB8Ib4D50r+Lqf9l1frFVoAAAAAAAAAUIX4Dgxw3sku/Y6T0VYAAAAAAAAA8JH4DoxxxmuhuuZRtBUAAAAAAAAAvBPfgWHGplJ651G0FQAAAAAAAAC8Ed+BkbZTKfuDKdPyKIHplnJtBQAAAAAAAABnuNrehjMczpTMD6PsDMqcN1YUaisAAAAAAAAAGE58B85y4CVQG07tqnsuNfwC9jOsAQAAAAAAAFCI+A6c6/VgypxOun2dGa5hDwMaAAAAAAAAAOWI78AkB7Ipk7vnj1cYMkTkbysAAAAAAAAAGEV8BwLci6foj99pKwAAAAAAAAB6E98BAAAAAAAAAIAwv6IvAAAAAAAAAAAA1iW+AwAAAAAAAAAAYcR3AAAAAAAAAAAgjPgOAAAAAAAAAACEEd8BAAAAAAAAAIAw4jsAAAAAAAAAABBGfAcAAAAAAAAAAMKI7wAAAAAAAAAAQBjxHQAAAAAAAAAACCO+AwAAAAAAAAAAYcR3AAAAAAAAAAAgjPgOAAAAAAAAAACEEd8BAAAAAAAAAIAw4jsAAAAAAAAAABBGfAcAAAAAAAAAAMKI7wAAAAAAAAAAQBjxHQAAAAAAAAAACCO+AwAAAAAAAAAAYcR3AAAAAAAAAAAgjPgOAAAAAAAAAACEEd8BAAAAAAAAAIAw4jsAAAAAAAAAABBGfAcAAAAAAAAAAMKI7wAAAAAAAAAAQBjxHQAAAAAAAAAACCO+AwAAAAAAAAAAYcR3AAAAAAAAAAAgjPgOAAAAAAAAAACEEd8BAAAAAAAAAIAw4jsAAAAAAAAAABBGfAcAAAAAAAAAAMKI7wAAAAAAAAAAQBjxHQAAAAAAAAAACCO+AwAAAAAAAAAAYcR3AAAAAAAAAAAgjPgOAAAAAAAAAACEEd8BAAAAAPK6Xq/X6zX6KqAGnQUAAIr6HX0BAMAprtfr7XaLvgrI4n0JW78AYI7vu6dqEBwjiwA/0jUA+NFbgfD0AffoI2RmYw8Auvm4hKfQs6anFrJ1E5alp8B5fuxf+hEcIIQN7/ZP3vQXgBU8m+NUHViQtS/KcfoOALTi63es7Nj9b0+IBR3oLHoKAPd4BoHziOzQRsJioddQ1OHe5LmedVglpi7xHQBoIuE6CEwz5P53bioreL2z6CnwkFkZDKfusJqdpUTXAFjKqAcNz/U0ZpWY6sR3AKA8W0QsbmwX8HhGV3oKzGFixmrc8zCW4A4A3z2sDj/Whe1/5bmeZg50E32EhMR3AKAwa+Us7rwucL1ePZvRhp4CAJDfnjmbqRdFWb+Cw7a7z3ZdeP+vGz/Ecz09bNzkG3e4PkJCbjgAKMkX8mDC8p8eRAN6Csz0yto6VDRnO1bfoT3BHdrLGd/RrcjvWCLhwE879gMhiXv39lN3tQ5CEuI7AFDMU0seCj1dTVv704koTU+BmY4daA+lie/AiwR3WIHsDhwzJJGw82e+/pMhytieMjYzBwf8ir4AAGCv6/Wac8kDJpvZEXQ66tp/TtubCb8LGtMLWJDsDrxIdgeAe87I7rz+zyGb4T1l4x966meO39EXAAA8ZmoI7+Z3B284pqID3xb68v9XegAATiK4A8CGU5/Hb7fbvZ9vBYxaTkq5bf9GfYSzuckAILUXn9YUepo5tsw9ZNVDb6KQgesX3tgIe+w/7OrsK4FpHL0Dh8nusJS03wrQy8hsQijBG4Ko7tR72GvmCOT0HQBIKu0CB0Q5/FT28b8e7lm+XUFprxwarB7BNn0EgP0eVg0PHTCBjkZm8w8UgXLOzp9tr4ZZJeZU4jsAkM6XqeGPc0EbRaxm1OLF+/9eJ6Kr7/f2i2sK+xM81i8AFuHoHTjAoTssKDyv5sGfcqbdtF6hRV0ZxnbdhPOI7wBAUuZ/8NAr3eTAmSIezMhveHbn/YdkWByBhHQNeGOOBNtkd+CdWx2AkwwsMZbCiPIr+gIAgK9ut9vDiabFDpby48PS671gT1+D0sYuW4z6UdDGnhMToZ+ToqLQmOwOvJn8DO4NRJRz9vuAhlwJxMpzc+a5EpoR3wEAoJ6oUIIHMzKTJAAAyEZ2h2V5PIHk9ErY9rCPWCjmDOI7AACkNuEb3hYs6OeMu1pPgY/sSMEbNz9skN2BN+5zAF63PbNSa+hBfAcAgEo8icFDgd3EF49YhOwOyzLOw36yO6wsvF54cxYAE4TXO/oR3wEAIK9p+6P7f7KnMnJ6vzNPXY+22A0XhQA+UBfgHtkdeOdWhz08ZcC2kD6ihDGf+A4AAFwunscAOET5YB12lWAnnQXemSkB0JuJH2OJ7wAAUINVP7hnztE7e4RfAJzNa7PgnfsffrRzC0cPorHwxxNvzgIAihLfAQAgKd9dgKdYjIazye6wMhMzGEgFAeApZmIsThdgHeI7AAAUMGeB2zI6Rd1uN3cvADOpO/Aje0tw+VsjVAoApjmv6Oz5yWaADCS+AwAAAPCAo3dYmfVo2MNrs+Bd4H3uzVkAQF3iOwAAZGeVDYBYsjvwxfV6lemBA1QQAI4ZPvUylwNI6Hf0BQAAwA8sIkA5tqMAWtqYlUm2wTvPLwC0YVJHKmZZLMXpOwAApDZ5ycAKBQBfCCjATtcPoq8FpvLaLEjCm7Ooa89daooFaemejOL0HQAAMrK4BgltLEbos3Qlu8PiDi9Dv/9DvQYAYJTr9TpkcuXpHiAn8R0AAACAH/j+HLxOjof2HL0DAAAM4eVZAAAAvMR2FItwq8MrvFQLgFN5cxbV7bxXX59QOXoHnqJfMJP4DgAAPMEDG8uyGs5qvDYLzkjbCPHQjPsZgPlOqj4eeQDCie8AAABwkNU9upLdgVMJ8bAadQSAPfbXi8NTKXMwgMzEdwAAAHjgxwU+G1EAjU3Y2hHioTo3MOThrFAWdKAMeW0WnMfMkCF+R18AAAAk4kELvpPdYTWO3oGZrterXgamWwC8ud1u+9em3v6XO+uF7A6NeaagDfEdAADYy3MgvNEXaEx2By7TA81W2+nt3u39sKMpSQBreirBc9k3lXJCFUAJ4jsAAADcZd+IpTiDDd68j/bTOoUED+W80juO/dv3f6WzwBdyCfQzNsGjjwBUIb4DAADAz2R3WJx7Hg6fGnKABA8rGNJ3nnpVCgBFHUjwXL5VBy/MAqhFfAcAAP5ne1nEugar+d4jbKzSm7wa7PexgwyM8ig09HPeWVZCPAB893E25dAdgHLEdwAAAPhkY3vJRhFdeW0WHDY2nSDBQwkHjkM470p0GRYnoEBjzx7A88aX02jmWEeAon5FXwAAABRgdYN17FkTuV6vlk7ozbAPB9z+evHnKDF08vB+fr3X7osAUQAACvJJREFU6DIAjQ18MBkyT4O0zIjowek7AAAAXC7Pr3T4tjdteG0WjPXWiSygw3f3SsyX/79ZGQDvXp9ZqREAVTh9BwAALpfNdRDLHLR3+DQdx/DQgOwOnOSVb3grLvTzVI840H30GtbkzVmsw10NsALxHQAA2GJ9hN6G5G9sFwFwz+EQj+JCWs/enId7wbP/UK8B6O2VYLQaQWk7b373OQ2I7wAAgKc7lnP9a+APHPWjYCZH78Acr5zEA6W9fufrOwC8e6UoeGyHU5mzMYT4DgAA3OW5i2aGp3a+/PAzfiycR3YHJvMyIFYzqrLs/zl6DUvx5izWJMEDG9zkVCe+AwDA6iz5wShWSSjE7QohzK9Yx9i7XYIHgHcSPCzIcwSLEN8BAABYxe0n0RcFKegLMM1T3c0OE7xTqgAYwvyK3obf4boMM4nvAACwNEfvwNhAj0UNSvDaLIil0wHwIs8drOz1+/+812rDeUIOI9RTmEx8BwAAvrKlxOIczENvVt8gA1WG3k66w3f+WJWOlakv9DY2dqNe0NiQ21sfYT7xHQAA1vXjM5jFPnh3LMRjdYNaDPsQRRABAGC/e6tYrzzRmGhRy8z38OodhBDfAQAAYItwA514bRakog/Cs+Te4OIOZ0nb30B7JcSjQ1HLhATPgWOuPNcwivgOAACLcvQO7PfsUqDlP3KS3QEAaMzsjq52LmFJ8LCI81aofgzuKC7MJL4DAMCKZHfgAH2E0ixJQ06KC7WoJgBM9tQSlgQPi3g2wbNxoM71gx9/kd7BTL+jLwAAAFKwdQR7WLagDcM+AEWZj7E49z/ruHe3bz/LvP3XAz3ler16SqKQAzOip/73ugMhnL4DAMByHIIKsBqvzYLMdEkAXqea0Myx7M6z/7OdvxRyOm/kf+onK0AMJL4DAMBaZHfgRTu7jFU/8nA3AjBKoWcH5Q+grhezOwf+x1DU7XYbe6t/+YEmVEwmvgMAwEJkd2AIHYfS3MAAAEXZRmUFA+/zA8kGvYyKhoR4hieB4ADxHQAA1uWRDKA9r80CAGjPHI8VHL7PJXhYxLH8ze2vw7/02D+EH/2OvgAAAJjEDi4MdLvdrOiRn7sUqlBW4Cm6DEBXJw3vCgfr+L7k+37zi7KRn/gOAABLkN0B4BK6+rb/VytSAADf2UalvY2bfMiLgfZ3ouv16qmENtzMFOLlWQAA9GeNDwAAAFqyL0sPExavdBbYb0+X1KcYTnwHAIDmvj9rebKCIXQlAAAAONvAp+/9P8p34QDmE98BAKAz2R0AAACoTpIARrEyBkPoSpxBfAcAgLZkdwAAAKAxj/n0MDmgpuPANplRoojvAADQk+wOAAAwnMcKAIDFmRByEvEdAACW4JkKAAAAKnIKAgy3Z6FM12NN7nwCie8AANDQl6cs2R04ic4FAPCdXR+Yw/MIvEIPgmP0Hc4jvgMAQDeyO5CBrgfAEAoKHKPvAFQh9Al56I/E+h19AQAAMJLsDgDvJleB7WU+JQmgjdvtZmsHptHdWJznCJhmT8XRJTmV03cAAOhDdgcms5IOAACE8MgPwGRKD2cT3wEAoAnZHQCAouRBAQB+dOo0yeoZvPNIQgbiOwAAdBCY3fFoB99ZAQRgCAWFtB7enB4TYAhdCYAJvDaLJMR3AAAoLzy7Yz0RAADIw/YS7bnJ6cT9DLFkd8hDfAcAgNoyvDPL8xsAwHCmWHCP7w8AAEzjwYRpxHcAACgsNrtj0ZzF3esCFjUAeIo5FUV5fxacTSeCWJ7uWcHDWqMjMJP4DgAAVSXJ7niEAwAYzhQLDtN9aM9NDsAQsjtkI74DAEBJSbI7wBfWNQB4imkVpZn5ADCB+RKcQXaHhMR3AACoR3YHwv3YEaxrADCEgkIbZzw7bP9M3Yc2PHqzlKjRW0djWW5+chLfAQCgmFTZHYvjAACHCYPSgDsWJtPpYA59jcb2nLujCxDid/QFAADAEwLTM76TAe/stgJ0dW/CY5CHw67X67QepKsC1HW73TaWnmZWE+jNO7PITHwHAIAyvj9cxUZqPMuRyvfucNItKrsD0NX2jtFl9GivoNDG9obrZeie68Yv0n3oxPdnYAI1hQXJ7pCcl2cBAFCDxTvY8GMHuf519m+3tAGwiIFlRXaHZty9MIe+Rm/bd7iVMXjFnmcZVYZw4jsAAAC1PVx9GLjGN+2MHwAm218sXi8rsjssaMh8zDEJAIs79en+nZpCP3v6jjufDMR3AKAkX7ZgNQnveU901PL6eQk//gQdAWBNr5QV2R26engbvz4ZO/yroZaEKwAwzdnV5OEPUVNoZuehO+58khDfAQAgOyt3MMrh3VZbrQB892xNuZcEVVBoY86e67O/FIBa5EFhFIfuUM7VHQkA5Tz1hKbWU13O7I6eRSoHusn+e1hwB/bb7ow6Dvkdnncd3mTSL2hpzze8R/1AnYiWVA24nFBNHv5YXYxOBHcoSnwHAIo5dY8WssmZ3bnoViTzSk/ZuJkFd+BZ4jtU9+LU6/tNbn+IlY3adtWPWI17Ht6NzR94WmERgjuUJr4DADUMCTGo+9SSNrtz0ZvIZ0J/cdvDQxbEaWDOBEx3YBEv7h4JMbAmdz588XoW4aSDfCCVnQ8y7naSE98BgIxmphZMBshJdgeedV6vcc/DTuI79KCgwFjD+5SuRG/enAXfmZ7BBsEdOvkdfQEAAAAMcLvdxq7oWdcAWNPwgnJRU1jb2/3vSF3YI/M3eSDQwFLy5WdCUfu7g1udWpy+AwAA0MqLK3oeEgF4p6bAWMf6lK7EOrw5C/Z4ZYamK1HXU3e+W52ixHcAAAA68zYfAIbYs1yurMBTJBUAeJ2nftZh7kR74jsAAAAAAAAAQF7v8R0JB7oS3wEAAAAAAAAAgDC/oi8AAAAAAAAAAADWJb4DAAAAAAAAAABhxHcAAAAAAAAAACCM+A4AAAAAAAAAAIQR3wEAAAAAAAAAgDDiOwAAAAAAAAAAEEZ8BwAAAAAAAAAAwojvAAAAAAAAAABAGPEdAAAAAAAAAAAII74DAAAAAAAAAABhxHcAAAAAAAAAACCM+A4AAAAAAAAAAIQR3wEAAAAAAAAAgDDiOwAAAAAAAAAAEEZ8BwAAAAAAAAAAwojvAAAAAAAAAABAGPEdAAAAAAAAAAAII74DAAAAAAAAAABhxHcAAAAAAAAAACCM+A4AAAAAAAAAAIQR3wEAAAAAAAAAgDDiOwAAAAAAAAAAEEZ8BwAAAAAAAAAAwojvAAAAAAAAAABAGPEdAAAAAAAAAAAII74DAAAAAAAAAABhxHcAAAAAAAAAACCM+A4AAAAAAAAAAIQR3wEAAAAAAAAAgDDiOwAAAAAAAAAAEEZ8BwAAAAAAAAAAwojvAAAAAAAAAABAGPEdAAAAAAAAAAAII74DAAAAAAAAAABhxHcAAAAAAAAAACCM+A4AAAAAAAAAAIQR3wEAAAAAAAAAgDDiOwAAwP+1a8cCAAAAAIP8rYexpzgCAAAAAAA2+g4AAAAAAAAAAGz0HQAAAAAAAAAA2Og7AAAAAAAAAACw0XcAAAAAAAAAAGCj7wAAAAAAAAAAwEbfAQAAAAAAAACAjb4DAAAAAAAAAAAbfQcAAAAAAAAAADb6DgAAAAAAAAAAbPQdAAAAAAAAAADY6DsAAAAAAAAAALDRdwAAAAAAAAAAYKPvAAAAAAAAAADARt8BAAAAAAAAAICNvgMAAAAAAAAAABt9BwAAAAAAAAAANgFl4hzKuVRVNwAAAABJRU5ErkJggg==;align=center;" parent="1" vertex="1">
          <mxGeometry x="502.5" y="572.5" width="285" height="156.5" as="geometry" />
        </mxCell>
        <mxCell id="IZgi5f1fYp0vKWYEMyVF-28" value="&lt;div&gt;letter-probability matrix: alength= 4 w= 9 nsites= 6&lt;/div&gt;&lt;div&gt;0.333333&lt;span style=&quot;white-space: pre;&quot;&gt;&amp;nbsp;&amp;nbsp;&amp;nbsp;&amp;nbsp;&lt;/span&gt;0.0&lt;span style=&quot;&quot;&gt;&lt;span style=&quot;white-space: pre;&quot;&gt;&amp;nbsp;&amp;nbsp;&amp;nbsp;&amp;nbsp;&lt;/span&gt;&lt;/span&gt;0.666667&lt;span style=&quot;&quot;&gt;&lt;span style=&quot;white-space: pre;&quot;&gt;&amp;nbsp;&amp;nbsp;&amp;nbsp;&amp;nbsp;&lt;/span&gt;&lt;/span&gt;0.0&lt;span style=&quot;&quot;&gt;&lt;span style=&quot;white-space: pre;&quot;&gt;&amp;nbsp;&amp;nbsp;&amp;nbsp;&amp;nbsp;&lt;/span&gt;&lt;/span&gt;&lt;/div&gt;&lt;div&gt;0.0&lt;span style=&quot;&quot;&gt;&lt;span style=&quot;white-space: pre;&quot;&gt;&amp;nbsp;&amp;nbsp;&amp;nbsp;&amp;nbsp;&lt;/span&gt;&lt;/span&gt;0.0&lt;span style=&quot;&quot;&gt;&lt;span style=&quot;white-space: pre;&quot;&gt;&amp;nbsp;&amp;nbsp;&amp;nbsp;&amp;nbsp;&lt;/span&gt;&lt;/span&gt;0.5&lt;span style=&quot;&quot;&gt;&lt;span style=&quot;white-space: pre;&quot;&gt;&amp;nbsp;&amp;nbsp;&amp;nbsp;&amp;nbsp;&lt;/span&gt;&lt;/span&gt;0.5&lt;span style=&quot;&quot;&gt;&lt;span style=&quot;white-space: pre;&quot;&gt;&amp;nbsp;&amp;nbsp;&amp;nbsp;&amp;nbsp;&lt;/span&gt;&lt;/span&gt;&lt;/div&gt;&lt;div&gt;0.166667&lt;span style=&quot;&quot;&gt;&lt;span style=&quot;white-space: pre;&quot;&gt;&amp;nbsp;&amp;nbsp;&amp;nbsp;&amp;nbsp;&lt;/span&gt;&lt;/span&gt;0.5&lt;span style=&quot;&quot;&gt;&lt;span style=&quot;white-space: pre;&quot;&gt;&amp;nbsp;&amp;nbsp;&amp;nbsp;&amp;nbsp;&lt;/span&gt;&lt;/span&gt;0.0&lt;span style=&quot;&quot;&gt;&lt;span style=&quot;white-space: pre;&quot;&gt;&amp;nbsp;&amp;nbsp;&amp;nbsp;&amp;nbsp;&lt;/span&gt;&lt;/span&gt;0.333333&lt;span style=&quot;&quot;&gt;&lt;span style=&quot;white-space: pre;&quot;&gt;&amp;nbsp;&amp;nbsp;&amp;nbsp;&amp;nbsp;&lt;/span&gt;&lt;/span&gt;&lt;/div&gt;&lt;div&gt;0.0&lt;span style=&quot;&quot;&gt;&lt;span style=&quot;white-space: pre;&quot;&gt;&amp;nbsp;&amp;nbsp;&amp;nbsp;&amp;nbsp;&lt;/span&gt;&lt;/span&gt;0.0&lt;span style=&quot;&quot;&gt;&lt;span style=&quot;white-space: pre;&quot;&gt;&amp;nbsp;&amp;nbsp;&amp;nbsp;&amp;nbsp;&lt;/span&gt;&lt;/span&gt;1.0&lt;span style=&quot;&quot;&gt;&lt;span style=&quot;white-space: pre;&quot;&gt;&amp;nbsp;&amp;nbsp;&amp;nbsp;&amp;nbsp;&lt;/span&gt;&lt;/span&gt;0.0&lt;span style=&quot;&quot;&gt;&lt;span style=&quot;white-space: pre;&quot;&gt;&amp;nbsp;&amp;nbsp;&amp;nbsp;&amp;nbsp;&lt;/span&gt;&lt;/span&gt;&lt;/div&gt;&lt;div&gt;0.0&lt;span style=&quot;&quot;&gt;&lt;span style=&quot;white-space: pre;&quot;&gt;&amp;nbsp;&amp;nbsp;&amp;nbsp;&amp;nbsp;&lt;/span&gt;&lt;/span&gt;1.0&lt;span style=&quot;&quot;&gt;&lt;span style=&quot;white-space: pre;&quot;&gt;&amp;nbsp;&amp;nbsp;&amp;nbsp;&amp;nbsp;&lt;/span&gt;&lt;/span&gt;0.0&lt;span style=&quot;&quot;&gt;&lt;span style=&quot;white-space: pre;&quot;&gt;&amp;nbsp;&amp;nbsp;&amp;nbsp;&amp;nbsp;&lt;/span&gt;&lt;/span&gt;0.0&lt;span style=&quot;&quot;&gt;&lt;span style=&quot;white-space: pre;&quot;&gt;&amp;nbsp;&amp;nbsp;&amp;nbsp;&amp;nbsp;&lt;/span&gt;&lt;/span&gt;&lt;/div&gt;&lt;div&gt;0.0&lt;span style=&quot;&quot;&gt;&lt;span style=&quot;white-space: pre;&quot;&gt;&amp;nbsp;&amp;nbsp;&amp;nbsp;&amp;nbsp;&lt;/span&gt;&lt;/span&gt;0.0&lt;span style=&quot;&quot;&gt;&lt;span style=&quot;white-space: pre;&quot;&gt;&amp;nbsp;&amp;nbsp;&amp;nbsp;&amp;nbsp;&lt;/span&gt;&lt;/span&gt;1.0&lt;span style=&quot;&quot;&gt;&lt;span style=&quot;white-space: pre;&quot;&gt;&amp;nbsp;&amp;nbsp;&amp;nbsp;&amp;nbsp;&lt;/span&gt;&lt;/span&gt;0.0&lt;span style=&quot;&quot;&gt;&lt;span style=&quot;white-space: pre;&quot;&gt;&amp;nbsp;&amp;nbsp;&amp;nbsp;&amp;nbsp;&lt;/span&gt;&lt;/span&gt;&lt;/div&gt;&lt;div&gt;0.0&lt;span style=&quot;&quot;&gt;&lt;span style=&quot;white-space: pre;&quot;&gt;&amp;nbsp;&amp;nbsp;&amp;nbsp;&amp;nbsp;&lt;/span&gt;&lt;/span&gt;0.0&lt;span style=&quot;&quot;&gt;&lt;span style=&quot;white-space: pre;&quot;&gt;&amp;nbsp;&amp;nbsp;&amp;nbsp;&amp;nbsp;&lt;/span&gt;&lt;/span&gt;0.0&lt;span style=&quot;&quot;&gt;&lt;span style=&quot;white-space: pre;&quot;&gt;&amp;nbsp;&amp;nbsp;&amp;nbsp;&amp;nbsp;&lt;/span&gt;&lt;/span&gt;1.0&lt;span style=&quot;&quot;&gt;&lt;span style=&quot;white-space: pre;&quot;&gt;&amp;nbsp;&amp;nbsp;&amp;nbsp;&amp;nbsp;&lt;/span&gt;&lt;/span&gt;&lt;/div&gt;&lt;div&gt;0.0&lt;span style=&quot;&quot;&gt;&lt;span style=&quot;white-space: pre;&quot;&gt;&amp;nbsp;&amp;nbsp;&amp;nbsp;&amp;nbsp;&lt;/span&gt;&lt;/span&gt;0.0&lt;span style=&quot;&quot;&gt;&lt;span style=&quot;white-space: pre;&quot;&gt;&amp;nbsp;&amp;nbsp;&amp;nbsp;&amp;nbsp;&lt;/span&gt;&lt;/span&gt;1.0&lt;span style=&quot;&quot;&gt;&lt;span style=&quot;white-space: pre;&quot;&gt;&amp;nbsp;&amp;nbsp;&amp;nbsp;&amp;nbsp;&lt;/span&gt;&lt;/span&gt;0.0&lt;span style=&quot;&quot;&gt;&lt;span style=&quot;white-space: pre;&quot;&gt;&amp;nbsp;&amp;nbsp;&amp;nbsp;&amp;nbsp;&lt;/span&gt;&lt;/span&gt;&lt;/div&gt;&lt;div&gt;0.166667&lt;span style=&quot;&quot;&gt;&lt;span style=&quot;white-space: pre;&quot;&gt;&amp;nbsp;&amp;nbsp;&amp;nbsp;&amp;nbsp;&lt;/span&gt;&lt;/span&gt;0.666667&lt;span style=&quot;&quot;&gt;&lt;span style=&quot;white-space: pre;&quot;&gt;&amp;nbsp;&amp;nbsp;&amp;nbsp;&amp;nbsp;&lt;/span&gt;&lt;/span&gt;0.166667&lt;span style=&quot;&quot;&gt;&lt;span style=&quot;white-space: pre;&quot;&gt;&amp;nbsp;&amp;nbsp;&amp;nbsp;&amp;nbsp;&lt;/span&gt;&lt;/span&gt;0.0&lt;span style=&quot;&quot;&gt;&lt;span style=&quot;white-space: pre;&quot;&gt;&amp;nbsp;&amp;nbsp;&amp;nbsp;&amp;nbsp;&lt;/span&gt;&lt;/span&gt;&lt;/div&gt;" style="text;html=1;strokeColor=none;fillColor=none;align=left;verticalAlign=middle;whiteSpace=wrap;rounded=0;" parent="1" vertex="1">
          <mxGeometry x="844" y="572.5" width="277" height="150" as="geometry" />
        </mxCell>
        <mxCell id="IZgi5f1fYp0vKWYEMyVF-29" value="" style="html=1;shadow=0;dashed=0;align=center;verticalAlign=middle;shape=mxgraph.arrows2.arrow;dy=0.58;dx=17.5;notch=0;fillColor=#e51400;fontColor=#ffffff;strokeColor=#B20000;" parent="1" vertex="1">
          <mxGeometry x="240" y="123.5" width="30" height="165" as="geometry" />
        </mxCell>
        <mxCell id="IZgi5f1fYp0vKWYEMyVF-30" value="" style="html=1;shadow=0;dashed=0;align=center;verticalAlign=middle;shape=mxgraph.arrows2.arrow;dy=0.58;dx=17.5;notch=0;fillColor=#e51400;fontColor=#ffffff;strokeColor=#B20000;" parent="1" vertex="1">
          <mxGeometry x="667" y="120.5" width="30" height="165" as="geometry" />
        </mxCell>
        <mxCell id="IZgi5f1fYp0vKWYEMyVF-31" style="edgeStyle=orthogonalEdgeStyle;rounded=0;orthogonalLoop=1;jettySize=auto;html=1;exitX=0.5;exitY=1;exitDx=0;exitDy=0;" parent="1" edge="1">
          <mxGeometry relative="1" as="geometry">
            <mxPoint x="552.5" y="835" as="sourcePoint" />
            <mxPoint x="552.5" y="835" as="targetPoint" />
          </mxGeometry>
        </mxCell>
        <mxCell id="IZgi5f1fYp0vKWYEMyVF-32" value="" style="html=1;shadow=0;dashed=0;align=center;verticalAlign=middle;shape=mxgraph.arrows2.arrow;dy=0.58;dx=17.5;notch=0;fillColor=#e51400;fontColor=#ffffff;strokeColor=#B20000;rotation=90;" parent="1" vertex="1">
          <mxGeometry x="889.88" y="295.63" width="61.75" height="183.5" as="geometry" />
        </mxCell>
        <mxCell id="IZgi5f1fYp0vKWYEMyVF-33" value="&lt;font style=&quot;font-size: 28px;&quot;&gt;370 Homo ATAC-seq dayasets&lt;/font&gt;" style="ellipse;whiteSpace=wrap;html=1;fillColor=#bac8d3;strokeColor=#23445d;" parent="1" vertex="1">
          <mxGeometry x="-75" y="840" width="420" height="155" as="geometry" />
        </mxCell>
        <mxCell id="IZgi5f1fYp0vKWYEMyVF-34" value="&lt;font style=&quot;font-size: 28px;&quot;&gt;90 Mus ATAC-seq dayasets&lt;/font&gt;" style="ellipse;whiteSpace=wrap;html=1;fillColor=#bac8d3;strokeColor=#23445d;" parent="1" vertex="1">
          <mxGeometry x="-75" y="1014" width="420" height="155" as="geometry" />
        </mxCell>
        <mxCell id="IZgi5f1fYp0vKWYEMyVF-35" value="" style="rounded=1;whiteSpace=wrap;html=1;align=left;fillColor=#f5f5f5;strokeColor=#666666;fontColor=#333333;" parent="1" vertex="1">
          <mxGeometry x="428" y="840" width="772" height="120" as="geometry" />
        </mxCell>
        <mxCell id="IZgi5f1fYp0vKWYEMyVF-36" value="" style="rounded=0;whiteSpace=wrap;html=1;fillColor=#f5f5f5;fontColor=#333333;strokeColor=#666666;" parent="1" vertex="1">
          <mxGeometry x="428" y="981" width="772" height="825" as="geometry" />
        </mxCell>
        <mxCell id="IZgi5f1fYp0vKWYEMyVF-37" value="&lt;p style=&quot;line-height: 130%;&quot;&gt;&lt;/p&gt;&lt;div style=&quot;font-size: 28px; line-height: 140%;&quot;&gt;&lt;font style=&quot;font-size: 28px;&quot;&gt;&lt;u&gt;&lt;b&gt;ZBT14&lt;/b&gt;&lt;/u&gt;&lt;/font&gt;&lt;/div&gt;&lt;div style=&quot;font-size: 28px; line-height: 140%;&quot;&gt;&lt;font style=&quot;font-size: 28px;&quot;&gt;ETS1&lt;/font&gt;&lt;/div&gt;&lt;div style=&quot;font-size: 28px; line-height: 140%;&quot;&gt;&lt;font style=&quot;font-size: 28px;&quot;&gt;LEF1&lt;/font&gt;&lt;/div&gt;&lt;div style=&quot;font-size: 28px; line-height: 140%;&quot;&gt;&lt;font style=&quot;font-size: 28px;&quot;&gt;ZIC3&lt;/font&gt;&lt;/div&gt;&lt;div style=&quot;font-size: 28px; line-height: 140%;&quot;&gt;&lt;font style=&quot;font-size: 28px;&quot;&gt;ZN667&lt;/font&gt;&lt;/div&gt;&lt;div style=&quot;font-size: 28px; line-height: 140%;&quot;&gt;&lt;font style=&quot;font-size: 28px;&quot;&gt;STF1&lt;/font&gt;&lt;/div&gt;&lt;div style=&quot;font-size: 28px; line-height: 140%;&quot;&gt;&lt;font style=&quot;font-size: 28px;&quot;&gt;Z324A&lt;/font&gt;&lt;/div&gt;&lt;div style=&quot;font-size: 28px; line-height: 140%;&quot;&gt;&lt;font style=&quot;font-size: 28px;&quot;&gt;LYL1&lt;/font&gt;&lt;/div&gt;&lt;div style=&quot;font-size: 28px; line-height: 140%;&quot;&gt;&lt;font style=&quot;font-size: 28px;&quot;&gt;ELF5&lt;/font&gt;&lt;/div&gt;&lt;div style=&quot;font-size: 28px; line-height: 140%;&quot;&gt;&lt;font style=&quot;font-size: 28px;&quot;&gt;P63&lt;/font&gt;&lt;/div&gt;&lt;div style=&quot;font-size: 28px; line-height: 140%;&quot;&gt;&lt;font style=&quot;font-size: 28px;&quot;&gt;GABPA&lt;/font&gt;&lt;/div&gt;&lt;div style=&quot;font-size: 28px; line-height: 140%;&quot;&gt;&lt;font style=&quot;font-size: 28px;&quot;&gt;USF1&lt;/font&gt;&lt;/div&gt;&lt;div style=&quot;font-size: 28px; line-height: 140%;&quot;&gt;&lt;font style=&quot;font-size: 28px;&quot;&gt;ZN263&lt;/font&gt;&lt;/div&gt;&lt;div style=&quot;font-size: 28px; line-height: 140%;&quot;&gt;&lt;font style=&quot;font-size: 28px;&quot;&gt;SPIB&lt;/font&gt;&lt;/div&gt;&lt;div style=&quot;font-size: 28px; line-height: 140%;&quot;&gt;&lt;font style=&quot;font-size: 28px;&quot;&gt;SOX3&lt;/font&gt;&lt;/div&gt;&lt;div style=&quot;font-size: 28px; line-height: 140%;&quot;&gt;&lt;font style=&quot;font-size: 28px;&quot;&gt;PTF1A&lt;/font&gt;&lt;/div&gt;&lt;div style=&quot;font-size: 28px; line-height: 140%;&quot;&gt;&lt;font style=&quot;font-size: 28px;&quot;&gt;P53&lt;/font&gt;&lt;/div&gt;&lt;div style=&quot;font-size: 28px; line-height: 140%;&quot;&gt;&lt;font style=&quot;font-size: 28px;&quot;&gt;ETV4&lt;/font&gt;&lt;/div&gt;&lt;p&gt;&lt;/p&gt;" style="rounded=0;whiteSpace=wrap;html=1;fillColor=#f5f5f5;fontColor=#333333;strokeColor=#666666;" parent="1" vertex="1">
          <mxGeometry x="443" y="990" width="120" height="750" as="geometry" />
        </mxCell>
        <mxCell id="IZgi5f1fYp0vKWYEMyVF-38" value="" style="shape=image;verticalLabelPosition=bottom;labelBackgroundColor=default;verticalAlign=top;imageAspect=0;image=data:image/png,iVBORw0KGgoAAAANSUhEUgAAC+oAAAaTCAIAAABPKqBuAAAJMmlDQ1BkZWZhdWx0X3JnYi5pY2MAAEiJlZVnUJNZF8fv8zzphUASQodQQ5EqJYCUEFoo0quoQOidUEVsiLgCK4qINEWQRQEXXJUia0UUC4uCAhZ0gywCyrpxFVFBWXDfGZ33HT+8/5l7z2/+c+bec8/5cAEgiINlwct7YlK6wNvJjhkYFMwE3yiMn5bC8fR0A9/VuxEArcR7ut/P+a4IEZFp/OW4uLxy+SmCdACg7GXWzEpPWeGjy0wPj//CZ1dYsFzgMt9Y4eh/eexLzr8s+pLj681dfhUKABwp+hsO/4b/c++KVDiC9NioyGymT3JUelaYIJKZttIJHpfL9BQkR8UmRH5T8P+V/B2lR2anr0RucsomQWx0TDrzfw41MjA0BF9n8cbrS48hRv9/z2dFX73kegDYcwAg+7564ZUAdO4CQPrRV09tua+UfAA67vAzBJn/eqiVDQ0IgALoQAYoAlWgCXSBETADlsAWOAAX4AF8QRDYAPggBiQCAcgCuWAHKABFYB84CKpALWgATaAVnAad4Dy4Aq6D2+AuGAaPgRBMgpdABN6BBQiCsBAZokEykBKkDulARhAbsoYcIDfIGwqCQqFoKAnKgHKhnVARVApVQXVQE/QLdA66At2EBqGH0Dg0A/0NfYQRmATTYQVYA9aH2TAHdoV94fVwNJwK58D58F64Aq6HT8Id8BX4NjwMC+GX8BwCECLCQJQRXYSNcBEPJBiJQgTIVqQQKUfqkVakG+lD7iFCZBb5gMKgaCgmShdliXJG+aH4qFTUVlQxqgp1AtWB6kXdQ42jRKjPaDJaHq2DtkDz0IHoaHQWugBdjm5Et6OvoYfRk+h3GAyGgWFhzDDOmCBMHGYzphhzGNOGuYwZxExg5rBYrAxWB2uF9cCGYdOxBdhK7EnsJewQdhL7HkfEKeGMcI64YFwSLg9XjmvGXcQN4aZwC3hxvDreAu+Bj8BvwpfgG/Dd+Dv4SfwCQYLAIlgRfAlxhB2ECkIr4RphjPCGSCSqEM2JXsRY4nZiBfEU8QZxnPiBRCVpk7ikEFIGaS/pOOky6SHpDZlM1iDbkoPJ6eS95CbyVfJT8nsxmpieGE8sQmybWLVYh9iQ2CsKnqJO4VA2UHIo5ZQzlDuUWXG8uIY4VzxMfKt4tfg58VHxOQmahKGEh0SiRLFEs8RNiWkqlqpBdaBGUPOpx6hXqRM0hKZK49L4tJ20Bto12iQdQ2fRefQ4ehH9Z/oAXSRJlTSW9JfMlqyWvCApZCAMDQaPkcAoYZxmjDA+SilIcaQipfZItUoNSc1Ly0nbSkdKF0q3SQ9Lf5RhyjjIxMvsl+mUeSKLktWW9ZLNkj0ie012Vo4uZynHlyuUOy33SB6W15b3lt8sf0y+X35OQVHBSSFFoVLhqsKsIkPRVjFOsUzxouKMEk3JWilWqUzpktILpiSTw0xgVjB7mSJleWVn5QzlOuUB5QUVloqfSp5Km8oTVYIqWzVKtUy1R1WkpqTmrpar1qL2SB2vzlaPUT+k3qc+r8HSCNDYrdGpMc2SZvFYOawW1pgmWdNGM1WzXvO+FkaLrRWvdVjrrjasbaIdo12tfUcH1jHVidU5rDO4Cr3KfFXSqvpVo7okXY5upm6L7rgeQ89NL0+vU++Vvpp+sP5+/T79zwYmBgkGDQaPDamGLoZ5ht2GfxtpG/GNqo3uryavdly9bXXX6tfGOsaRxkeMH5jQTNxNdpv0mHwyNTMVmLaazpipmYWa1ZiNsulsT3Yx+4Y52tzOfJv5efMPFqYW6RanLf6y1LWMt2y2nF7DWhO5pmHNhJWKVZhVnZXQmmkdan3UWmijbBNmU2/zzFbVNsK20XaKo8WJ45zkvLIzsBPYtdvNcy24W7iX7RF7J/tC+wEHqoOfQ5XDU0cVx2jHFkeRk4nTZqfLzmhnV+f9zqM8BR6f18QTuZi5bHHpdSW5+rhWuT5z03YTuHW7w+4u7gfcx9aqr01a2+kBPHgeBzyeeLI8Uz1/9cJ4eXpVez33NvTO9e7zofls9Gn2eedr51vi+9hP0y/Dr8ef4h/i3+Q/H2AfUBogDNQP3BJ4O0g2KDaoKxgb7B/cGDy3zmHdwXWTISYhBSEj61nrs9ff3CC7IWHDhY2UjWEbz4SiQwNCm0MXwzzC6sPmwnnhNeEiPpd/iP8ywjaiLGIm0iqyNHIqyiqqNGo62ir6QPRMjE1MecxsLDe2KvZ1nHNcbdx8vEf88filhICEtkRcYmjiuSRqUnxSb7JicnbyYIpOSkGKMNUi9WCqSOAqaEyD0tandaXTlz/F/gzNjF0Z45nWmdWZ77P8s85kS2QnZfdv0t60Z9NUjmPOT5tRm/mbe3KVc3fkjm/hbKnbCm0N39qzTXVb/rbJ7U7bT+wg7Ijf8VueQV5p3tudATu78xXyt+dP7HLa1VIgViAoGN1tubv2B9QPsT8M7Fm9p3LP58KIwltFBkXlRYvF/OJbPxr+WPHj0t6ovQMlpiVH9mH2Je0b2W+z/0SpRGlO6cQB9wMdZcyywrK3BzcevFluXF57iHAo45Cwwq2iq1Ktcl/lYlVM1XC1XXVbjXzNnpr5wxGHh47YHmmtVagtqv14NPbogzqnuo56jfryY5hjmceeN/g39P3E/qmpUbaxqPHT8aTjwhPeJ3qbzJqamuWbS1rgloyWmZMhJ+/+bP9zV6tua10bo63oFDiVcerFL6G/jJx2Pd1zhn2m9az62Zp2WnthB9SxqUPUGdMp7ArqGjzncq6n27K7/Ve9X4+fVz5ffUHyQslFwsX8i0uXci7NXU65PHsl+spEz8aex1cDr97v9eoduOZ67cZ1x+tX+zh9l25Y3Th/0+LmuVvsW523TW939Jv0t/9m8lv7gOlAxx2zO113ze92D64ZvDhkM3Tlnv296/d5928Prx0eHPEbeTAaMip8EPFg+mHCw9ePMh8tPN4+hh4rfCL+pPyp/NP637V+bxOaCi+M24/3P/N59niCP/Hyj7Q/Fifzn5Ofl08pTTVNG02fn3Gcufti3YvJlykvF2YL/pT4s+aV5quzf9n+1S8KFE2+Frxe+rv4jcyb42+N3/bMec49fZf4bmG+8L3M+xMf2B/6PgZ8nFrIWsQuVnzS+tT92fXz2FLi0tI/QiyQvpTNDAsAAAAJcEhZcwAAuIwAALiMAcz2uy8AAAAfdEVYdFNvZnR3YXJlAEdQTCBHaG9zdHNjcmlwdCA5LjU1LjDyGIEvAAAgAElEQVR4nOzdW3LbOhZAUTHlUWaAd5rsD3VUftKkBPI8sFb1R1fd2AahmIiELWhZ1/UGAAAAAAAAAABE+BM9AAAAAAAAAAAAmJd8BwAAAAAAAAAAwsh3AAAAAAAAAAAgjHwHAAAAAAAAAADCyHcAAAAAAAAAACCMfAcAAAAAAAAAAMLIdwAAAAAAAAAAIIx8BwAAAAAAAAAAwsh3AAAAAAAAAAAgjHwHAAAAAAAAAADCyHcAAAAAAAAAACCMfAcAAAAAAAAAAMLIdwAAAAAAAAAAIIx8BwAAAAAAAAAAwsh3AAAAAAAAAAAgjHwHAAAAAAAAAADCyHcAAAAAAAAAACCMfAcAAAAAAAAAAMLIdwAAAAAAAAAAIIx8BwAAAAAAAAAAwsh3AAAAAAAAAAAgjHwHAAAAAAAAAADCyHcAAAAAAAAAACCMfAcAAAAAAAAAAMLIdwAAAAAAAAAAIIx8BwAAAAAAAAAAwsh3AAAAAAAAAAAgjHwHAAAAAAAAAADCyHcAAAAAAAAAACCMfAcAAAAAAAAAAMLIdwAAAAAAAAAAIIx8BwAAAAAAAAAAwsh3AAAAAAAAAAAgjHwHAAAAAAAAAADCyHcAAAAAAAAAACCMfAcAAAAAAAAAAMLIdwAAAAAAAAAAIIx8BwAAAAAAAAAAwsh3AAAAAAAAAAAgjHwHAAAAAAAAAADCyHcAAAAAAAAAACCMfAcAAAAAAAAAAMLIdwAAAAAAAAAAIIx8BwAAAAAAAAAAwsh3AAAAAAAAAAAgjHwHAAAAAAAAAADCyHcAAAAAAAAAACCMfAcAAAAAAAAAAMLIdwAAAAAAAAAAIIx8BwAAAAAAAAAAwsh3AAAAAAAAAAAgjHwHAAAAAAAAAADCyHcAAAAAAAAAACCMfAcAAAAAAAAAAMK8RQ8AJrUsy/3/rOsaO5Iq7jNmugAAAAAAAABoZrEXDhd4xDp7+K28HZkx0wUAAAAAAABAafIdONGhauerCX89X5mxCacLAAAAAAAAgAbkO3CKF8Od9yb5JR01Y5NMFwAAAAAAAABtyHdgvIHtzkPjX9Vfp+vba9/+qsbTBQAAAAAAAEAz8h0Y6Yxw56Hlb+vGjO253he/HAAAAAAAAADC/YkeAPRxartzwfe/3uvxzcYf6zddAAAAAAAAALQk34ExrolFOiUpow7OUfAAAAAAAAAAUJp8Bwa4MhPpkaSM/dArBQ8AAAAAAAAAdcl34FXXByLVk5Sx7c6vX1h9ugAAAAAAAADobXl6sxy47UtDvv6WDQlKiv7yntHuXPPNAQAAAAAAAOAM8h143pBY5JWUp9zv7/bFnprvDPn+AAAAAAAAADDcW/QAoKqfSpGjjcjjz0/+GU9D2pp1XSefRgAAAAAAAADK+RM9AGjllQblia+tlaqEjzZ8AAAAAAAAAADwlXwHnvFtCPL6+THrunb9gKfLPtZq+1speAAAAAAAAADIRr4DY1wWoHyiRwEAAAAAAACA0uQ7cNjXYmb4kTnNzuC5uDFyAA8AAAAAAAAAhch34FXNUpvrmUAAAAAAAAAAZibfgWM+nd1yXnqy/zs7TuYoMwYAAAAAAABAHvIdyKvHsTRaGQAAAAAAAADYIN+B5/XIa2KdNIe/fltREQAAAAAAAABJyHfgAM3HUWYMAAAAAAAAALbJd+BJ1xy944AfAAAAAAAAAOhNvgNMyslAAAAAAAAAAGQg34FnOBRnj9g+xmMEAAAAAAAAQAnyHdjLYS3DKWwAAAAAAAAAQL4Dh10cnWhcziPJAgAAAAAAACDcW/QAoAwZzSHKGAAAAAAAAADYw+k7AAAAAAAAAAAQRr4DAAAAAAAAAABh5DtQnk/1eoUP+QIAAAAAAAAglnwHGC9JEyNsAgAAAAAAACA/+Q4QQ1sDAAAAAAAAADf5DuSX5CQbAAAAAAAAAOAM8h2ozRk2AAAAAAAAAFCafAcAAAAAAAAAAMLIdwAAAAAAAAAAIIx8B1JblmXjv/rkrCG2JxkAAAAAAAAATiXfAQZTwwAAAAAAAADAfvIdqMrROwAAAAAAAADQwFv0AAAKmPlIIaEYAAAAAAAAwKmcvgN5bSQjigoAAAAAAAAA6EG+A/VodwAAAAAAAACgDfkOJDXzpzUBAAAAAAAAwDzeogcAHOPoHS72qSTzNxAAAAAAAABgLKfvQEY/Hb2jnAAAAAAAAACAZuQ7AAAAAAAAAAAQRr4D6Th6BwAAAAAAAADmId+BGrQ7AAAAAAAAANDSW/QAgA++PXpHuxNuqofgp/OfAAAAAAAAADiD03cAAAAAAAAAACCMfAcScfQOAAAAAAAAAMxGvgNZaHcAAAAAAAAAYELyHciraLtTdNgAAAAAAAAAEEK+Ayl8PXpHBAMAAAAAAAAAM5DvQDztTiyzDQAAAAAAAEAg+Q4E0+4AAAAAAAAAwMzkO5CLdgcAAAAAAAAApiLfgUifjt7R7gAAAAAAAADAbOQ7EEa7AwAAAAAAAADIdyDGp3anGSkSAAAAAAAAAOwk34EAX9udCXuXJAHThDMPAAAAAAAAQCryHbiaducySQohAAAAAAAAANgg34FLaXcAAAAAAAAAgPfkO3Ad7Q4AAAAAAAAA8Il8B8L0bnd6Xx0AAAAAAAAAjCLfgYt8OnpH3ZKBRwEAAAAAAACAcPIduIJ2BwAAAAAAAAD4lnwHTjdtu/PrlX6aGQAAAAAAAACYkHwHzjVtuxPu1zbIYwEAAAAAAABABvIdOJF2BwAAAAAAAADYJt+BswS2O3k+lEqxBAAAAAAAAADb5DtwivB2J0/Bk5OuCAAAAAAAAIAk5DswXobPzKqSp5yUGamXAAAAAAAAAKhCvgODxbY7CbOVhCFRwiEBAAAAAAAAMC35DoyUpN2RpwAAAAAAAABAFfIdGCZJu5PQ9lQMH/n2N9Q2AQAAAAAAAJDKW/QAoIkG7c6330TsAgAAAAAAAACncvoODJCq3Xnup/8UAI06GidJBpRkGAAAAAAAAADwIN+BVwW2O8uynHfuzs7/OsTAH5H5Q8QAAAAAAAAA4CsfngUv+RqLxOYjT8RDewa8LMvrWdK6ruUmBwAAAAAAAADO5vQdeJ6DXo7aCGjOPkZIuwMAAAAAAABATvIdmNr+aKbWR2gBAAAAAAAAQBXyHXhSwtakxAEz5w3S0TsAAAAAAAAAVCTfgWckbHcKOeMjtLQ7AAAAAAAAABQl34HDcrY7tSKVsQWPdgcAAAAAAACAuuQ7cEzOdudpgXXLdsGzf561OwAAAAAAAACU9hY9AKikWbtzyBkpzP17/jSry7Js/1DhDgAAAAAAAAANyHdgr8ztziu1yrqusZe2MYDnBqbdAQAAAAAAAKAQH54F/N67nB3ErOs65EeM+j4AAAAAAAAAcJlfPpsGmMe3R92E3CKeOHTHrWyg7fk31QAAAAAAAABj+fAs4P/yZBnvR/JTSpJntAAAAAAAAADwCvkOkJpMBwAAAAAAAIDe/kQPAAAAAAAAAAAA5iXfAQAAAAAAAACAMPIdAAAAAAAAAAAII98BAAAAAAAAAIAw8h0AAAAAAAAAAAgj3wEAAAAAAAAAgDDyHQAAAAAAAAAACCPfAQAAAAAAAACAMPIdAAAAAAAAAAAII98BAAAAAAAAAIAw8h0AAAAAAAAAAAgj3wEAAAAAAAAAgDDyHQAAAAAAAAAACCPfAQAAAAAAAACAMPIdAAAAAAAAAAAII98BAAAAAAAAAIAw8h0AAAAAAAAAAAgj3wEAAAAAAAAAgDDyHQAAAAAAAAAACCPfAQAAAAAAAACAMPIdAAAAAAAAAAAII98BAAAAAAAAAIAw8h0AAAAAAAAAAAgj3wEAAAAAAAAAgDDyHQAAAAAAAAAACCPfAQAAAAAAAACAMPIdAAAAAAAAAAAII98BAAAAAAAAAIAw8h0AAAAAAAAAAAgj3wEAAAAAAAAAgDDyHQAAAAAAAAAACCPfAQAAAAAAAACAMPIdAAAAAAAAAAAII98BAAAAAAAAAIAw8h0AAAAAAAAAAAgj3wEAAAAAAAAAgDDyHQAAAAAAAAAACCPfAQAAAAAAAACAMPIdAAAAAAAAAAAII98BAAAAAAAAAIAw8h0AAAAAAAAAAAgj3wEAAAAAAAAAgDDyHQAAAAAAAAAACCPfAQAAAAAAAACAMPIdAAAAAAAAAAAII98BAAAAAAAAAIAw8h0AAAAAAAAAAAgj3wEAAAAAAAAAgDDyHQAAAAAAAAAACCPfAQAAAAAAAACAMPIdAAAAAAAAAAAII98BAAAAAAAAAIAw8h0AAAAAAAAAAAgj3wEAAAAAAAAAgDDyHQAAAAAAAAAACCPfAQAAAAAAAACAMPIdAAAAAAAAAAAII98BAAAAAAAAAIAw8h0AAAAAAAAAAAgj3wEAAAAAAAAAgDDyHQAAAAAAAAAACCPfAQAAAAAAAACAMPIdAAAAAAAAAAAII98BAAAAAAAAAIAw8h0AAAAAAAAAAAgj3wEAAAAAAAAAgDDyHQAAAAAAAAAACCPfAQAAAAAAAACAMPIdAAAAAAAAAAAII98BAAAAAAAAAIAw8h0AAAAAAAAAAAgj3wEAAAAAAAAAgDDyHQAAAAAAAAAACCPfAQAAAAAAAACAMPIdAAAAAAAAAAAII98BAAAAAAAAAIAw8h0AAAAAAAAAAAgj3wEAAAAAAAAAgDDyHQAAAAAAAAAACCPfAQAAAAAAAACAMPIdAAAAAAAAAAAII98BAAAAAAAAAIAwb9EDAOAXy7JEDwEAAAAAAACAszh9BwAAAAAAAAAAwsh3AAAAAAAAAAAgjHwHAAAAAAAAAADCyHcAAAAAAAAAACCMfAcAAAAAAAAAAMLIdwAAAAAAAAAAIIx8BwAAAAAAAAAAwsh3AAAAAAAAAAAgzFv0AAD4xbquV/64ZVmu/HEAAAAAAAAAk3P6DgAAAAAAAAAAhJHvAAAAAAAAAABAGPkOAAAAAAAAAACEke8AAAAAAAAAAEAY+Q4AAAAAAAAAAISR7wAAAAAAAAAAQBj5DgAAAAAAAAAAhJHvAAAAAAAAAABAGPkOAAAAAAAAAACEke8AAAAAAAAAAEAY+Q4AAAAAAAAAAISR7wAAAAAAAAAAQBj5DgAAAAAAAAAAhJHvAAAAAAAAAABAGPkOAAAAAAAAAACEke8AAAAAAAAAAEAY+Q4AAAAAAAAAAISR7wAAAAAAAAAAQBj5DgAAAAAAAAAAhJHvAAAAAAAAAABAGPkOAAAAAAAAAACEke8AAAAAAAAAAEAY+Q4AAAAAAAAAAISR7wAAAAAAAAAAQBj5DgAAAAAAAAAAhJHvAAAAAAAAAABAGPkOAAAAAAAAAACEke8AAAAAAAAAAEAY+Q4AAAAAAAAAAISR7wAAAAAAAAAAQBj5DgAAAAAAAAAAhJHvAAAAAAAAAABAGPkOAAAAAAAAAACEke8AAAAAAAAAAEAY+Q4AAAAAAAAAAISR7wAAAAAAAAAAQBj5DgAAAAAAAAAAhJHvAAAAAAAAAABAGPkOAAAAAAAAAACEke8AAAAAAAAAAEAY+Q4AAAAAAAAAAISR7wAAAAAAAAAAQBj5DgAAAAAAAAAAhHmLHgAAAAAA0NmyHPjD63raOAAAACAr+Q4AAAAAMNihZOenL5TyAAAAMAn5DgAAAAAwxtPVzvZ30/Ewl//2/SL99YsBwG+sKQB1LKvnvgC8s2y+1GrVAAAA4Kux1c4Gz0rpaefe6gbbrgDcWVMAypLvAPCBfAcAAID9Lgt33vPclA5e3179iW1XgNlYUwBakO8A8IF8BwAAgD1Cwp33PEOlpPN2WD+x4QrQnjUFoBf5DgAfyHcAAADYFh7uPHiSSiWXbbJ+Ys8VoB9rCkBH8h0APpDvAAAAsCFPu/PgqSrZRW2yvmfDFaAHawpAX/IdAD6Q7wAAAPCthOHOg2erJJVhk/XBbitAadYUgO7kOwB8IN8BAADgq8ztzoPnrCSSapP1PRuuAOVYUwDmIN8B4AP5DgAAAO+VCHcePG0lhbT7rA82XAGqsKYATEO+A8AH8h0AAAAearU7d565Ein/JuuD3VaA5KwpAJOR7wDwgXwHAACAu4rtzoPnrwQotM/6YMMVICdrCsB85DsAfCDfAQAA4Fa83bnzFJbrVNxkfbDbCpCKNQVgVn+iBwAAAAAAJLIsHdqdW4sCiRpK77Pe6o8foJPq9+Tq4wcIJd8BAAAAAP6vWfLS7HLIqMc+ZY+rAKiux924x1UARJDvAAAAAAC3W9PYpeVFkUWnHcpO1wJQUaf7cKdrAbiQfAcAAAAA6Jy5NL40IvXbm+x3RQBV9LsD97sigPMt67pGjwGARJbNFzWtGgAAAC3NELh4Rsswvbck//pVAbiQNQWAf5y+AwAAAABTm6HduU1zmZyu9z7rbYILBMij/S23/QUCDCXfAQAAAIB5iVrggEm2ISe5TIBYk9xsJ7lMgBHkOwAAAAAwqdnandmul8Gm2oCc6mIBrjfVbXaqiwV4gXwHAAAAAJiFgocnTbj1OOElA1xjwhvshJcMcJx8BwAAAABmNG3IMu2F87xpNx2nvXCA80x7a532wgF2k+8AAAAAwHQmT1gmv3w4wG4rAKNYUwA2yXcAAAAAYC7iFTjAXqMZABjFHdUMAPxMvgMAAAAAE9Hu3JkHdrHLeGceAF7nXnpnHgB+IN8BAAAAgFloVt4zG/zC/iIAo1hTAPiNfAcAAAAAmJSChx/ZZ/3EhAA8zS30ExMC8B35DgAAAABMQaoCe9lW/JZpAXiCm+e3TAvAF/IdAAAAAOhPu/MTM8NnNhQ3mByAQ9w2N5gcgI/kOwAAAADQnEJlm/mBA+y2AjCKNQXgHfkOAAAAAADcbjf7iACMY00B4Aj5DgAAAAB05miZPcwSt5t91t1MFMCv3Cp3MlEA/8h3AAAAAKAtVcp+5mp2tg8PMV0AG9wkDzFdALfbTb4DAAAAAAAAAACB5DsAAAAA0JPjZI4yY/Pyvv8nmDSAb7k9PsGkAch3AAAAAKAlJcpzzNuMbBk+zdQBfOLG+DRTB0xPvgMAAAAAAAAAAGHkOwAAAADQjSNkXmH25uK9/i8ygQAPbokvMoHA3OQ7AAAAANCK+gT2sk04hGkEuLkZDmIagYnJdwAAAAAAPpBAAQAAcCX5DgAAAAD0oTuBvby/fyCTCUzObXAgkwnMSr4DAAAAAE1odwYymc3ZGgRgFGsKACPIdwAAAAAAvqHggQPsXgMwijUFmJJ8BwAAAAA60JrAXjYFT2JigQm59Z3ExALzke8AAAAAAHxPFAUAAMAF5DsAAAAAUJ7KBPbybv5TmV5gKm56pzK9wGTkOwAAAAAAP5JGtWIjEIBRrCkADCXfAQAAAIDa9CVAIvazARjFmgLMRL4DAAAAAIVpdy5gkpuwBQjAKNYUAEaT7wAAAAAAAOPY1QZgFGsKMA35DgAAAABU5VSYy5jq8mz+ATCKNQWAE8h3AAAAAABozT7r9cw50JX72/XMOTAH+Q4AAAAAlOQ8mIuZcAAAAE4i3wEAAAAAoC9v2Y9i5oF+3NmimHlgAvIdAAAAAKjHSTAhTDsAAABnkO8AAAAAANCUN+vHMv9AJ+5pscw/0J18BwAAAACKcQYMAAAAdCLfAQAAAADYSztVibfpZ+BRAHpwN8vAowC0Jt8BAAAAgErkIwAAANCMfAcAAAAA4AAFVQ3eoJ+HxwKozn0sD48F0Jd8BwAAAADKEI4AAABAP/IdAAAAAIBjdFTZeWt+Nh4RoC53sGw8IkBT8h0AAAAAqEEyAgAAAC3JdwAAAAAAaMSb8nPyuAAVuXfl5HEBOpLvAAAAAEABjt7JxiMCAADAKPIdAAAAAAC68HZ8AEaxpgBwIfkOAAAAAGTnoJecPC5wjI1wAEaxpgDtyHcAAAAAAGjBTh4Ao1hTALiWfAcAAAAAUnPEC9CH7XAARrGmAL3IdwAAAAAAniSuAgAA4HXyHQAAAAAA6vMWfABGsaYAcDn5DgAAAADk5XCX/DxGcIxNcQBGsaYAjch3AAAAAAAozu4dAKNYUwCIIN8BAAAAgKQc6wL0ZGscgFGsKUAX8h0AAAAAgJcIrYLZtwNgFGsKAEHkOwAAAACQkSIEAAAAJiHfAQAAAAAAruV8CwBGsaYALch3AAAAAABe5bSkMHbsABjFmgJAHPkOAAAAAKSjBQH6s00OwCjWFKA++Q4AAAAAwACiqwD26gAYxZoCQKi36AEA8IvFi38AAACT8UQQAAAApuL0HQAAAAAACnJMQgMeRCAJt6MGPIhAcfIdAAAAAIAxnJwEAADAE+Q7AAAAAJCI/gMAAABmI98BAAAAAKAaH5DRhocSCOdG1IaHEqhMvgMAAAAAWTh6pwEPIgAAAEfJdwAAAAAAKMV765vxgAKB3IKa8YACZcl3AAAAAAAAAAAgjHwHAAAAAFLwoUtteCgBAAA4ZFnXNXoMACSybL7EaNUAAAA4j+ajE0+gT+RDMbr669cGuJw1pStrClCQ03cAAAAAIJ52BwAAAKYl3wEAAAAAGEyPBQAAwH7yHQAAAAAAivApJwCMYk0BIBP5DgAAAAAEc1ILgH10AIaxpgAFvUUPAAAAAKC4Qy8N/11PGweQy7LcVr/xAAAA7CDfAQAAADjolbdyvv9aKQ/AId5JD8Ao1hQAkllWbwAB4J1l88R2qwYAAPM6+/V9Kc/EfHJWY55GD2ardQYWROAa1pQZWFOAUpy+AwAAAPCzy17Wv/8gry8D/MQ+KwCjWFMAyEe+AwAAAPCdkNf0Hz9UxwMtLIsDeAAAAPjdn+gBAAAAACTz3xL/ftwMY+ASPjkL4APLHwCjWFOAUpy+AwAAAPBPtpd3faIWwF22+zMAdVlTAEjJ6TsAAAAAuU+7STswYAcHLAEAAPAr+Q4AAAAwt8zhzkOJQXKcsAPgG5Y8AEaxpgB1yHcAAACAidV6MVfEA8zJrQ+AUawpAGQl3wEAAACmVDeFKTpsmJhjlgAAANgm3wEAAADmU72AqT5+brebpAMAAAD4Z1nXNXoMACSybL5+bNUAAKC8ZuHLX/9EL0y+MxXPp5/X7L7NftY4YDhryrSsKUAFTt8BAAAAptHv9fp+VwQAAAAwH/kOAAAAMIeupUvX6+rO0Tuz8YgDAACwQb4DAAAATKB349L76gCYk9UNgFGsKUAF8h0AAACgtf+WKV6rneEagQm5uQEwijUFgNzkOwAAAEBfU71GP9XFFudzlObkcQcAAOAn8h0AAACgqQlzlgkvGQAAAKC+ZV3X6DEAkMiy+WZAqwYAAGVMHrL89U/31JzCMi3Pqo+Z/E7OnRUNGMKaws2aAmTn9B0AAACgHa/Ok5h2BwAAAPhEvgMAAAD0ot25mQRISrwFAADAt+Q7AAAAQCOylQdTAZTmJsadvwnA69xJuPM3AchNvgMAAAB04dXYT0xIPg5fAQAAAL6S7wAAAAAtSFW+ZVoAAAAA0pPvAAAAAPWJVDaYHMjECUy7uHEBMIo1BYAi5DsAAAAA3dm0AAAAAEhMvgMAAAAUp03Zwywl4NgVgGdYwgAYxZoCJCbfAQAAACrz8isAAAAAxcl3AAAAgLK0O4eYLsjBOUy/cLMCYBRrCgB1yHcAAACAmrwW/wSTFkexAQAAAPxEvgMAAAAUJEN5mqkDoByLFwCjWFOArN6iBwAAAAAA9LeuW//V6UT8nx01AEaxpgBQitN3AAAAgGq8EP8iE8gl1vXD//b/4RnIlQAAAHhPvgMAAACUIj0ZwjRea6pW4/UKZ56IBwAAAO7kOwAAAEAdohNIbGx2M9VhPMDv/BsAgFGsKUBK8h0AAACAKXnNmnFO7WwUPBNxXwJgFGsKANW8RQ8AAAAAYB8vwQ/333L7q4w4Xe9Pzrqmrbn/lGYzuSzKJL6z/7ZsWQRgmzUFoBT5DgAAAFCBF5Qhn4vrk3XtVvDA/z1XUj6+yhIJwIM1BaCsZfUWDwDeWTZfCrVqAAAQxuvI53EAz8laFiexzw7bTKkn2Z/Ndqsfe/udZPasWcBOk9wVH6wpT7CmAMnIdwD4QL4DAEBGk7x8HMgr12dq05o8ZHhq2GNWM8xkIlPd6k+96/aeSQsWsEfvO+En1pSnWVOAZP5EDwAAAABgU++XjOmuR2XyXpLiJMkwXtTvrwe/+7uevlloMxJgEtYUgF7eogcAAAAAQLT/Fi/Ns0eqaGZd5S+UcuVt9v6z9K8AXVlTADpy+g4AAACQmJeJIYd1zdXu3CUcEnwvJJHUZQK0ZE0BaGpZPccF4J1l862LVg0AAC6l3bmYF+VP0ON4mOTPBUtPcvK5vU7jG36GW2uz6c0wpUBmzW5672W4ATab3gxTCvCP03cAAAAAuN1u7V6LT6B0VvKQvy/JP8INPf6S8KMkm4JJhgHAK5LczJMMA6Aj+Q4AAACQkpQEEqhSxlQZJxP5u+ba4Ew1GAAOsaYAzEG+AwAAAMA/qine0cRwkX53npz7mjlHBTCWNeUaOUcFUJx8BwAAAMin38vuzMeHIl1MbEQWmXc0M49tP/9IAOaR+b6deWz7WVOATOQ7AAAAQDJeQo1l/rndbjVrmIpjppv8e5n5RwjAXf47dv4RApQi3wEAAAAAPqjbwVQcuYOa+qiyi1llnAAzq3KvrjJOgArkOwAAAEAmjn7JwKMwt4oFDIW1ueHU2r+sNVqAnawpIWqNFiAx+Q4AAAAADFb3PJUG7U6DS6CeijuXFccMMIOK9+eKYwbIR74DAAAApNHm/bINeCyoTMHDperuWdYduUUK6KrunbnuyK0pQBryHQAAACAHL5tm4xGZj+olSt3jmii8WwlANtYUgLnJdwAAAP7H3t0ltw1cixolUhqlJ3PrTkbTxHlQrMiSSIJAA71/1qpT5yGJbRCk0TL64wYAUK3dKfZy4Cy2igEYxZoCcIx8BwAAAAjAoBcKyThJpWTsUiyDBuYAACAASURBVPJFVZP94l9jn7LGqwCwpkRQ41UATCLfAQAAAOCO7LsgAOeptENZ6bUAZFTpOlzptQBcS74DAAAAzKYRgakKT6kp/NKYzN7kdH54AMqwpkxnTQFikO8AAAAAcJ972dUJXILI+My1vkrus5Z8UQDxlbz8lnxRAOeT7wAAAABTqUOAM+mT4nL9j8ZuK5CXNSUaawrA6+Q7AAAAADxkO+QVuWaoNElbmrxMLmI/EoBRrCkAfCHfAQAAAObRhQCQSPl91vIvECCO8pfc8i8QYDT5DgAAAADPCK0qajWTptWLhUPstgIwijUF4BXyHQAAAGASRQjAF7mevHZUxiXAHmQ0GT9FwBkyXg2sKdFk/BQB5ch3AAAAANjAHe0NEuUXDafRNHzJjNRqn7XViwW4XqvLbKsXC3CMfAcAAACYQQsC8whZAAAAIBT5DgAAAADbiK5ITrfETg0nBzR8yQDXaHiBbfiSAXaR7wAAAACXU4HAPBIWYBO7rQCMYk0B2EC+AwAAAAADLLK0DILXS10+RbkiTjuOAJFZUwCoQr4DAAAAXCvXHXa+8fYlFzxegXCa77PGf/lWJSCR+BfVU8V/+dYUYDb5DgAAAAAAAAAATCPfAQAAAOAVvpaaltE7H5wHtoo/J+ACTgLAEC6nNycB4An5DgAAAHAh5QdAcxYCAEaxpgBQiHwHAAAAAI5awm8eGTnzVeSzEf+z1IUJAZ+cCmJYlp3/B/O5kH5yKgDuk+8AAAAAV/Ht2DK8lQAEYUkqbUiFI+UBtrKmAFPJdwAAAACguMjDZmZxTnjEbIBvnBAudGpto+NhApfQb5wQgDvkOwAAAMAlfJGxGG8oADDUlWGNjgcAiEa+AwAAAACHBN/8M2aGQFKUf6YC/Mpp4TRzSxoRT2LWlLycFoDfyHcAAACA86W4tw40EzZsspEMNBEnnYlzJABAW/IdAAAAAHZRZQH1mAfwgJPDODFzmZhHRWIumw84OQA/yHcAAAAAoKywA2aCcH4ALhY/kYl/hABASfIdAAAA4GRmtACQgkkASflJI49EWUyiQyUoa0pS1hRgHvkOAAAAAHu5ux17e89oGWJxxSjAbjR7ZRxpk/GYG7GmFGBNAfiXfAcAAAA4kxvrQGwiJ/7LJiKcJnUEk/rgmcaaAsDr5DsAAAAAHKDQghPYLSYue9K8osYAmxqvAiKypgB8Id8BAAAAgIIMlQFgrmLJS7GXAwBEI98BAAAATmMuC5CB1Anf/n+N08UGJWOXki+K8VwkX+J0Afwl3wEAAADgmMadVthtPD0K4TS+UHAFH7BIaj9qqvBLy8RfeU7lAwZMIt8BAAAAzuGmJwAp+N4/jNOhbqndJ3GUNQWAveQ7AAAAAEB35hXBa+xP85tWUUurFwvnsqYA3G43+Q4AAAAAAxi2FIkSpQYbwxexZQiDNLxqNXzJPGFNAeAA+Q4AAABwAjEHAEAbbUOWti8cABhOvgMAAAAAe8TcsTN6Zzen7kRhm05jEo5w9vgr5oJ4meYvfwJrSknOHoB8BwAAAIAxwm6lANCBZWgS8crNSYB6rCnADPIdAAAAYDT3OgGgA8MS2pOtfHIq4ChrCtCefAcAAAAAivD4p4OinUCbweeyTQjHuEZ944S0Zk0B4DD5DgAAAACDGLwEAD1IVQAAxpLvAAAAAEMJOOjBtiVsZV2ozcCJliyC9zgzp7Om1GZNAXqT7wAAAABABdEe/JSU09iFDULYS6HymPPTkTUFgBHkOwAAAAAAADynTdnCWQIAdpDvAAAAAOOYZo/PABCfMQljOZ9tqFK2c64acQ0cy/kEGpPvAAAAAEB6HvkEICE9lR4F6MWaAlxOvgMAAAAM4v4mbdjCrC1UC+XDBpCUCzgA8BL5DgAAAABDCbmATwEvCJ7KcQZntTolyj7O22DWlCacVaAr+Q4AAAAA5BZqWgwAxWhQjnD2AICN5DsAAADACAG/CwsAwDHqEwCAa8h3AAAAABhNzkVyBhqV5Xkc53FuK9LuDOE0luW6dx7nFmhJvgMAAAAAiQlNACA4BQ8A8JR8BwAAAABeYAeOi/nIwQuMfxvHxQfozpoCXEu+AwAAABzmtiZQjrFGA0RbHTyJAzbT7gznlB5lTQGgOvkOAAAAACeItsUCwNlsZlchNDmJEwsvsKYA/ch3AAAAACArE2IAAACgAPkOAAAAcIwhKwDE50v8sI0JMadyeouwpgBwAvkOAAAAAGxl160Vw43gZba0k7PMXcBJhq2sKUAz8h0AAAAAzmEy08nEJYTmCgDAKNYUABqQ7wAAAAAHuJP+qz/rf/8PYASjGo5yQW7FDyd7udRcxqnOzZrSijUFuNDb7AMAAAAAyOzx7fuf/637vwBAPIKSiy2LKXoAwD/kOwAAAAAvOvKN289fq+PhGHt+QFB/VmscAGNYU4BO5DsAAADAXt1upI6dk9+k43lfPF+A1NbVRIr8XIXgGRe6KQzgScmaAsBp5DsAAAAAD519j/7j968d8VRhdxOAeqxuAAARyHcAolv8AxoAAGa58su1Ih6gElczgA0M4NnEmgJAD/+ZfQAAAAAAIU0ZjG8aP9vY6mvIt3vIxHKWh2sLEJ01BWhDvgMAAADsUvhbsH/WmfeI5/7pZyj8UaEHsVRuxa6oQDkKqkysKQCcSb4DAAAA8FecdCbIYQAAdQlHAADikO8AAAAA3G63eMVMtOMhDMNgAJ4w+G0D7U4c3gsIzZoCXEW+AwAAALyu3h3MmK1MnGlA2FqDjFxCJ3Ly4RV+zEjAZW0iJx/oQb4DAAAA9BY/kQl+eFvU670AIDOxCABANPIdAAAAoLEsZUyW44SiPLDsNYo9AEaxpgDQhnwHAAAA6CpXE5PraDmNjgSAg4zeicn7AgDNyXcAoluvNfvlAgCQQY2vwGasYTIeMzCOnd3XuGZO5y0IyZUE9nBBm85bADQg3wEAAAD6yXvzN++R16i+AABOI64CgM7kOwAAAEAzeQsY5rGdhnm1QAGWMwCAsOQ7AAAAwCuyz1Ap0O4UeAnspSCBrVwqyf4TC11JrCKypmBNAS4h3wEAAADaKHPnvcwLAeqxvwVR6ULIx5oCQCfyHQAAAICEFDwAxGe1gtcJreB31hSgOvkOAAAA0EO9u73pXpHvTwPAJIoQAIDg5DsAAADAZnnzi3Sly0ZVXxe/Wb3bs0V4C2zAb+LaCCTnah+INQWAq8h3AAAAgOrccwcAGtOCAADEJ98BAAAASivf7pR/gQHY9QTYzzoFu/jxA35hTQFKk+8AAAAAJOcuNgBwhwoEACAF+Q4AAACwzXvCzR9dSzQZP0XAdhH+jrvyA1V0T6+sKQA0I98BAAAAimp1t73Vi21p9Q4DvCrC3v9s3fsPgFGsKcD55DsAAABARQ1zloYvGS6nowIAAOAM8h0AAAAAAOA0AtNJjN4pwJsI31lTgLrkOwAAAMAGuUaFt72l2/aFn8m2GdH4TAIAANQj3wEAAABqaZ6wxH/5uVKwGDywCbaKfw2Eq0j9yvBWTmNNAeBa8h0AAAAAAAAAAJhGvgMAAAAU4juyNycBzmUY0l1ma0EY5rWQnjUFgH7kOwAAAMAz7p4DAMAkeiwA6EC+AwAAAFRh6swnpwJoyKUvMu/OhaQeMICrVmTeHaAo+Q4AAABQgnu4iZjn9AqPagLYz4pDFaosmM+aApxMvgMAAABQkZ5pBFtlAORi5QIASEq+AwAAADyU4iuGUhWgE9vzAAAAxch3AAAAAIpSNcE5PNEMgOtpNwGgNvkOAAAAkJxI5QEnJzmZCGlMH9XmcgfyDsqwpgDQknwHAAAAAAA4me1wOEyhBf9lTQEqku8AAAAAmblv+1TMUzT9S9UAUIuwAwAgNfkOAAAAcJ/GAgAAAABOJt8BAAAA0oo5V4YqjDGANCwHtGfN6sN7fTprCgCTyHcAAAAAqrMJkdPqfQvMuwMAAMBA8h0AAAAgJ0kKAPCUJ4ECMIo1BTiTfAcAAAC4w63JSgLWTj5gcICHp5BSwMWoBBeEbrzjcLtZU4CC5DsAAABAQu7VAsShxgNgFGsKAF3JdwAAAAB60DwBJbm40ZtBLDCSNQWAeeQ7AAAAQDbuqtPA6mMOANwh2wKAeuQ7AAAAAG0on2AciRUAAACjyHcAAACA37xH/UqvAIVL+FI7APFZrQAAypDvAAAAADBJ2EoMACA28RYAFCPfAQAAAPIweuc45xCoxDUtHW8ZEJYLVDreMqAW+Q4AAAAAAHsZowWTGL5CQdYUABqT7wAAAAA/uG9em2+phrd6i9jAzj1AcxYCAKhEvgMAAAAkIToBAHao2CXrNgDmqLimAEHIdwAAAAAA9jAnCQAAgCHkOwAAAEAGRu+MFed8hvz2qpEGkEOcSxnAJH5oGcaaAsBs8h0AAAAAAIA0FBsAAPXIdwAAAIB/BZyG4ruwdOJ5TEBxlnUARrGmAIXIdwAAAABacqcbAMhjXV/+vyZMYwKAGt5mHwAAAAAAADkFHNgG1bVqNQ4mOJ+/vNVJS8yaAkBv8h0AAAAgNkNiAACaGTs7R8cDAMTn4VkAAAAAXUmj4LC5D2dpvQ/tCgYVnf3cq6oP1Wq9HAxhTQEgAPkOAAAA8IWR9VzPpw4AtilcaVwZ1lSNeACA1OQ7AAAAQGC+CHs2Z/iHuTujdhMB6GZWTGPNBQBCke8AAAAAAAAXuj4eNektqrkNjTE8UIE1BahCvgMAAABEZTAMAMBfxZ6cFSedCXIYBxX7eABAQ/IdAAAAAABS0XdCctGKmTgtERNYUwCIQb4DAAAA0JsdCwDgKpFDmbAHBgB0IN8BAAAA/nqPNHNfU9JKqM8evKjvdq+/uXChGo9Gin/BjH+ED+T+kFhTAGhPvgMAAAAAIaTeMgSAx7Isc1mOEwAoRr4DAAAA0J5ZRwDAmXI1MbmOFgCoQb4DAAAAxKMmAdgm96NSgG2y/03PWMNkPGYAIDX5DgAAAAD8V/b9UWhB4gmp5O1gMh65n2ReZk0BIAz5DgAAAHC73W63dzf7e7N1AcCVrDs9ZCxgvsp+/NCFNQUoQb4DAAAABOPeKwDAX3nnqWhfAAC2k+8AAAAAABxiixrgmzIXxnQvJG/vBQDNyXcAAAAACKD949vS7Q7SXfu/s+TjQ3uhYotasZcTkb+epONDC5xAvgMAAABE4slZEzn5ABBMxkkqJWOXki8KAAhFvgMAAAAAQBJCQ4itcOZS+KX1ZU0BIBL5DgAAAGD0NwAAFJFxaBMAIN8BAAAAwvD9V6ay1wVAKOkWpvLzacq/QABgIvkOAAAAAH8pqAC4jEWnliZpS5OXCflYU4D85DsAAAAAAImlm88B1CNqAQA4SL4DAAAAQAzvfRsEu54AkEWKVVvZCQDpyHcAAACgvSDNhGnnQGYpdnOBRBLlFw0vgA1fMgBwNvkOAAAAAF/oqICwXKAgHiELWVlTAAhGvgMAAAAAwCuCjG0DmEe3NIw1BQBut5t8BwAAAAjBl18BAP7K8uQsCUtkWT5FAMAH+Q4AAAAAANCAIR9DaXecAWjNmgKMJt8BAAAA4F8thyH5hjoA8CoFDwAwinwHAAAAevOVQZjNzh/QV8tgtAaLFxCONQVITr4DAAAAzOY2K5/0ZMA9FgvaiD8QTrvzVeSzEf+zNI01BYB45DsAAAAAAANE3sEFAAAgMvkOAAAAAAAAm0gVf3JOAIDj5DsAAADAVAbXx+R9gVQ8HgUAACA1+Q4AAAAAAJu9a4XgRMFrPGNm7gl7ZoJ/oqwpAPBJvgMAAACNuV0OAAAAALPJdwAAAAAAAHgi7ICZIJwfAOAI+Q4AAAAwzx+7HIF5dy5hqw82cUWih+jPOYIarCkAhCTfAQAAAKA726UA09hHT0JvuoWzBJNZU4DM5DsAAAAARPIupQEAGEamDAApyHcAAAAAAMYwdwEoycVtO+cKANhHvgMAAAAAAPQQeMabESkAyQReU4CM5DsAAADQ1fRbjX98NxkAIDrjZAAALiDfAQAAAOAOiRUAwIsETwDADvIdAAAAAAC2mT65DbiWEqWGoI9ms6YAwBfyHQAAAACYw54oAwXdmh3CJDAaqPxXuCVLfFzWFACiku8AAAAAM7hvDgAQmwYFAOAy8h0AAAAAgvEkBQAAAKAT+Q4AAAAA9zWYk+R5JQDwk9E7B0U7gX7gAYDg5DsAAADQkukmAOeItl8LCTRIRQG4iDUFSEu+AwAAAFzOHVUAgL8CjkVRIgIAXEy+AwAAAACQnr12gGhcmQGA7eQ7AAAAAAC52SEGAABITb4DAAAAAJBY8XbH8xbhcsWvKtcKdTIDPqbtatYUAAKT7wAAAADwkH2Oc4TazyMvHyTITlEBAMBNvgMAAABcTQsCMMjV7c67ygDqEwVyEWsKAPxLvgMAAAD9uFcOkJ8tdtjJD0Jcy+UaKrOmAOPIdwAAAACIx31weMhmMAAAQCXyHQAAAACATLQ7UMYSrFZ1eSkv2kcOAPgk3wEAAAAu9MemELHYxOIMp+5/21ynJj8hUJpLN1zKmgLkJN8BAAAAAMjBBjBwHlcYAICJ5DsAAAAAPOMLrBBAx511Fx/O4HMFPfm7zxl8roBx3mYfAAAAAAAAj3QMd+Ak9lkBGMWaAgxl+g4AAAA0877MPgIAXqDdgWGC7bMukX4oc6k5mzMM1QRbU4AC5DsAAADAVdzfhL/s4bGRjwoM4+cQuN1uwboxyMqaApxAvgMAAAAAEFGsdsfwNlKzzwqhWFNIzZoCnEO+AwAAAEBI9nXoLVa7A6nZZ33GBecazjNUYE0BTiPfAQAAAGAD96nhQrZ4oTwPMAIA4Cv5DgAAAABAINodGEl+CsAo1hTgTPIdAAAA4BJudAKd7E5wtDswkh8/NnDZacjwJ9jDmgKcTL4DAAAAnby7VQ//Y++KaGyi/8MmWTfD33EfIeJxnZ/GBaEbawqQkHwHAAAAAGA+e7owkn1WAEaxpgCXkO8AAAAAAEym3YGRwu+zxhn/5uID8ET4NQUoQ74DAAAAADCT7XMYyT4rsbnmQybWFOBC8h0AAADgfG561uB9HMS+HZ/W1ecBhrJUATCKNQW4lnwHAAAAAGAC4Q4MZp/1Ra5CncV5ghsEZU0BLvc2+wAAeGLxDykAAAAoJ9mu+bu7E4RnnxWysKYQnzUFmMH0HQAAAACisrtDUcnaHWAoX9bDKgAA/CTfAQAAgDaUEAAB2LWF8YxJeJ1rEcDvrCnAJPIdAAAAAICL2C/fys4Z2/m0AI+5SrCdTwswj3wHAAAAOJkboEBLP0sd7Q6M58cMAEaxpgBTyXcAAAAAAE6n3YHx7LPu5Yo0XYS3YPFkXfjKmgLMJt8BAAAAYDM3tWGXCNu0kMBLq0zOJUkwAXCRBmsKUIx8BwAAAICObKByGe0OjGefFYBRrClADPIdAAAAAICzaHdgPPusAIxiTQHCeJt9AAA8sV57n2/x/VMAAMZyMxRoTLsD4/nR4jCXpiDW1SxAmM2aAkRi+g4AAAD08G5zAEKwaQqwn31WAEaxpgDByHcAAAAAAIDw7LPCaMb/0Jc1BYhHvgMAAAAAAHC6CKmEIXAAADHJdwAAAAAIzHPfYLrr/xr6Qjw/+VRADdYUIvCpAEKS7wAAAADwCje7AbiYpYeiDEOCCawpQFTyHQAAAOA0bowCAAf5cQKAUawpQGDyHQAAAAAAICT7rEOZ9QK0Zk0BYpPvAAAAAAAA8dTaZ12W2UcA0FmtNQUoSb4DAAAAAAAEY5+VHqaPRBKW0YI1BchAvgMAAAANvLsrDwBk8LHDap8VgOOsKUAq8h0AAAAA2vFFc4C47LOeY/qUF4AJrClAHvIdAAAA4BzukwIAAADABvIdAAAAAF6kzdrL5AMAAADgJ/kOAAAAAADAiTy0kQfUvQDATb4DAAAAAEAg5nvBCQQiNGVNASAP+Q4AAAAAsb0bWQAAcBbToQAgAvkOp1iWZfHjHgAAAABkp58DYBRrCgDc9zb7ACji11jn53+4GtAJAABwPXfJAQAAACAw+Q6HvDpi5+N/L+IBAACo749/+gEAhOCWfHzr6glWANCdh2ex3+7HY3m0FgAAAAAATbgdDgDAU/Iddjre3yh4AAAAAAAAAADkO7xs4OwcY3gAAAAgK89HAwAAABjkbfYBsMeQ5GXd9bTbM2qbZVn2HQwAAAAAAPCAu+9ssSw+KgAwmek7hGAGDwAAAAAA0JZ6BgCak++kdHxWTZzROwAAAAAAAAAAncl3strX36x/7fi1Z7c72iAAAIA6/vjuMKG5CQFxWUEox6ID01hTAEjlbfYBcIXj03quaWuWZTl+qAAAAAAxue0BAAAA/Eq+U9moFMZcHAAAgMTe/ZsOAKAp5SgAQBYenlXT7idknWH9zb3/sVQIAAAA+IUQDQAAAKjL9J2CxoY7u3uax4fx8d+KdQAAAAAgLuUcwIXW9VZ528SaAgAPmb6T1a/hS5yhOxsP49cD1vQAAAAAAABcyeYMAMwl36njjHBnX0nz6pEESY4AAACA1/zxL3oAeGRuD+HWOwBAIvKdIvK2OwP/aAAAAEKQdHAGnysAAACgLvlOSt/qljjTa3YfSZyXAAAAAISj3QEAAABKk+/wux3zbw4mOAoeAAAA4BfaHQAAAKA6+U56QaqXIIcBAAAAlKLdAQA6sdkCAG3Jd/jFjtE7AAAARPTu33dkpt0BgL1UIAAAuch38vna1pwx8+b6x2b9+vtIiAAAAKA17Q4AAADQhnwHAAAAgGC0O9CTv/vU4juqpFPqQ2tNASAb+Q7/mDh6BwAAAOB2s9cCAAAAtCPf4RDtDgAAAP8QXnBQ3Y+QmygAAADAPfId/mfH6B0AAACgtbG1zSXtjvsfAEBkkl8A6Em+w35G7wAAAADD1J27AwAXc/MeACAd+Q7/FW30jjYIAAAAGtHuAAAAAI3Jd7jddrU78hoAAABgDO0OAAAA0Jt8BwAAAIB5tDsQ1nuscd2QS7B59zCbNQUAnpHvYPQOAABAUW6RE592BwAgEuUZAMwi3+Fl57U7O0IiAAAAICvtDgCcwNdvC/AmAkBD8p3cjvcuihkAAABgAu0OAAAAwF/ynXwGDr8J+9gsD+cCAABISZDBRj4qAAAAAF/Id9LbPT4n2tydaMcDAAAAnEK7AwAAAPAv+U4Fl4UvhuIAAAAA372U42h3gHtcHwAYxZoCQELynZQOZjTLskR7bJbROwAAAFCffRQAenDDGwCAV8l3ithe5AQMZQIeEgAAADCYdgcAzmeGPgBAUm+zD4CRPjqYe2NyjlQy543e+XlUHtEFAAAA1Wh3AABesa7GOAFAL/KdrNZ1vZfjDB9mc2W7AwAAAFSj3QEAAAB4yMOzErtmSo12BwAAANhPu3O73TzKBADIw+4NAExh+g4TCHcAAABO9+5fXgSg3QEAAADYwPSd3M4ewHPG76/dAQAAqEmowTc+EgAAAADbmL6T3rquJwUxY9sd1Q4AAAA0ot0BgMt5ViMAQF6m71Rwxoycgb/nsizaHQAAAGgkcLvjFgUAZ7PWAACwg+k7RQycwTMq3JHsAAAAQEeB2x3gBe9u7gFMtq5VajBrCgBsYPpOHeu6Hi9vDv4OyxdHfpMjxwAAAABc7TPZ0e4AAAAAvE6+U83u/uZ4/TMwu1HwAAAAQD7aHQAAAIBdPDyroM8KZ2MEM+ppWQAAAEBf2h0AAACAveQ7lX3tcpZlWdf14/9f8McBAAAAAAAAALCFh2d18dHWKGwAAAAAgHBM8ILD3P5noG1Pd4jKmgJATvIdAAAA4DC3yAEAAABgL/kOAAAAAADAALlnlgAAMI98BwAAAMp5t3EEAADpeSYaAPQh3wEAAAAAAAAAgGneZh8AAAAAAAAAEIKRPwAwhek7AAAAAAAAgHYHAKaR7wAAAADAiWyDAXA2aw1D+CABwEQensXVlmW53W6rnwEBAAAAAAACsGkDANOZvsMcy7J8dDwAAAAAAADMot0BgAjkO8yk4AEAAAAAAJhiXbU7ABCFfIerfXtsloIHAAAgvT9u+QMA3Nzt5gzn5TXCHQAI5W32AbDHz+RlTfVD1rquX1/Csiy5jh8AAAAAACAv2zIAEI3pO8xhBg8AAAAAAMDFPDALAGKS7xCFggcAAGCMd/+8AuAYSwlAURPCHWsKAGwj32Ganw/MUvAAAAAAAMBLTFJhIx8VAIjsbfYBAAAAAMAVfG8IAOhJuAMA8Zm+w0wG8AAAAABAd3/sKgOcqFe7Y00BIC35DuEoeAAAAAAAAI7r1e4AQGbyHYhFvXTPsixODgAAAAAA3exLcNZVuwMAmbzNPgDgvz7blGVZfj5WrJt7pc7P/9y5AgAAAACm891DQnHjHADSke8QUcN+xVyZDzvOw+cv6faZAQAAAACAn9wsB4CM5DswmXDnw/Hz8PE7iHgAAOBqf/wQDgAAIbhBDgB5yXeYqXm50vzlf3p6Hn4tch4/XUvEAwAAAAB04FYon3wYACA1+Q5MINz59OBUPE5wPv7bBxGPggcAAAAAgCbcEQeA7P4z+wDo63HCUjVwWZal6kvbYXe7s+V/5jwDAAAAAFDeump3AKAC+Q4T9ExYer7qB463O0//x044AAAAAACFCXcAoAz5DpfqmbD0fNWPjWp3nv4SZx4AAAAAgJK0OwBQydvsA2htYFigUYjJ+/Krse3O5y+899suy7L7twUAAICD/JMUADhuXW9fb4H7AQMA6jF9Zw7jWMrzFt9zRrvz9Jd7LwAAaOTdT78AAFCZdgcASpLvzGEWyFN5T5Fw54GJZ8abAgAAAACcxN1HLpN28wQAeMLDs6b5yFMkBZV8ezd/LZC84/cMCbYePEILAAAAAADyEu4AQG2m70yWd8YM96x/zT6QcKaHNdMPAAAAAABgIPehAQDKkO/MJ/UoY8tb2fa9fpzODDwtj38rBQ8AAAAAAAAApeBPlwAAIABJREFU0ch3omhbdfzK2QAAAMjhj3++AQAAAMBR8p1ANCtUdfHMGwN4AAAAAPZ7d/MEgEGsKQCwmXwnFg/SusmY+vGOAwAAAAAAANCZfCeizjVD59fOZQzgAQAAAIjCcxgBGMWaAkBm8p2gelYsPV91eVoZAAAAAAAAAHhAvhNXqwdptXqxfHXS+/70txUVAQAAAAAAABCEfCe68lGLcKc2lQwAAAAAAAAAPPY2+wB4bl3Xeg2EZAcAAAAAgALK3b8HAGAC+U4OTwseNQy8alkWf3EAAAAAgKTc3QQAqMTDs9LQGZDO3KlR/soAANDRu69+AwAAAEA+8p1M5AgU4yMNAADAZTzZBAAAAAhLvpOM3AEGmjsfCAAAAAAAAABu8p2MFDykoIwBAAAAAAAAgC3kOwAAAAAAAAAAMI18JyUDeAAAAJjvj3+cAgAAAMAA8p2sFDwwhId8AQAAAAAAADCXfCcxBQ9hBWli/B0BAAAAAAAAID75Tm7qBPLy6QUAAAAAAACA2+32NvsAOEoDAQAAAAAAU8QYRA4AQHqm7wAAAADAKXzrCoCTWGIAAIqR7wAAAAAAAAAAwDTyHQAAAAAAAAAAmEa+A3S3eDw1AAAAAAAAAPPId4DB1DAAAAAAAAAAsJ18BwAAAAAAAAAApnmbfQDwP59TW9Z1nXsk8I2RQgAAAAAAAACcxPQdAAAAKOFddA4AAAAAKcl3AAAAAAAAAABgGvkOAAAAAAAz/FlnHwEAVVhTAEhOvgMAAAC8zs1xAAAAABhEvgMAAAAAwO12u93el9lHADy36qhJwZoCAK+Q7wAAAAAAALxsEScAADCIfIcoFv/QAQAAAAAAAAD6ke8AAAAAAAAAAMA0b7MPAG43o3cIb+30NGl/HwEAAAAAAACuZPoO82kFAAAAAAAAAIC2TN9hJuEOAAAAAAAAANCcfOcU36qUsY/dkbwAAAAAAAAAAJTh4VmDLcvyM6/59T+Eqsb2agAAAAAAAABQm3xnpMeNjoIHAAAAAAAAAIBv5DvDbKlzhhQ8RpvAWP5OAQAAAAAAADCRfGeM7V2OGTwAAAAAAAAAAHyS7wAAAAAAAAAAwDTynQFeHahzfACPZ/0AAAAAAEBD9gcAAEqS7wAAAAAAAAAAwDTyHWA8A6IAAOBq70fnvAIAAAAAs8h3spJHkN3xp8gN4a8SAADs8ccP0gBAdzFucAIAUIR8BygrSCEEAAAAAAAAAA/IdyYYNe3D1BAAAAAAAAAAgOzkOwPIaAAAAAAAAAAA2Ee+czWtD034qAMAAAAAAADAFm+zD6CIdV2XZQn758YJKaacJbgnzl8NAAAATuWGBAAAABCZfGeYpyXNxaFAzC7h51EJegAAAAAAAACAzjw8a6R1Xe9FM9qdexIdKq96+uaKtwAAAAAAAADA9J3xri91vjUQ6YKYWY8eo7anH6p0f1MAAAAAAAAAKMn0HUIQUgAAAAAAAAAAPcl3gBMJswAAAAAAAADgMflOBTUKiRqvgix83gAAADibf3oCMJzFBQCgKvkOMNOyLIl+WwAAAAAAAAAYTr4DnCvgnJuAhwQAAAAAAABAW/KdIuQIAAAAAAAAAAAZyXeA0z3Oy4Y/6Orxb6h1AwAAAAAAACCUt9kHwDDrug7PIGjl18+P2AUAAAAAAAAATmX6DnC73Z9YM6oJC5IBBTkMAAAAAAAAAPhk+k4p2dOE7Mef1+NGZ1mWs9+agX+EGVQAAAAAwNnchgQAYCzTd6C7Lb3LkCZmep41/QAAAAAAAAAA4Cf5DnCdBwHNkELowW+i3QEAAAAAAAAgJvkOtLY9mrngoVSeewUAAADQyB/ftgJgEGsKAPnJd+BSCpXzpuAYvQMAAAAAAABARvId4GpnPEJLuwMAANfxxVYAAAAAGEq+A9cJ9aSqucYWPNodAAC6ey/+LwgAAAAAqE2+Axd5tUq5puCZWLc8LniGpE7aHQAAAIAX6EEBGMWaAgAvept9AFDckQrn89dGyFDOOIaP3/PeKVqW5fEfKtwBAAAAAAAAoAD5Tne74xJ5xK9OGpnz62876i1Y13Xus7oeHMC+A/PhBAAAAAAAACAR+U5HQ1qNr7+JWiK7pwXP2W/x4zE8r/4+AAAAAAD1uP0JAFCYfKeR8yashHrG01x5z8C9gufKV/T5Z+34rOY98wAAAAAAAAA0J99p4bJHI+l4Uovzrn09knuf3jhHCwAAAAAAAABHyHeKuyzc+fXPFVhwnE8RAAAAAAAAALXJd8qaFe58OwbtBQCQwPuzH5z++JEGAAAAAAA4i3ynpgjtzgdjeACAyZ6mOQd/E2UPAAAAAABwjHynoDjtzicRDwBwkSGxzsE/UdADAAAAAAC8Qr5TSsBw5yvP0gIATnF9svPY1+OR8gAAAAAAAM/Id+oI3u58UPAAAGNES3bu+TxOHQ8AAAAAAHCHfKeIFO3OBwUPALBflmrnJx0PAAAAAABwh3yngkTtzgcFDwDwmrzVzk86HgAAAAAA4F/ynfTStTsfFDwAwHOVqp2fdDwAAAAAAMDtdpPvMJGCBwC4q3a4883HixXxAAAAJJHzS7UAAIQm38ntgtE7GwubfUei4AEAvmsV7nwl4gEAAAAAgK7kO4md0e7sjmm+/cLtx6bgAQBut8bVzjciHgAAAAAA6Ee+w/5kZ+Pv+TTlUfAAQGvCnZ9EPAAAAAAA0Il8J6vjo3cuK2Y+/qALnvMFACQj3HlMxAMAAAAAAD38Z/YBMMG6rtdPu3n8h4p7AKAd7c5G74tzBQAAAAAAtcl3Utodu0wJd74dwL3/SsEDAF3oUXZwxgAAAAAAoC4Pz+pibrXzlWdpAUBfGpQjPEsLAAAAAACKMn2nhTjtzqdfD0nTAwCVaXeGcBoBAABainebHwCAkUzfqS9gu/NhXVe9DgC0oDgZyxgeAAAAAACoxfSdfF5KXsK2Ox9+Hp6gBwBKeV+0O2dxYgEAAAAAoAr5TmXB2x0AoDh9ydnUUQAAAAAAUIJ8p6ws7U6W4wQAXiMruYxTDQAAAAAAycl3CMfzswAgNyNhrueEAwAAAABAZvKdmnKNtMl1tADAIzqSWZx5AAAAAABIS74DAMAgCpK5zD0CAAAAAICc5DsFZRxm8+2YPT8LAJIRjsThjQAAAAAAgGzkOwAAHKMXicY7ApzqT75vjAAAAABAcPIdAAAOUIrE5H0BAAAAAIA85DvVZHxyFgCQlUYkMu8OAAAAAAAk8Tb7AAAAyEkdEt/74hk3bS3/f87f0PX/+cgBAAAAALzM9B0AAF6n3cnCO9XSrHaHafxNBwAAAIDkTN/5P/buKLlxHNkCKDnhVWozFb0Zb5PzUV1ul21JpAgCmYlzor/ezLyWAJopEVeZ+Wzbtq71H86u62oQGABE5JA4HT14AACgAN/FruMbEzAbNeU6agpwgu47AADs5rt9UjaOXjT+AQAAAAB4gfgOAAD7iICkZvsAAAAAACAq8Z2UHkyVmmGuFgAwgPBHATZxDvrfAAAAAACkI74DAMAzYh9l2EquJz8EAAAAAHCU+E5WDxrwAAC0JPBRjA0FAAAAAIBgxHcAAACK0PkGAAAAACAj8Z3E7jXgWdcKj+y1FwKAEHRqKcm2AgAAAABAJOI7hFAjcgQA1Qh5FGZzuZImQAAAAAAAh4jv5Fa7AQ8AMJJ4R3m2uByhGQAAAACApMR30jNkCgBoT7BjEjYaAAAAAAACEN+p4McET6IGPIleKgBMQaQDOE0rIAAAAACA/cR3isie4AEAopDdmY0dBwAAOMJzdwAAriC+U0fSBE/8VwgAUJwETwm63QAAAAAA5CW+U0q6BM+91/bjGwEALifGAbQjUQQAAAAAsJP4TjXbtn3PvsRM8MR8VQAwL9mdmdl9AAAAAAAYR3ynpu8hnvWPUS/pszivBAD4l/QGroHM9LkBAIDaNKwHACjvbfQLqCBXEiXXqwUAAPJa/1m3X84ZAAAAAACe0H2HcL4P/wIArqXtCr+5EgAAAAAAYATxnQbETQCAxCQ2+Mz1kJDJWQAAAAAA2YnvAABMTFYDuJh0EQAAAADAU+I7xKKVEQDAYEJdAAAAAADQl/hOG0InAEA+UhqQn942AAAAAAAFiO8AAExJdocHXB40JWMEAAAAAPDY2+gXAP/RxAgAuNCt3SeNGdIt72vLFQMAAAAAAO4T32lm27Z1neAgBwAoYIb0ydI0r/P4//Mk6wkAAAAAAFxDfIcotN4BgE5qZ02GNIz5+JcWW1sNeMJLNJRq/WfdfrmcAAAAAAB+Jr5DCLI7AMDr4kRMquZ4AAAAAACAK4nvtGR+FgAQXaVYSZzUzndlcjwa8AAAAAAAwPXEdxhP6x0A4JhEgZLfLzV7iIeQEk3OAgAAAADgsf+NfgFMbds22R0A6KdAiOS2ZcrufEj6sn8rcNkQg7wRAAAAAMA9uu90IqQCAAyWPYSRN/7yQSceAAAAAADgJ+I7jW3btq5fj2RkdwAAXlcguPNZxhDP+1ptF/LTyQbSyHXDz0VtAgAAAAoxPOtysjsAwHhJzw5Tz5x6rOr7goekjgAAAAAAfiS+AwBAPIWDOx9meI9ks/1yTQIAAAAADCC+0552OwBALOla70wVasnyZtNdRQAAAAAAkIf4DgAAYczZkGbOd80JqUdQpX7xAAAAAAAXEd8BACgtUdOUySMs8d9+omsJAAAAAABSEd8BAKgrUd4ifnilA4tAANsv1yEAAAAAQG/iO5fYNo+8AQD2MTrqs+BLkSgQVtd1w6e6BXfMzwIAAAAA+EJ8BwCgqBRJi+BplSHkmQAAAAAAYDLiOwAADCKk8oDFAQAAAACAaYjvXGX7Y/QLAQCmFL/1jnjKUzGXKP6lVVqfsVMdpmiZnwUAAAAA8Jn4DgAA3cUMpgRkoQAAAAAAYALiOwAA5QTvjyKSckjA5Qp+gQEAAAAAQDbiOwAAdBQwjBKfRWNZlosHTnUYmPWF+VkAAAAAAB/EdwAA6EUM5WWWjr76p3kAAAAAAGYmvgMAUEvYwUYCKCeFWsCwlxkAAAAAACQkvgMAwPVCRU/ysozUYn4WAAAAAMBv4jsAAIXE7IkidAKnSboAAAAAABQmvgMAwJVkd9qKs54xs2K8ZPv1w3X14/8RAAAAAIAriO8AAFQRME4RJ2tSiVWlEF2FAAAAAACWZXkb/QIAeGJdHWsBOUmZXOe2RUxrcRkZFwAAAACA2nTfAQAoIVqYQ3ZnBtGuOgAAAAAAyEl8BwCA1mR3OrDINLL9unstPfiPAAAAAABoSHwHAABykuCZQ/nJWeXfIBDEpmwCAAAAgYnvAADkF2qGkUxJT8NXO9S1BwAAAAAAOYnvAADQzvA0CdCU+VkAAAAAAB2I7wAAJBen/YnszhCWvbRJBktN8jYBAAAAAO4R3wEAAE6IEyDjOM11AAAAAAAiEN8BAKAFPWAGsvgAAAAAAJCZ+A5AdFtfo98ucFCQxifiI8PZAi7Tp0OP+VkAAAAAwMzEdwAAACKSaAEAAAAAmIT4DgBAWlrv8NnAjQhyKQIAAAAAQE7iOwAAnCC7A2ntn4plfhYAAAAAwKXEdwAAoAppqkJkWQAAAAAA5iG+AwCQU4RxRcIifIhwQQIAAAAAQE7iOwAAUIhMFZnpOQQAcxEBB6AVNQWA/MR3AAB4iZgIXKZDimX7dexP+Oh/H4BlWVanSAAAAMA+4jsAAAn5RREAANCcjD4AragpAHCQ+A4AAMd5BBPZqN2RKqMF87MAAAAAgAmJ7wAAcJDsDgAAAAAAQDviOwAA2ehxwlMiVpl1aD+z/XrlCnntfwUAAAAAwFPiOwAAHCEXAlzM/CwAAAAAYDbiOwAAQCNaQwEAAAAAwHHiOwAAqYyNR2i9k4jNyil44xnzswAAAAAAriC+AwAAMBERHAAAAACAaMR3AADYRzeXdGwZaQXvQgQAAAAA0Jb4DgBAHmMnZ8EertITZFYAAAAAAOYkvgMAAMBeZm8BAAAAADQnvgMAwA7GMCVl4/hbovCNXkQAAAAAwDzEdwAAkjCTCEqTVgEAAAAAmJb4DgAAz+jgAnySqIUPAAAAAEAK4jsAAFBa//SVTlE0oiMRAAAAADAJ8R0AgAwG5iG03oEqdM0BAAAAAIhJfAcAAGAwbWYAAAAAAGYmvgMAwH1a79RgH2mtWyMfwSYAAAAAYAbiOwAAAAAAAAAAMIz4DgBAeO+aT5CNi/aIPg1muvXLAQAAAADgKPEdAADuMHEJuM/8LAAAAACAVsR3AABgAsJYAAAAAAAQlfgOAADAMFrLAAAAAAAgvgMAENv7oKN9zVqgkG6Dri4i5BTLqMIEAAAAAHWJ7wAAwBw6R7Ic8E8geyoIAAAAACAI8R0AAL7Rege60FSGNty0AQAAACA58R0AgMD0LwFYlkXUCQAAAAAoTXwHAACgsktHXJmfBQAAAABwnvgOAAB/M4SlMJsLAAAAAADxiO8AAADXMP3tIdOgADrbpFgBAACAqMR3AACiEn0A+ETgCQAAAACoSnwHAIBPDFeCWrZfl/9Rd/hXAAAAAADUJr4DAAAzkdCKQSMZAAAAAAA+iO8AAACQg9gTAADDbX4TAQDABcR3AAD4Q18WqKXbWCvzswAAAAAAzhDfAQAI6V2HCUpwJf9ECxkAAAAAAD4T3wEAgMlos0Rmwk8AAAAAQD3iOwAAAAUZaAUQwSpzCAAAAOwgvgMAwLIsOrLQ2m379x/mIC0EALzCrFUAWlFTAEhOfAcAIB6PG0hNauchs5/Os4YAAAAAQDFvo18AAABQhdQOAAAAAAAcp/sOAABSF/NpvuM67gQzZJSV+VkAAAAAAK8R3wEAAE4Q3DnC1KdWrCQAXMVHOwBaUVMA4AjDswAAgOM8gwMAAOhlXZfNlzAAgNJ03wEACOZdSwli024nvIFDrMzPAgAAAAB4gfgOAMD0RDHYSXDnHPOe2rKeAAAAAEAZ4jsAADClQ0EcwR0AAAAAALjM2+gXAAAARCWyk5DxVQAAAAAA6ei+AwAQybtZMMSg3U5r80x66pkfmmdVAQAAAIDadN8BAJibiAZfuCQAAAAAAKAv8R0AAGBZFsEdAAAAAAAYw/AsAACY1Udex6isKnoOrnogyMsAAAAAAMhCfAcAACYmuNPF+s86+iWUZW0BAAAAgALEdwAAJia3AQAAAAAAMJr4DgBAGO96SACvM7IKAAAAACAp8R0AAIALzTndqWeWaM4VBgAAAAAqEd8BAAAAAAAAAIBhxHcAAADSMzkLAAAAACAv8R0AgFndHPbD5Wae62R+VmXvFpysNh9/AAAAgJDEdwAAYnAUCgAAAAAAMCXxHQAAAAAAAAAAGEZ8BwAA4BLdJjr1HFMVlvlZAAAAAEBeb6NfAAAAADVtvzapmk5umyGMAFDcbbLEts82ANdRUwBC0n0HAGBKs31LBwAAAAAAiEp8BwAAIDGTsz7o9APEtLo5wWN+EA9AK2oKAJmJ7wAABODhApQjSvKbdBEAAAAAwFPiOwAAAAAAAAAAMIz4DgAAQFZ623yh6REAAB1sPoYDANCa+A4AAEBjQiQAAAAAAOwnvgMAMJ+b3wkC/WgRBAAAAADwmPgOAAAAdWh9BABnifsD0IqaAgC7ie8AAAC01C0+oqsNAAAAAEAN4jsAAKO9axQBFCdpBAAAAADwgPgOAAAAAAAAAAAMI74DAACQj342D3SbXwYAAN2sPuQCAJQmvgMAMJmbI3+4kODIPfJGAAAAAAD3iO8AAAAAAAAAAMAw4jsAAABUow0SAAAAAJCI+A4AAEAb3SIjBlEBAAAAAFQivgMAAEAPUkcAAAAAAD96G/0CAADm9m68C8Al1n9WgSHGu012EfpgAwAAAPAS3XcAAAAaMDkLIIXNTRQAAACIR3wHAGAms/UAAIKRPapDkxUAAAAAaEd8BwAAgJq6tUQCAAAAADhDfAcAAOAsk7MAeGAVJoTHNHUDoBU1BYC0xHcAAAAAAAAAAGAY8R0AAAD66dxAyPwsAAAAACA+8R0AAADI72awGgAAAABkJb4DADCOadxQQrf+Lp371gAAAAAA0If4DgAAAF2ZnwUAAAAA8Jn4DgDANMxVAQAAgBY237ABAGhKfAcAAOB1JmcBAAWJ/gPQipoCAPuI7wAAAFCc+VkAAAAAQGTiOwAAAPSmmRAAAAAAwAfxHQAAgBeZnAUAAAAAwHniOwAAAAAAANGtRsICANQlvgMAAMAAnVsKdWuVBAAAAABwlPgOAAAAAAAAAAAMI74DAADwim7dXDp3qQEAAAAAoDPxHQCAQd6NcQHoyvwsAAAAACAm8R0AgDncdO8AwtFYKDc5VNLa3HsAAACAYMR3AAAADjM5CwCgJalQAFpRUwDISXwHAACAWZifBYyyuv0AAAAA94nvAAAAMIz2QgAAAAAA4jsAAADHmJwFAAAAAEBD4jsAAABMxPwsAAAAACAa8R0AAABG0mSomZuVBAAAAICUxHcAAAAO0LsFAHjB6hMEAAAA94nvAAAARKQnzXVksAAYQoIHAACAe8R3AAAAAAB6kOCBSjZ5ewAA2hHfAQAAYDCthgCYR5oEz011BqARNQUAdhDfAQAA2Kvb0CVxlquZnwXAQGkSPEA8biAAAFWJ7wAAAAAAdOUAHgAAgM/EdwAAABhPwyEAZiPBAwAAwAfxHQAAgF1MzirG/CwAhpPgAQAA4DfxHQCAEd77Pqe/iQIAcIHO5QwgrQcxHQkeAAAAFvEdAAAAAICBJHj+JRUKQCtqCgAJie8AAAA8Z9BSB/2nhtlWmNamNSHBSPAAAABM7m30CwDgidUzPACYSf8ICwB9rKvYEI+4QgAAAGam+w4AAAAAwHh+vwMAADAt8R0AAIAnjFjqRvMhACYnwQMAADAn8R0AAIAohFf6k80CIBoJHgAAgAmJ7wAAAEAVNwkwgAokeAAAAGYjvgMAAAAAEIsEDwAAwFTEdwAAAB7pNlzJ5Kzf+q+D+VkAxCTBA/FtPsIDANCI+A4AAAAAQESDEzxmMgLQipoCAM+I7wAAAAAABKUHD/CF2wIAQEniOwDRbX2NfrsAEIuxSkOYnwUAnzmqBwAAKE98BwAAYLz+gRVo492RMkAPEjwAAAC1ie8AAAAAAEQnwQMAAFCY+A4AAMDPDFSaiu0G4CINYzfrWj3Eo6kbwA7Fa0EragoA2YjvAAAADGZy1nfWBADucWoLQP1AJwDM5230CwAAgGD8POs6N4GMn+n7AjCJdV02xZAWXEsALMoBANSi+w4AAAAsixwVTMZZF9lpugDAohwAQCHiOwAAAD+Q5AAAgnNkC8CiHABAFeI7AAAAAAApObIFYFmWdVURACA98R0AAAD4V4WuSzcDgQDm4rwWYCoPbvsqAgCkJr4DAADwVYUMBwAwDee1APymIgBAXuI7AAAAAAC5Oa+FUbYRrQ/9yfOAQVoAkJT4DgAAAPxH7yUAknJYC8AHRQEA0hHfAQAA+Iv0Bhzz7k8GIAqHtQB8UBQAIBfxHQAAAACAIhof1t5GjAUCoJFYg7TUFAB4SHwHAAAAAKCOQCe1L9DUDaC13HXhDDUFgFTEdwAAAP5jchaLywCA/OY9qQXgJ+oCAMQnvgMAAAAAcImBx6VOagH4TF0AgODEdwAAAACgEydnAMAo6+qjCADEJb4DAAAAX5mfBQAAlCTBAwAxie8AAAD8S2IDYCrbNvoVAACMIMEDAAGJ7wAAAAAAAEB0DWM3BmkBQDTiOwAAAPAD3ZgAAIDaJHgAIA7xHQAAgGWR1aCSm4FAAAD9DJnGKHVBK64lAAhCfAcAAAA4590jf4BwhuQJAMjIIC0AiEB8BwAAAH6mJxMAADAJCR4AGEt8BwAAQEoDAOCO/jMZNXUDGOTyBI+aAgD3ie8AAAAAAAAAevAAwDDiOwAAAHCXzkwAAMBU1lWIBwAGEN8BAABmJ58BAAAAn0nwAEBn4jsAAAAA0I/DsHnYawBSU8gAoCfxHQAAAHhEfyYAAGBOBmkBQDfiOwAAAAAAAMDPJHgAoAPxHQCACbx7ygJ3aawCAABkJFExGzsOALWJ7wAAAMAT+WJet633v1FUlJy27n8rAJSkoAAAcJL4DgDACP1PVQEAAAAAAAhJfAcAAJhXvpYqAAAz0NQNgFbUFACSEN8BAAAAACjFHB8AAIBcxHcAAADgOb2aAJiX4b8Ac2uZClVTAOAO8R0AAGBS0hgAAAAAAEQgvgMAAAAAAAAAAMO8jX4BAAAA9W2/tAdvr3//pPWf1VYCTaxr0yEUAAAAQHK67wAAAAAANLaa0gkAAMBu4jsAAMCM+jdugfre/VkBAHQlKTgPew0A5YnvAAAAXMu4pUoEvwAAAACA5sR3AAAASEku6omb9QEgM03dAGhFTQEgA/EdAABgOhqoAPBhE3UDoAUFBQCAM8R3AAAALqRDTD3iXwAAAABAW+I7AAAAZCUdBQAAAAAUIL4DADAHQ77hD61TAAAAYCeD4QCgD/EdAAAAOEYIDIDILjlnvTm8BaARNQUAfiK+AwAwiEcVMAGjnTqwyLFo9gYAAAAAx4nvAAAAE9E0BYAgVhUJgBYUlBnYZQCYgfgOAAAAHCYKBsADzlkBAAA4RHwHAADgEoY6AQCcYiYjAK2oKQCEJ74DAABAbpJSAABEsPlYCgDAq8R3AACAWZh2RFsJrqibEyQAAAAASEB8BwAAoD39YAAS0SwBAAAAGEt8BwAAgPTkpQAAAACAvN5GvwAAAHp5X01R2WW2VXoPP/2nkQRzjqAG5QYAAKrQpBAAutF9BwAAAF4kFgYAwHCrz6QAAPmJ7wAAADRmkNMQlh1Ix2kryWiuBjBCzQ8MagoAfCO+AwAwjkcV0IsWKQDAJKpNOZlm0isAl1NTAIhNfAcAAABeJxwGwBc12yQAAABwJfEdAACAloxwAgCAaVXrgAUAQC/iOwAAQHHmxj+fAAAgAElEQVSao8xDduoHBjUCAAAAQHjiOwAAAHCKiBgAAAAAcIb4DgAAANDUuzwTAAAAABwgvgMAMBPnqXAxw5uGswUAAExo9XUfACA58R0AAKAyU43ow5UG2W2yfwBAPGODWT4gAUBP4jsAAEPdPAgBAAC4Tw9RAFpRUwAITHwHAACgDWObgrARQCJmnZCMnx8A0IqaAgB/E98BAADKMs+InlxvACwiWQAAALxEfAcAAAAAAAAAAIYR3wEAAIDShjSlf9d9AmCAzRwSCMBfIgAALxDfAQCYjPNUptF5ktH2y0P6QEZth/lZAACMYngfAEBq4jsAAAAAAAAQi0gWAExFfAcAAAAAAAAAAIYR3wEAGO1m4A6kZ3JWQOZnAUAdRgADdLdV/ZqrpgAQlfgOAABQkAgFAEeNOqMyFwMAAAAQ3wEAAAAu4FetAAAAALCP+A4AwHycpwJzMNQMgM6m6KVk+C8AragpAPCJ+A4AAFBN58lZMiJ8YXYbAMDkDGQEAOAo8R0AAACozq9aAQAgFWEsAJiN+A4AQABOVQEAAAAAAGYlvgMAAJRichafjdog87MA6G/UsJ5O3tVWABpRUwAISXwHAGBKnlMAAAAAAADEIL4DAAAAXENaFPZZ/a0AAJEU7+gGACGJ7wAAAHWYWMR35mcBAAAAAMGJ7wAAALxoVC4EgIv4oTln6KIEROBeBACQlPgOAEAMN4dFAABABr68wA4ioZwxUQxLTQGAP8R3AABm9T7PoyBgduZnLYvH4gAAAAAQl/gOAABQROeohMlZAABd+QUCAK2oKQDEI74DAAAAXMZjcQAAAAB4RnwHAAAArhJrfhYAAAAAEJL4DgAAUIGQBI8ZdgYEt6pjnLMpdMAfagonqSkAMIT4DgBAGLfuT0cMNIFXyYIAAABwBQEsAJiT+A4AAABcSGsogBk4agUAAOAM8R0AACA98Qj20DNpGM3eAOrp3zr0NzWFVEwggl3UFABYlkV8BwAA4CgpELIa9VgcUnHUCgAAAPQnvgMAMDe/NAK4ngZRAAD0ZKIfAEA64jsAAJHoiwDHCUawn85JAAAAAEBA4jsAAAAAMJ5OCQCAzwMAMC3xHQAAgAO0bwEAAKCqzVdeABhEfAcAYHrvftgFcLnZp7ypNUBpOiV0paYA0IqaAkAk4jsAAMHc/MoJDpg9EsFx+icBUI9OCRCWP08AAHYS3wEAANhL8oP0hEQBAOagMRgAQC7iOwAA6BUM0INmUQCUIhIKQCtqCgCI7wAAAHkJQ/AaXZSAxww6AQCG0DMJAGYmvgMAAABcT6c32MGhHQAAAMxJfAcAIJ4hHYOdqsIzWrZwnpZRANCALy8A15ixB6GaAkAY4jsAAEBKYhCcIYwFQCt6JgFhuUEBACQivgMAAAAAAHCJGduZAABwnPgOAADAc5q10Mr4xlFDRjQCAAAP6ZYEAJMT3wEACGnI2app3wBcSqEBuIDGHgAAAAWI7wAAAPmM719CfjoqATH55T2Z6OgGQCtqCgDTE98BAACAruTPAOAsHd1gH6lQeE5NASAG8R0AAD7xwAJ+ok0LwGxMI2In5+IAlOHzDwCMJb4DABCVpsFwh84ltCKYBQAARCAPCgCI7wAAAEBv86bQtHkDAOajqQkAAE+J7wAA8DcHq/A3DVooSIM3AIBpaOsCAJCC+A4AAJDJvD1LuIZ4FhCQc1bYxQ8PAGhFTQEgAPEdAIDARnVH8MwC4HqyaAAAAADAb+I7AAAAd2nNAu0JiQK0sw3/qGIgI8BpGu/9S00BYG7iOwAAQBq6lXAFIS0AXuO0FYAyxudBAWB64jsAALGZnwVQl0QaROYQC4AyxA0BAOIT3wGIbu1r9NsFAAAA2MevDshDKhSiU1MAGE18BwCAOzy2YHpmKlHZqO5uwD5+WwEAk1D0AYDfxHcAAIAcjBniOqJavUmIAgAAAMAn4jsAAOFpkABQl1waAAAdaPECABCc+A4AAPfpjsDEtGMBAB5wEP4fvzcAoBU1BYCJie8AAAAJ6FDC1QS2AEhnU7sWPzkAaEBB+ZeaAsBQ4jsAABkM/O2RJxcAF5s0naa+wDOauwAUIyHBd8o9APBBfAcAAACmpC89POOcFYBKJEUAACIT3wEA4BkNEhitf28Sc5TmZN8BAAAAgCHEdwCi2/oa/XaB+/RIAKhr0vlZAGnpYAEAAEBb4jsAAOygAQ8AzSkuADShoAA5CYNGpKYAMI74DgAAwF9MUAIgCKd6ALSlsvCdhuwAEIT4DgBAHmPnZ/n5EYMYKkRPA8NbLnUAEjPqF/aRk4Dn1BQAZiW+AwAAAACQjBAAAABAJeI7AADspgEPQDHDf9iqsgDQhIICZGOQWVxqCgCDiO8AAKQy/JwV+uo/Tmjg7CSCMD8LXlT0nEODE75z4Aqk5iYGABCT+A4AAEcUPZkDAIjJISsAAADMQHwHAAAAGEcwFAAABtFoEADiEN8BAMhm+Pws56z0YnIWo5ifBQCH+Z4C+0RIS2jtNpwteEJNAWBK4jsAABznKUYZthKAJhQUAAAAgBPeRr8AAABgkPBHrXrhMNBEl99ti383AIhDvwQAAACuoPsOAEBCw3sILwmSHzxhB4E43JGys4MXkxfhuwjDd+BCKsv1FJeBLD50paYAeYjvAAAAAAAAAADAMOI7AAA5acDDGfYOAHbT5gTS8CkX4Agfch5RUwDoTnwHAIATPMvIyK4B0JCyAkBbE1QWmQmATiaoKUAl4jsAADATjy2A73R0A9hnda96LEJBAXZzTxvCsu+lpgAwH/EdAIC0gjzIcOCaiM0CgJwc9QEAAEBt4jsAAJwmFAIAc/IZAIjGfSk7OwjE4Y6UnR0Esnkb/QIAADjhtvkiyl4ZLxWtBpjKFqOn2kDva5TGcgAAc1hXH0K7CvUd19YDQDS67wAA0ELGaMhUbBAAQBUOXKEAf8gAAHwhvgMAQCMCImHZGgCuMFN9iXDIGur3+nOyBXC5mSoLANdSU4CExHcAAJILNWfEF+OAbAqwR5Bq4pYFwHmqCRwhmwiPqCkAdCS+AwBAU55rhGI7ALiIEgP8KEgeFCAeSanD1BQAJiO+AwCQn8cZ/MjBKgAAkIXvLwC0oqYAOYnvAADQmm/IEdgFICm3LyAkLROSUU3IYAvzSxy3uAnFufwSUFMA6EV8BwCghGgNeDzaGMv6A3AphWYQx6sAkJQiDgA8Jb4DAMA1HOyNYuUBAOrSL4GafIsBoBU1BUhLfAcAoIpoDXgW35ZHsObAy+LUEbey4GbdIJkJAArTGwYAYDjxHQAArjTrCd8A76vVBgBgvCB5UJ+NgTCko16npgAwE/EdAAAu5hlHBxYZAObg/G8Iyw7XmvjrTKjWbu518wh14UFjE9cUoADxHQCAQoL8Juk735wvZXmBetzZwrI1AAAAABcQ3wEAoAunfRexsAAAABCVtkYAwE7iOwAAtYRtwLMImlzAkgJtRS4iRKDuALm4a6VgmyIRNIG73KxSsE1AcuI7AAB05Ft0K++rxQSKc5eDO5ytdhZqwTcxS4BUQhURACA48R0AgHKC905wHHueNQSgP9VHcgL2C/6VBCJRXOgs3yWnpgAwDfEdAAC6c/53htUDAICdfHgOzgbFo1sM3OWWFZwNAvIT3wEAqCj+L5PMfnqBRQNm46YXh70IxtkqAMSnXgMAh4jvAAAUFT/BszgLPMJaAX2kKB8AvTh5BSbk1gcAMIT4DgAAQ0ml7FFjlWQCgBfUuAFmZxeA1NzEwrI1QDpuXGHZGqAE8R0AgLqypCV8wX7AwCwAAIDStnjf3TXgOS/mGga82ACAD+I7AAAEIKTyo0prkiVMBgBJxDwU5FLJzlx9/OOxSl92gKupKTympgBViO8AAJSW6wGHL9sfiuWZcl2HQDSV7ocZWf+/JctPcI6MFACvUUEAgBeI7wAAEEmx2Mpriq2A7A6k488WgGKKfcCGLgRQ4GdqCgCXEd8BAKgu4ynstI9C6qWXMl5+AHwoVpUACEJ9AaAVNQUoRHwHAGACGSMU9YIsj832fgEOcYeEn+iLAFBGzOGMCs1rwq5bzMsMAPggvgMAQGAzhFoKv8eMuTEAPlQtT7BP2MNXXuSeFoe9ALJzH4vDXgC1vI1+AQAAdHHbEn+h/f3K62VB8u7IHk32y28DXzP8vNHGcYX3tWAhANgtZXVN/R0EWJZlWdY15/1nnOHfxspSUwCYgO47AAAkUalLTaX38iNH7JCdv2Jq16lzQp1iOiMEAACAGsR3AACmUeMsNnvwJfvr36PGlQYEVP7+GYelZnpyUTW5uUVgF+4LFQ/9zC1xv8hrFfYCy8rdLAK7AJQjvgMAMJMyuYqMIZiMrxkAAAAAALie+A4AAGmlCMT8fpHxX2crZSJiANOap2ZVEfmH/hCOW9xY1j8ttWYPqzQd97SxrD9QkfgOAMBk6qUrwuZjYr6qS9W7umBmMf+iZ7uvAmQXs5oAkJGaAkB1b6NfAAAA3d22msefH29q4AOdkgu7k+doAAXMXMjgD+0T4BJKTHLrumy+8wFBqClAUeI7AACU8/k7fJ9MiacGsjtAN++rew7DbVushIcj1fLsb0vqCIFFqy/sF3zj1JGrqCkANCW+AwAwpaoNeL778jZbPVWZZPV28qwKoAbVDYCLKDElSIsCIagpQF3iOwAAs5onwfPZhG/5arI7QH9+5ApcJnj7BAACUjsAgCb+N/oFAAAAACGJyExFwjU5B4dwgDsevEq5ga/UFADaEd8BAJiYc1lOcgkBo3hKDpCFT4yo2keYTpVO/EhTqYtKTUFNAUoT3wEAmJsHH7zMxQNQhofgsCxLhiNYgOHcKj+zGgBAQ+I7AADTE8LgBS4bYDiJk1as5EsC/pDdCWJVAS+2Ctz6urHUFak48Bc3um4sNVCd+A4AAHCQ7A7Mw987AAD8RIwJAGhLfAcAAKezHOFqAeLw48vzrCH84RR2Om6AHVjkl6ToueWemUWKy6kCt7sOLDIwAfEdAACWZZHJYB/XCQAE5jCVoHyGBMpRc4dRUwCoS3wHAIA/PAHhMVcIEJCfYJ5h9QC4jipTnfwK0I+aAsxBfAcAgE/kM7jHtQHT8udflSfgAO6EcM60CZ5p3ziPqCkAnCa+AwAAPOPwHojMg3IG2UKWRweKrwm7bjEvM3hOdT7H3z5NuJAoQk0BpiG+AwDA3wQ1+MIlAcTnee5RVgzgN/dDOCds/PE6E75l9lJTADhHfAcAgG/ENfjgYgAAqnMQ24NPlVNxgD2Zqe6iU73ZuNSUqagpwEzEdwAA+IlHISwuAyAVT3X3s1bVOVmEY9wVAWhFTYEY1rX3P9CE+A4AAHeIbkzOBQB8cEOoxIkCAJdSaBrZUn3+muTYMtfbzHUJwc/UFF4N4nidJCW+AwDAfc5rp2XrgYw826W7sAdjHgTvF3mtwl5gAN9Fvp02Uf4NAvQn4DLze+dH4jsAADwkxjEhmw7kJcHzWJn1UaqAtsrcHoezkgDuhK1YyULEU15j3SYkvgMAwDNOyKZiuwGq8vgbGMvnTDgoXQuuwgeKhd9aVmoKhCRu0odFLkx8BwCAHTwWmYSNBu5JdH8QUikv0dU4lAe4e1gl/qN8nGcNKXpfzfim0mW/qnE/PM8aZiBBEoq9qEF8BwCAfRyVlWeLAQrz+BsA6KLYkWGxtwPwMmGdXGxWUuI7AADsJt5R1W2zuUApoipfWJBZeUoLx7hbnmH1+EQBAnfFU6xeDPIfldjNLMR3AAA4QsijHnsKlOSBb1XxypbhFHkFf2zt0gKWzLeC4PfYnWq8C4D9JDwmYZfDEt8BAOCgeMdmvM5uAvu5YyQlyQTEEb+UuGe+xrpRUd5Dzbypr2PUlKqsW3ciOzOz+9GI7wAAcFz8RyTsYR+B2jz2XSwCHsLeZWUArpb6Tpv6xQM8VSa0sW3h/smrxiWRnfgOAAAvkfzIzg4CMxBeKUbxAjpQO46yYtyX9Agw6csmInfIo6zYldJFdpJmZdK94O9yXSfFiO8AAPAqR2hJ3TZ7B7zI3SMXz75ZlsUZJHApteZ6WY767klXhtK94C+yXzBMTU25RvwoRuqky1G53mn8i6ce8R0AAE4QBEnHfgGzmfYR8LRvfITIz1v5UfwH0JUvqhQfR91Coan4d90PiV4qy6KmwCNhgxeJwivdxF+QmNdSSeI7AACcluJxCYudAmY14RPzkm9ZFTvBk1bgEiXLDddIUYlSvEgoS01pJ1rSIn42JZqwKxY2E1aJ+A4AAC04UQtOnyRgclM9C57qzcJxHjezi3spkYQ6untZ8Ntv8JdHbmoKXYSKVsRMnyQVcDHjXGn1iO8AANCIdEhYtgZoyC2FIVx4p3m6CjRW5jRaiekobDEK+8KOinOyC8eoKecEyVIETJnUE2qFg1x4xYjvAADQjhYvAdkRgN/KPBF+bJK3Ca/yfJkD3FHhAgGP+qK9HmpSU7hGhJtqqEDJPOIse4SLsBLxHQAAWpMXCUKaCuCL8g/Ny7/BwCI8Nn3KQ9UsUlxOpyT6jOq+eo+V4Zw4JSnOK+FFakoBVuYlwzMTceIjkwuyC+ppK+I7AABcINHTk6psAcCPCj8aLvzWFDWAUCpVnDwlJsLJXFv/Z+9uk5u3lXWBSql3lJnMqTuZTFP3h3Yc2ZYoigTQ3cBalTo/zk5smgTQ+HhEhZ/zhZ98NzdfI2EJasrnYocvqZ2cMjyU+QprCPEdAAD68OqXKO480Fv1QWamDeIvU/5RdLD4durifz4HGWChm8BzPhWBGGoK52QI7pBZhmekwp4kvgMAQE/Vj3jLccMB9phs33yyPweAzBQdWht8Gu3dAJCImvKJqLHL63bKCX9e6uwZ4jsAAHTmZTBjuM8Aa5p+y1t1a23ZvdRl//CkanXt6UfaZdVqh7N/NdKYUXriWjB383ijVl9WU2bVsx0G5g6XHluKiw3xCMseJr4DAMAQtTZTynF7gcEmGHbm2Def46+Yha1tmtCQSE3doaeuR33OESEdNWWf2JfuUJ3X8JQjvgMAwCheD9ODuwpwWPX94urXv4ca18eCu6gL/sk0tsKQ+5abwBD3nE2rcbvtT4M2DKcXN2GvkOFLcGcywx7o1/esPf7Dp8R3AAAYyzlcK4I7AOfV3TWue+UARRl4J1NzMbXUMdiZ5M1qqZ2lGsYk1JTJdKgpUYOY8WRWx57s00TOq39o4k/0BQAAsJ77mtZWxWE1N5oBkvrnWm9cVUM57XpdaIN1neNb6EjpIc7vYfxHCTPOQzFqyjuBX5jFxDzfErx9BwCAIF4ec4ybBiQx03D0z7XSDnKhSz1ppjYG/Faxj68zAv+w7B9OVl8v11nqFTtsUVMKWfYP3012B1YmvgMAQCghnv3cK4CuSuwjl7jIhdXa8l7kvLPWn1mrCS3KODyHygsrAwXMQ02ZQ9OaIrsDixPfAQAgAcGUbe4PwBjJN9CTX15bCh9AEktVHyjIoTuVqCkpGUYgD/EdAADSEFL5zT0BMptygEq7oZz2wqis1ptpDpj+DyTGUgPyUn8swHhLDbNL/bGHhMxdZXcgletNpwTgwXVzhqhqAOMsvqSf8kScYcLPKk0YljLrcJ1qHJ71Jm9L9Qg+ET4GHzDxsF3ucUz8LF6qO8SVHaY+UPfpbJvi2ZUb3+hnxdrxSt1Ra4px6Y26T2dbu2cnuwNcLpc/0RcAAADP3Fe/s67tN6ywZQOQ370AZRiTFyyFlxx3/qjbzZFqFh4EANNz9A4cZgCBhHx5FgAAid2/OqryGd4H1vlLgZnMPXDFRmf+uS6a3WG4KWMuFf8oJyjFTD9ET/8HAuQx/ZA7/R94WsW5K9CD+A4AABVMHG1ZKqIEUE5UhsYGN0B+E4/VE/9ps6y8BP5gNhMPvBP/aZVrijoCOV1veicAD66bMW9VA8higpV/5RU+2YV/aMuEYTUTjMk7jRm617mfr9QvkeHD8DEzDd4eQTHVx736o9ZP1Z/ItomeV9GxjobWLRwbqo9gE41R/1P9iWxr9LxCxnMDCOT0J/oCAADgc1/L43K7APNtxACs4150+o3k5Yoac7lebeIDAMD8TPshLW/fAeAbb98BCkt76imyw2Dhn8M1YVhQ2hG4n7Zj+4I38JVZimb4SHzMHON30Zt/meX+HzHBGDjL2HW5TPE4Nsz0pC6XS+URjybWLRwbJhjEZhqpJngcG9o9qfGDudED0vL2HQAAZvFj2Ry7RzDTbgsAv31VmTMD/tzb2RQ0wQt46p5kV7/zq/vnOsn8X2GCOhSOaakpi6k7fQV68PYdAL7x9h1gWl13DebYWGEa4Xs/JgwLsjN7t6ccuFfbZimp4SPxGaVH8bp3vvRtb2COsbH6CDbHU9hW/Rn9UnfQ47zVC8eGOUaz6uPVHE9hW6NnFDKSG0AgLfEdAL4R3wFW93R/ofqmCasJ38U3YVjTCvuz9DZRwQ0fiU8qOpCXvu1F73kz0xSRuuPYNI9gQ92ns6n00Mdhq1eNbdMMaHVHrWkewQbfnAX04cuzAADgQd3NEQAgjdvNeepobjgpFP3GkxXOWQHKUVMA1vNX9AUAAAAAsLyKhxPzKheFKXfBP/gMNJGcsxZnAAESUVMAzhHfAQAAAE6TvYC5VA/EUMxMRaTWyWWtqz1jpjbG8mS23pipv9capWtd7RkztTEgGfEdAAAAAELZAU+pSoKnynWykCrnl1WuE2BlVcbqKteJyTPkJr4DAAAAADyRf3M//xWyqPynmPmvkN28iwUml3/Ezn+FiRnDgUfXm1EBgAfXzb1PVQMACgg/yTRhWJl9W46Z9O074eNxE5kHdXd4NlMWkZzj25S3ekPOp9DUHOMhe6gae0050OUczaa81Rs6PIXxY7iRBNLy9h0AAAAA4uQ8h+BfaY+E014YfJPwUDPhJQGwR8IBPOElAVQmvgMAAAAAvJQwKJPwkuClVEebqS6GdrxHYREeNLmG8VQXwyfMpSEt8R0AAJZzvb7/58e/D8AuXqPCp7SZIlJNh1JdDOyS4YDzn2uKyxhPoQEmk2EwV1OakswDvojvAABQw57Mzc5/Pv11J387ALCmyTbik8xqklwGXcwds4g95lzzkHUxkxUdOEtNmfW304hJNeQkvgMAQAoTh2Am/tMAnph7oxzWFj51mW/i5Lh9LVHvKnDOClNQMvhGTZmLDg7c/Ym+AAAAFjLfiUsTT2+LdTsA8xP2qul6jZmomEkyifvB55gB0CGrQgPMTU0ZqfN9vt1GT3ejZvXABvEdAAC6cL5ykkwPAJDW+L1+c0tm88+17ymgQ9YljT/6BVJQUzhKggeyud50SgAeXDdX+aoG8IotwhBGZZ4L75CaJhc7vOywzBsRwkflrgYM+W7gclarIM0Hw9Vu4IZlCs2jucfMlakXB602JKop/YyqKeOHccMLX61OY8jA23cAADjCnmAGP56CJRYAMFjvD+zOPec0eeNyeTgZPX8u6JAVL+CBxakp9fkKLQZ7bG/7254204/4DgAAu9gBzO/xGVlEAZDakm9EmNV9BtJ87mHyyXKOnbk6XoUFWODzMTWlMgkehjnc0gR9+vHlWQDZbX+b1WCqBiwl0/DDKQbv5YT3Xm2OO5u/bFgpvhM+Ko/UpAKsc8cUzJdUkB8ex0w3Z6eVCs1v6wyki1AvTjFs/qCmHBBRU3yLFr0FzhY0tg3evgMAwH/s8U3JFxgDkMtiR6pLfY/JyTfxrHOj4DOOV2FhFvI0pqYUEfIOnosxZxmyO2mJ7wAA4KRkFXI8AMAAH32h57ITUfMxAAA2hHwMwBdprUB2J7O/oi8AAIAY1+t//7Aajx4YYbE3rABPPc45n/4D0N7ykxBnYwDNhNaUkPHcFH1isUsw85M9xHcAANYy60nJ7Tb0n2nM2h4AyGv5I1XgPQMFwOVycdLZhJpCcVEJHruF84l9piraTuI7AABLKJ3SSJinyXY955VuIUBe9srhcrnYqQRgOKUHYBpRm422CqcR/tId05L9/kRfAAAAHRVaYk02iX/655R4HPeLnOxxAJCFRBdcLhdzLehKrWEWigXEy1RTbreYrUVbhaWFb0drOZ/y9h0AgDkl/3jEBK+rOaDQX528/QAAMLlMp2VQVOYlJwylpjCLwO1EW4XlhD+y5LvfaYnvAADMJnxq/kqJ2Mpgye9J2rYEVGKvnC8aAwC9qTXMIucuAawla00JHB/uW4V2C5PL8IxUscN8eRZAdrexVe4aXtWBoxJ2X9P0jzzerlRP0ztyAeC8qHfdk5BpFTCM6gMwpft8MnCEt1uYUJKKr1Wc5O07AADlZQjUP8r8OpkqEt7DbM0MqCTrZxYZSjMAPmXcAFaVajdgEmoKMwrfPPx6GY89w0B5HkF4g5yDt+8AABSWYV5+Z2reydeNTfKsfbYGAABIyvE8AK3UqSnhb+K5+7oA24ZjhD/xRx56Q+I7AAAlJZmgm5oPk2Qpfne9evQAfKLO3ndXvsEEgPFUn3Ist4ED8uwcPl6DAa2tDM/3B4+4OV+eBQBQT4aZupdhhsjzpVpJXsoKlCG9AXC5XGxwf0r5AKAVNYUF5Nk5vHv8di0biQdkvoGpWtpMvH0HAKCS8Gm6SXkSST5S4zU8ALznpASAAZSb17yApxBLbEihfk1JsnP4w+/rMej9kO2R/eaR9ebtOwAAZcRO3wXqE8rwUPKvKoEs6m+AAgAAQBXZXsbz24+3yyR8x0xXtf725G1pGt6+AwBQQHhwh8zCP0npHTwAvCS29V141QaYk3LzjgJUgpU1pDBjTfkaXkrUgo2LrDhOlrjnGyre89K8fQcAILvAKb5MfRXhTyr/B0SAFGbcBgXYz9T6CLUDGjEEgZoC+d/Hs+3p23pe/ZPkSir6aid1m0pd3r4DAJBXbHCHcsI/T+k1PAB844AEAGAfq2lgpMcxp2jE5K1Z/65+VKIMxHcAAKdc+TsAACAASURBVJKS3eGA+7MLbDwSPACwLTxuCzAbadHd1CCAN5asKStEeXjFRm42vjwLACCjqJWSV2LOIfyLtABeWnIzdFGeNXxnmn2c8QSYnRoxjpoCm3xr0go85cy8fQcAIJ3A7A7TCPxUpYYEAAAM4iT+Q17AA/CSmvLdjy0+5aMuu7WFePsOAEAuIhe00vyZPn4yY+MfgDdsia7AUwYA2Mc6GijBBmAhHlZd4jsAAInI7tDWzicrlwMAI6mq8DGhQGhHGWJ1agq0YPMwDw9iJuI7AABZyO7Qg1wOkJEd87l5vvCLGRd0oeJQnwIBWagpLdh47M0dnp74DgBACrI7AAAALzlUg3ZsBbA6NQUG8qnCj7hdixPfAQBYlxk/AGHsmM/Kk93HNAzgLBXnHJUoA08BslBT4ux5cfgcyZVF/kxO+hN9AQAAxLx6x2IAAAAGMPEG4DfVAeAjhk1W4O07AADBZHcAWJQPOM7HMwW6MshAU3YGWJqaAkA+4jsAAAAAMJpDU4DjnLtTnGkAJKKmAGmI7wAARPLqHQCWZp90Jp4mPGPuDWRmjAIAyEN8BwBgLfbmAACAqiQFuWgGjdklGM89z8JgwkUzAHIR3wEACBPy6h0AyMVu6Rw8x0Oc3gHAalR/AOAV8R0AgIXYJAIAAAAe2SsAAMhAfAcAIIZX7wDA/3hxS3WeILzgRLwLY87iNIA+jFdjuM/pGFIWpwEAyYjvAAAAAAAAQEeyOwDAtuvNfAGAB9fN94GoGnn9c+JFLo8fMvj6OT550N/4t+/owbCK8Ld7GW445sx8hkDmjaeFD9v0oyR2pGqsSdHpTEnqSlHIS01Zk5qSli75RStdz5/oCwCAWdSdUz698sF/jmkoAEBFZnHwmmNaoJzbTYKnF0UBWEvd45JUjt1G6/TKxHcA4DvTyhAHbnvxOajtMAD46e+bmRgA8FLxfQBWJrsD6agpx1izl7DzMekFKfnyLAC+mfnLs8wsF5R4AhoS3yndg4EPhCcEDTccZsJWS+K5VjnhIzc9qIfdqRqrUXdGUZWaUxEKUFNWo6a8oi9w0UEiefsOAHOZcnJ5/yR61ISp9C19dfFLzj5tFQFQgBfwALMw/YbGllzIR/EVWm2pCJCOmjLBurviQyx0259easV7XpD4DgA15Z/otJ3KBE6MGv7qPE/t95WYegIAfMT0CQDmJcHTiuwOEC/PtvxvS60rD/+xSZ7gj8tY6tkN5MuzAPgm45dnJZma3JmRDJDhifd/0ON3wUz6YCHhG+1GHE7KMBngLRPj1sIHb9pSDAdRMtah7kRQm85TDipRU9Yxd03J05Lnvs+pZHjoHncj4jsAfJMivhM+1TDPyCmqYfRpD+I7QEfhu+xGHE4Knw3ylglzB+GDNw2phOMoGYtQd4KoTScpB8WoKYuYr6aEN935bukc5jpPWYf4DgDfxMR3AueXZhJ1hTSbdg1GfAfoKHyX3YjDeeH7j2wwhe4mfPymFZVwKCVjBUpPHLXpMLWgJDVlBXPUFEcqfGp8m9FUDhHfAeCbofEd0wVaGdyWWjQk8R2go/AtdiMOTdg6T8ukupvw8ZsmlMHR1IvpqTvRlKcD1IKq1JTpVa8pxT/RSgoO5nL7E30BACzGzIAeHp9ypzb241cUbFfXq80jAOC0grMgAOCM202C5zO2X4CWRHZoa8Bhyg/336JR7ePtOwB80/HtOwXfjwJdeQEP0Ev45rrhhlZ8+DUbc+z+wodwzlMGA6gXE1N60lCh9lMIalNTJlaupjhSYYy3LU3bGMjbdwDozBQTAACANTiyBWblHTw7KQTAWY5UGEwbyMTbdwD4puXbd8wyYZO37wC9hG+rG25oyIdf8zDfHiJ8COckNTCMejElpScfdWqbKjAJNWVKVWrKyOZX5Z7ASrx9B4A+zDIBADjv75vdc5bi3QYAZKZObZDdAU5xpAJcLn9FXwAAMzLRhB3Gb+vYYgMADjLrhh0c3EYyTM3HM83KWPeU2zIV48988j9TRyrA5XIR3wGgPR+PBgCgIXuL4TwCAOCBqMoPbghwiuwO8C9fngVAZeaanxKu6qROU7xebSoBAKTme0kACq2yl6VafbHNAtklryl27IEH4jsAAGHsdgHALn/f7GmGSb7ZDWk4vo2nWMBY9jQuBv+JqSlMyeLuU8aBTjTF13x5FgCtjay7Jk/wOZtrAJRkcyeE2x7EWSCwNNWnjsUL1uJ/PtSgpgCliO8A0IEED+xmrwcAAKozq8/CER0Mt+wAuOwfvhA1hfk4TIH0fHkWAH2MfL/oP1erqb2WulFWI69dr7aZACjIG+wHW2rqCAActeC3aNlUAZqxzgUeePsOAN38fRu34//P1RyXumz6EOJ6/e8fgDIESoZxq6OZIsJBhq/qPMGabreFKtc6fylGpPKqPMHB32bgJAUS8/YdADq7Tz3HzAi/fkuVeTn8a/wn1byAZ3E/2tue5qfBAAA8ZZoEcLfCa3iM+UAXI49RLr7QYLel7pJcVw7Xm7kGAA+um4vsBlVj8AxgqdkVP4xsbI1a2vhNLjPBZXVqbFpUFuFb5poCvdlU6s0sOo3wEZ091L2MVIqiFKBZTFm/jPbrUlOKKlpTHKAQpeB5ypS8fQeAsb6q8uD38fz47cDlcvEOnlX120jd/skaG9DM3zd76B2ZM8MnzHAAfpvvNTxGe2CQ8a/hefy9QDRv3wHgm+5v33kq8PTFrHRiNdPiIdtb5oNLCdxC1dLGCd8p97AZQ4KnB9PjZMJHdN5S9PJSJspRg2Y0RyEz1KOm1DNNTRnf9qa5dXyq5nnKfLx9B4AEfpTqkbOEp7/L1KG6yivqkA+oeQfPOmR3AKCW+d5eAMBSqhcyK1kg2OBvM/jxixyUwHDevgPANzFv39mWLYphzhooW2P40rpVeAcPPcjuLCR8g9wjZ5i0c4OiTHRTCh/U2aDiZadMFKIGza5iOTPI842aUsjcNcVXGdCJt+/k4O07AKT3tJAHTlI/+tVmIRssel/zDh6ak90B5vT3zYyiGRPXrKq/twDgPTVoAfeFYZWKZhkLhU1fU1J9lcH0dxuG8/YdAL7J+Padj6x2fjNgfrzaLX0qaB3iHTw0Ebs9qkXFCN8U9+AZzHTlPLuuuYWP6zyl3NWgRpSgDC0mc10ztrNFTSlh5ZqSp4mu/BQy00Iq8PYdAObyturnmaA0MdmfM17uaWLUO3gutqsmIrsDwHu5Z0RcvIAHmJsytJ6cb+KxgIUZLF5Tfv/5UccHe37v4g+rLedEE/H2HQC+Kf/2nYbMeCqacdIftZ+1VHeflezOusI3wj1+xjNzO2PGGdR8wod2flDrKlEjklOGlhde4wzpfEBNSU5N2aNuM57++dZ9NNumf3BNie8A8I34zlmzTrCGMZN7JnAnS6cvyu7n6rQA1mQadozZVxHhQzs/qHWVKBCZKUM8GFzsjOQcoaZkpqacpHlzmN7XjvgOAN+I71T1Nbf+MU96O+c2r6pDiIc9ws/2tJYUtAOWZbfxU6aCpYSP7jxS64pRINJSiXima8kzgHOWmpKWmtKVlr8sPWss8R0AvhHfgcx8FxIbMhzpaSRZhLcGTYFAthT3swdXTfjozheFrh7VISeViH3OV0DjNi2pKTmpKXnoIyXoMln9ib4AAAD2uu83RZ3c3H+vPa+EkhzmaRsAldiqK+h2y1L0oZ6/b06SoK5Xi82nZdHKlO7UFNh2bLGpWx1gXT8j8R0AgGJiT26+frUdsQySnOFpDEAiNtP3sMcHJ5j5QBuKEacZkIH/UVMmMOAh/nP977e02jd4ddmPvws+4cuzAPjGl2dBIRmiG0aFEBke/RdtIKPwJqJZEE6CZ4M9xOLCx3hUucJUh1TUI6A0NSUVNQWYxV/RFwAAwEEZTg6u1//9wwDZ7vbtlqIRAjxh9/YVdwbOMfmBNtQjAFpRU4CJiO8AABSWJz/xlSzJEy6ZRsIbm6fhAbxkD/c392QKSjAcZxgEoBU1BYAOxHcAAMrLlqUQ5Wki5z3M1tgAtthSf+RuwGlmQdCGkgRAK2oKMJfrzboTgAfXzYNiVQPyy5b2eGQIecvjo43wlqS5kMo/0T0iA5va0wkf6dekvk1CXYilJAEzUVNiqSnAdP5EXwAA8M19I/5xXzhqa/7p3vT1as86u/sDynmi8/uqNKecT+oHjwmo7e/b6rvqNrWhBTMiAAAAuvL2HQC+WfDtOyXOzvlhxpbYS7kWPvfD9TgYJLypaToktGyCR3ZnXuGD/WoUt6ksWxTCqUrAfNSUKGoKMCPxHQC+KRffKbdnne8WnuL+V1HuSf1Q8cG550QKb38aEDktuLFuR3tq4YP9UlS2CS1YFDJQmBZ2/X8xne72f1od/akpIdQUYEbiOwB8kyS+k2QnWpEcKclDv8z+3PPc5+YGP7hZ7+Tc7X8h4Q1USyKtpTbWbWcvIHy8X4fKNqGlKkISCtOqooI7P8jx0JGaMt5MNcWcngVZX70mvgPAN8PiO4GTUqWvrti1zGQtx8KQR5M1b+J7uCZFZovsrc+0nc1r4eP9IpS1aS1SEZJQmJaUJLjzSIiHXtSUkSarKeb0LMgS67U/0RcAwPyi5p8mAPOJfabX61SN6utvsUJc2UxNGmCvv2/z761Ptp3Na7ebuRwAGSUM7tzdL0yIBwDIydt3APim1dt3QjaR1TQ4w9nPOoyW8wvvzxoZJcwa4pHdWU/4qD83NW1ys9aCbNSmlaQN7vwmxENjasoY89UUs3kWZJX1mvgOAN+cj+8I7sAELBvnY5xcS3gf1uCoYrId9vk2stknfNSfm5o2v8lqQULK0zL6BXdu/3fr+sM7/WRWpKb0pqbwKHwhZKlAB748C4DyzJGgucduFb4O4jDDI8AbM32Rlo3shfkKrX7MpgD26PrGnXu85v5/e/yir58pxwMAhPP2HQC+afLlWV7AA7NyMpSfwZDLJUFf1RApp3qIR3ZneeED/6wUtFVUrwKZqVCzGxDcSfJLYS81pR81hR/CV0FWC3QgvgPAN03iOw8/7dzVHKKywTDhSyQuBj2eCu+c2iUVFd1nt4XNv8LH/vmoZgspWgLyU6Sm1jVDc9kRoxHiISk1pRM1hd/Cl0AWDHQgvgPAN23jO79++Jn/+ji1bnqxE3UN7FH4omkFmhzvhXdFzZS6au2228LmQfjYPx/VbC21xv8q1KkZ9U7tXD6MzgjxkJGa0oOawm/hSyALBjoQ3wHgm67xnde/tMdP3UUZLMRsvKjwB1eaVsdB4R1P26W0ErvtNq95Jnz4n4lStqIS438hStV0sgV3HgnxkI6a0paawlPh6x9rBjoQ3wHgm5D4zobwCdhTimcTCR+uJztYwjYQRdujsfDepU0zgbQb7nau2RReAeagji0q7chfkWo1lwHBnUuLlEz493nBf9SUhtQUXglf/Fg20IH4DgDfZIvvfCR8tkZCudssb8zUqTVFhgrvPFo808i27W7nmnfCK8Ac1LF1ZRv261KwZlEluPNIiIcs1JRW1BReCV/8WDbQgfgOAN+Uju80Fz79W9libY0urtcnDelMv9YsKSO8gOktTCbDzrs9a3YLLwLVKWKryzDmV6dmTaFicOeREA8pqCnnqSlsCF/5WDnQgfgORLrnJHTDPdyrYcR3AKA8+xfQQ8jmu91qDgmvA6UpYqtz1HqSylVf9eDOIyEegqkpJ6kpbAtf9lg50IH4DoyznYp4pGO6V4HEdwCgPPsX0NWYXXhb1ZwQXgfqUsG4XJy2nqN+VTZTcOeREA+R1JQz1BS2hS97LB7oQHwHutufRPlttR7qXmUgvgMA5dm/gDF67MXboaaR8FJQkfLFf5y2HqOKlTVrcOfRgL9Rjofn1JRj1BTeCl/zWD/QgfgOdHQmjPJohX7qXuUhvgMA5dm/gPHObMrbmKaP8GpQjvLFfxy1HqCc1bRCcOeREA8B1JQD1BT2CF/wWD/QgfgOdPE2jPK0660Zm3CvsnFvAaA8+xeQx4/NetvQDBReDWpRu/jJaetHFLhqxqR2LlmzLEI8jKamfERNYafwBY8lBB2I70B7G+mHPT3u5H9ei3uVkPgOAJRn/wKAy+WSoCBUoXDxnNPWnZyzlrJ4cOeREA9DqSk7qSnsF77asYqgA/EdaKxJoGSRVIp7lZP4DgCUZ/8CgH+F14QSFC5ectq6h6PWIgR3nlrt68OIpKbsoaawX/hSxyqCDsR3oKWGUZLpUynuVVriO0BywzYc72yxUZL9CwAehJeF5FQt3nDaus05awWCO28J8TCImrJNTeEj4escCwk6EN+BZpqHSCZOpbhXmYnvjDc4i/CbvQPyC+8mdzoLZdi/AOBBeFnITMniPUetG5yzpieV8hG3i+7UlA1qCp8KX+dYS9CB+A600Sk+MmUqxb1KTnynk37r/9v/3br+8E4/Gd5KEtl5Re8gNfsXAHwXXhnSUrLYxWnrU85Zc5NEOcytoy815Sk1hQPCFznWEnQgvgMNdA2OTJZKca/yE985acAKf+fyvuuV2GKgn+Spnaf0CNKxfwHAL+HFISH1ig84bf3BOWti0idNuI10pKb8oKZwTPgKx3KCDsR34KzeWYeZshTuVQlu40511/C9r9y+AwcMTpt5YRXzs38BwDPh9SEVxYqPOW195Kg1pbq7VWkN+4jRUneVy0VN+U5N4Zjw5Y0VBR2I78BZA974Ms1LZdyrEsR3flhn4yPPe4NYRIYkmZdUMS37FwC8EF4iklCpOMhp651z1nzW2b+K4g7Tnppyp6ZwWPjaxqKCDsR34JQxQYc54hTuVRXL3kOL8FfEemgrQ2rnKVEepmL/AjaFf1GjukCs8CoRTpniFKetzlmTsaM1jDfx0J6aoqZwRvjCxrqCDsR34LiRKYfqiQr3qpDpb6BNjVbcSfar1VrSBozgA/Yv4LvwvM42pYHxwgtFLGWKUxY/anXOmoYoSaBauxykpqbAGeGrGusKOhDfgeNEUvZzrwqZ4wbawghkC4O7OVqCKA9V2b+AnmP47f9u3tlGdeGFIpAaRQPLnrY6Z80heS6ZtswM56emwGHhqxpLCzoQ34GDtiMOlw4ph7qhCveqllp3z4YFv9nXCDR3ck6Uh0rsX7CkqIFalIeiwmtFCAWKZhY8bXXOmoB9sJWZFs5MTYFjwpc0Vhd0IL4DB42PONQKVTxyr2rJefdGbk9YDI80eOPJw+1kjhft7Dfg783zx1KV/QuWkTBbKc1DIeHlYjDVicaWOm11zhpNcIc7s8FpqSlwQPh6xgKDDsR34KBskZROv7QJ96qW2PiOmA53Yj35rRbZeUWUh6TsXzCvWgUoYboIfgivGMMoTXSxyGmrc9ZQgjv8ZhI4JzUFPhW+mLHGoAPxHTgiJB1SNJLiXpUzJr4jnMEx4zetNJ5Hc3831km1jpOZn/0LJjJT9ZHmIafwojGAukRH05+2OmeNI7jDNnO/Cakp8JHwlYxlBh2I78ARUa8nqZhKca/KOf/IYjcXLFzXpNV1JZjyKa/kIZ79C4pbofSI8pBNeOnoR1FihFkPXJ2zBhHcYT+zvgmpKbBT+BrGSoMOxHfgY4G5kHKRFPeqotgvzwKSWOHcdAC3kTD2L6hmplfsHCD3SRLh1aMHFYlxJjttdcgaxNfKT8YD5SA1BfYIX8BYbNCB+A58TCRlP/eqIvEdWNbiR6e9ifIwlP0LKjAwviLNQ6DwAtKWcsRo05y2OmeNIOcxMQ+XI9QUeCt89WK9QQfiO/CxzJGUrr/9APeqIvEdWI3T08HEpBjB/gUpGQAPUKYZL7yGtKIWEWOC01bnrMPJdizCg+ZjagpsC1+6WHLQgfgOfCY8FFLopTLuVVHiO7CCkXtGZGDnbjn2L0hD+qQt95MxwsvIeQoRkUqftjpnHWjwwlx9T0KIh8+oKbAhfN1i1UEH4jvwmfBESPgF7Bd+qeEXUJT4DsxKZIc7+3dLsH9BHK/YGUaUh97Ci8lhqhApVDxwdc46iuAOQjx8Rk0BWIb4DnwmPBES/kqb/dyrosR3YCYiO2yzizet8BNXE4bFKDfrUDhWE15PPqX+kEuh01aHrKMI7vBIe+ADagrAGsR34AMZ4iAZrmGPDNeZ4RoqEt+BCXjzwTR8II+Dwo9bTRhmJ6/DndqxiPCqspPiQ0YlTludsw4hqMEr2gZ7qSkACxDfgQ9kiINkuIY9MlxnhmuoSHwHipLzmJvtPD4TftBqwjAdeR32UD4mFl5Y3lJ5SC3tgatD1iGs5thDO2EvNQVgauI78IEMcZAM17BHhuvMcA0VNYjv5N/ZheaCBhObO2sS1eK98FpsijUFo818zBw4Kby8PKXmUEa2A1fnrP2pvHxKm2EvNQVgUuI78IEMcZA91zDgMt5yr+ry9p1I4dvhnm8RzlO5s6/HSwoKhxhVVmNGwTHhReaLakNJGQ5cHbL2Z1rFGdoPe6kpANMR34G98mRBMiRjtrlXpYnvRArfCPd8E7N3wzYthG8UFHYT4OBOHeFTsaVGnaG2wNNWh6z9Kam0Mv7razWnktQUgLmI78BeeYIgea7klTxXmOdKChHfieS0le/s1HCAZsPloqCwxZESbykl7De+4KgwTGXkmatD1v4UUHrQrthLTQGYgvgO7JUnCJLnSl7Jc4V5rqQQ8Z1ITlu5XC4OVmnHNt+6FBS+U1k4QzVhjwGVR21hWl0PXJ2w9je+UF7UyvWYj7GXmkIFIaUzFWMsG8R3YK88QZA8V/JKnivMcyWFiO9Ectq6MBsxdGVDeTkKyvKUFTrRtHireQlSUlhIwzNXJ6xDWGcxmJkYH1BTOGrYULPyCDPmJq98h0sT34G98gRB8lzJK3muMM+VFCK+E8lp60qiPmRg1o62twQFZTH6NVG0Pd46VpGUEbhcPj95dbw6kOAOgTQ/jlBTEkv+Kpp+3T/5H95V10E1/41VU7aJ78BeeYIgea7klTxXmOdKChHfAQAAAAAAABjpr+gLALrYE1vhzr0CAAAAAAAAIJD4Duwi4bGfewUAAAAAAAAA+4nvAAAAAAAAAABAmD/RFwBQgFcK/eaeAAAAAAAAAE3cbrfoSwjm7TsAAAAAAAAAABBGfAcAAAAAAAAAAMKI7wAAAAAAAAAAQBjxHQAAAAAAAAAACCO+AwAAAAAAAAAAYcR3AAAAAAAAAAAgjPgOAAAAAAAAAACEEd8BAAAAAAAAAIAwf6IvAKCA2+0WfQnpuCdJXK/XV/+TZwRf9BTYQ0+BPfQU2ENPgT30FNhDT4E99BTYQ08hP2/fAQAAAAAAAACAMOI7AAAAAAAAAAAQRnwHAAAAAAAAAADCiO/ALr7ycD/3CgAAAAAAAAD2E98BAAAAAAAAAIAw4jswJ6/A2c+9AgAAAAAAACCQ+A4AAAAAAAAAAIQR3wEAAAAAAAAAgDDiOwAAAAAAAAAAEEZ8BwAAAAAAAAAAwojvwF632y36EspwrwAAAAAAAABgJ/EdaOl6vUZfwuVSJD3jXgEAAAAAAADARXwHykmSeinBvQIAAAAAAAAgP/EdAAAAAAAAAAAII74DAAAAAAAAAABhxHfgA7fbLfoSynCvAAAAAAAAAGAP8R2YjdzMfu4VAAAAAAAAAOHEdwAAAAAAAAAAIIz4Dnzm7ftartfrmCvJz70CAAAAAAAAgLfEd6CSt3kX3wb1xb0CAAAAAAAAoATxHQAAAAAAAAAACCO+Ax/z1pb93CsAAAAAAAAA2Ca+A/OQldnPvQIAAAAAAAAgCfEdaO96vRb6sbHcKwAAAAAAAAAWJ74DRyR8d0vCS7pLeGEJLwkAAAAAAACAZYnvAAAAAAAAAABAGPEdOGj7DS7Nv7xp+wcmf52MewUAAAAAAAAAr/yJvgAgi6epF2EXAAAAAAAAAOjK23fguCTRliaX8eqNNa1ejTPTvQIAAAAAAACAhsR3oJeG3wnV/OulPvr5vX97218x4GoBAAAAAAAAoCHxHTgl/G0u5y9gT96lSSZmgnsFAAAAAAAAAM2J78BZG6GQJqmXjR9SLo/iXgEAAAAAAADAD+I70Ffy73Laf3m1vkILAAAAAAAAAKoQ34EG+r3ZZb7XybhXAAAAAAAAAPBIfAfa6PG1ULPmUdwrAAAAAAAAAPgivgPNtE2lzJ1Hca8AAAAAAAAA4E58B1raTqXsD6YMy6MEplvK3SsAAAAAAAAA6OHqeBt6OJwpGR9G2RmU6TdWFLpXAAAAAAAAANCc+A70cuBLoDZ07ap7LjX8AvYzrAEAAAAAAABQiPgO9HU+mDKmk25fZ4Zr2MOABgAAAAAAAEA54jswyIFsyuDu+fQKQ4aI/PcKAAAAAAAAAFoR34EAr+Ip+uNv7hUAAAAAAAAAcxPfAQAAAAAAAACAMH9FXwAAAAAAAAAAAKxLfAcAAAAAAAAAAMKI7wAAAAAAAAAAQBjxHQAAAAAAAAAACCO+AwAAAAAAAAAAYcR3AAAAAAAAAAAgjPgOAAAAAAAAAACEEd8BAAAAAAAAAIAw4jsAAAAAAAAAABBGfAcAAAAAAAAAAMKI7wAAAAAAAAAAQBjxHQAAAAAAAAAACCO+AwAAAAAAAAAAYcR3AAAAAAAAAAAgjPgOAAAAAAAAAACEEd8BAAAAAAAAAIAw4jsAAAAAAAAAABBGfAcAAAAAAAAAAMKI7wAAAAAAAAAAQBjxHQAAAAAAAAAACCO+AwAAAAAAAAAAYcR3AAAAAAAAAAAgjPgOAAAAAAAAAACEEd8BAAAAAAAAAIAw4jsAAAAAAAAAABBGfAcAAAAAAAAAAMKI7wAAAAAAAAAAQBjxHQAAAAAAAAAACCO+AwAAAAAAAAAAYcR3AAAAAAAAAAAgjPgOAAAAAAAAAACEEd8BAAAAAAAAAIAw4jsAAAAAAAAAABBGfAcAAAAAAAAAAMKI7wAAAAAAAAAAQBjxHQAAAAAAAAAACCO+AwAAD6ZFVgAAEfJJREFUAADkdb1er9dr9FVADToLAAAU9Sf6AgCALq7X6+12i74KyOJrC1u/AGCM36enahAcI4sAT+kaADx1LxBWH/CKPkJmDvYAYDaPW3gKPWv6aCNbN2FZegr087R/6UdwgBA2fNk/edNfAFbwaY5TdWBB9r4ox9t3AGAqPn7Hyo61f2dCLOhAZ9FTAHjFGgT6EdlhGgmLhV5DUYd7k3U967BLTF3iOwAwiYT7IDBMk/bvvams4Hxn0VPgLbMyaE7dYTU7S4muAbCUVgsN63omZpeY6sR3AKA8R0Qsrm0XsDxjVnoKjGFixmq0eWhLcAeA395Wh6d1Yfu/sq5nMge6iT5CQuI7AFCYvXIW168LXK9XazOmoacAAOS3Z85m6kVR9q/gsO3us10Xvv7XjR9iXc8cNhr5RgvXR0hIgwOAknwgDwZs/+lBTEBPgZHO7K1DRWOOY/Udpie4w/Ryxnd0K/I7lkg48NOO/UBI4lXb/qhV6yAkIb4DAMV8tOWh0DOrYXt/OhGl6Skw0rEX2kNp4jtwkuAOK5DdgWOaJBJ2/szzPxmitO0pbTNzcMBf0RcAAOx1vV5zbnnAYCM7gk5HXfvf03Y34HfBxPQCFiS7AyfJ7gDwSo/szvn/HLJp3lM2/kOrfsb4E30BAMB7pobwZXx38A3HVHTg00I//v9KDwBAJ4I7AGzouh6/3W6vfr4dMGrplHLb/o36CL1pZACQ2snVmkLPZI5tczfZ9dCbKKTh/oVvbIQ99r/sqveVwDBevQOHye6wlLSfCtDLyGxAKME3BFFd1zbsa+YI5O07AJBU2g0OiHJ4Vfb4vx7uWT5dQWlnXhqsHsE2fQSA/d5WDYsOGEBHI7PxLxSBcnrnz7Z3w+wS05X4DgCk82Nq+HQu6KCI1bTavPj693UiZvW7bZ/cU9if4LF/AbAIr96BA7x0hwWF59Us/ClnWKP1FVrUlWFs103oR3wHAJIy/4O3znSTA+8UsTAjv+bZna8fkmFzBBLSNeDOHAm2ye7AF00dgE4alhhbYUT5K/oCAICfbrfb24mmzQ6W8nSxdL4X7OlrUFrbbYtWPwqmseeNiTCfTlFRmJjsDtwNXoP7BiLK6f19QE2uBGLlaZx5roTJiO8AAFBPVCjBwozMJAkAALKR3WFZlieQnF4J2972ERvF9CC+AwBAagM+4W3Dgvn0aNV6CjxyIgV3Gj9skN2BO+0cgPO2Z1ZqDXMQ3wEAoBIrMXgrsJv44BGLkN1hWcZ52E92h5WF1wvfnAXAAOH1jvmI7wAAkNew89H9P9mqjJy+WmbX/Wib3XBRCOCBugCvyO7AF00d9rDKgG0hfUQJYzzxHQAAuFysxwA4RPlgHU6VYCedBb6YKQEwNxM/2hLfAQCgBrt+8MqYV+/sEX4B0JuvzYIv2j88tfMIRw9iYuHLE9+cBQAUJb4DAEBSPrsAH7EZDb3J7rAyEzNoSAUB4CNmYixOF2Ad4jsAABQwZoPbNjpF3W43rReAkdQdeMrZElz+rREqBQDD9Cs6e36yGSANie8AAAAAvOHVO6zMfjTs4Wuz4EtgO/fNWQBAXeI7AABkZ5cNgFiyO/DD9XqV6YEDVBAAjmk+9TKXA0joT/QFAADAEzYRoBzHUQBT2piVSbbBF+sXAKZhUkcqZlksxdt3AABIbfCWgR0KAH4QUICdrg+irwWG8rVZkIRvzqKuPa3UFAvS0j1pxdt3AADIyOYaJLSxGaHPMivZHRZ3eBv66z/UawAAWrler00mV1b3ADmJ7wAAAAA84fNzcJ4cD9Pz6h0AAKAJX54FAADAKY6jWISmDmf4Ui0AuvLNWVS3s62en1B59Q58RL9gJPEdAAD4gAUby7Ibzmp8bRb0SNsI8TAZ7RmA8TpVH0segHDiOwAAABxkd49Zye5AV0I8rEYdAWCP/fXi8FTKHAwgM/EdAAAA3ni6wecgCmBiA452hHioTgOGPLwrlAUdKEO+Ngv6MTOkiT/RFwAAAIlYaMFvsjusxqt3YKTr9aqXgekWAHe3223/3tT939xZL2R3mJg1BdMQ3wEAgL2sA+FOX2BisjtwGR5ottvO3F4177cdTUkCWNNHCZ7LvqmUN1QBlCC+AwAAwEvOjViKd7DB3ddoP6xTSPBQzpnecey//fqvdBb4QS6B+bRN8OgjAFWI7wAAAPCc7A6L0+bh8FtDDpDgYQVN+s5HX5UCQFEHEjyXX9XBF2YB1CK+AwAA/7O9LWJfg9X87hEOVpmbvBrs99hBGkZ5FBrm0+9dVkI8APz2OJvy0h2AcsR3AAAA+GbjeMlBEbPytVlwWNt0ggQPJRx4HUK/K9FlWJyAAhP79AU8dz6cxmSOdQQo6q/oCwAAgALsbrCOPXsi1+vV1glzM+zDAbd/nfw5Sgwzeduez/caXQZgYg0XJk3maZCWGRFz8PYdAAAALpfPdzp82ptp+NosaOveiWygw2+vSsyP/79ZGQBfzs+s1AiAKrx9BwAALpfNfRDbHEzv8Nt0vIaHCcjuQCdnPuGtuDCfj3rEge6j17Am35zFOrRqgBWI7wAAwBb7I8ytSf7GcREArxwO8SgupPVp4zzcCz79D/UagLmdCUarEZS2s/Fr50xAfAcAAKzuWM71Xw1/YKsfBSN59Q6MceZNPFDa+Zav7wDw5UxRsGyHrszZaEJ8BwAAXrLuYjLNUzs/fniPHwv9yO7AYL4MiNW0qiz7f45ew1J8cxZrkuCBDRo51YnvAACwOlt+0IpdEgrRXCGE+RXraNvaJXgA+CLBw4KsI1iE+A4AAMAqbs9EXxSkoC/AMB91NydM8EWpAqAJ8yvm1ryF6zKMJL4DAMDSvHoH2gZ6bGpQgq/Nglg6HQAnWXewsvPtv9/XakM/IS8j1FMYTHwHAAB+cqTE4ryYh7nZfYMMVBnm1qmF7/yxKh0rU1+YW9vYjXrBxJo0b32E8cR3AABY19M1mM0++HIsxGN3g1oM+xBFEAEAYL9Xu1hnVjQmWtQy8nt49Q5CiO8AAACwRbiBmfjaLEhFH4RPyb3BRQtnSdufQDsT4tGhqGVAgufAa66sa2hFfAcAgEV59Q7s9+lWoO0/cpLdAQCYmNkds9q5hSXBwyL67VA9De4oLowkvgMAwIpkd+AAfYTSbElDTooLtagmAAz20RaWBA+L+DTBs/FCneuDp79I72CkP9EXAAAAKTg6gj1sWzANwz4ARZmPsTjtn3W8au3ba5n7/3qgp1yvV6skCjkwI/ro39cdCOHtOwAALMdLUAFW42uzIDNdEoDzVBMmcyy78+m/tvOXQk79Rv6PfrICREPiOwAArEV2B07a2WXs+pGH1ghAK4XWDsofQF0nszsH/mUo6na7tW3qP36gCRWDie8AALAQ2R1oQsehNA0YAKAox6isoGE7P5Bs0MuoqEmIp3kSCA4Q3wEAYF2WZADT87VZAADTM8djBYfbuQQPiziWv7n96/AvPfYfwlN/oi8AAAAGcYILDd1uNzt65KeVQhXKCnxElwGYVafhXeFgHb+3fL8avygb+YnvAACwBNkdAC6hu2/7f7UiBQDwm2NUprfRyJt8MdD+TnS9Xq1KmIbGTCG+PAsAgPnZ4wMAAIApOZdlDgM2r3QW2G9Pl9SnaE58BwCAyf1ea1lZQRO6EgAAAPTWcPW9/0f5LBzAeOI7AADMTHYHAAAAqpMkgFbsjEETuhI9iO8AADAt2R0AAACYmGU+cxgcUNNxYJvMKFHEdwAAmJPsDgAA0JxlBQDA4kwI6UR8BwCAJVhTAQAAQEXeggDN7dko0/VYk5ZPIPEdAAAm9GOVJbsDnehcAAC/OfWBMaxH4Aw9CI7Rd+hHfAcAgNnI7kAGuh4ATSgocIy+A1CF0CfkoT8S60/0BQAAQEuyOwB8GVwFtrf5lCSAadxuN0c7MIzuxuKsI2CYPRVHl6Qrb98BAGAesjswmJ10AAAghCU/AIMpPfQmvgMAwCRkdwAAipIHBQB4qus0ye4ZfLEkIQPxHQAAZhCY3bG0g9/sAALQhIJCWm8bp2UCNKErATCAr80iCfEdAADKC8/u2E8EAADycLzE9DRyZqI9QyzZHfIQ3wEAoLYM35ll/QYA0JwpFrzi8wMAAMNYmDCM+A4AAIXFZndsmrO4V13ApgYAHzGnoijfnwW96UQQy+qeFbytNToCI4nvAABQVZLsjiUcAEBzplhwmO7D9DRyAJqQ3SEb8R0AAEpKkt0BfrCvAcBHTKsozcwHgAHMl6AH2R0SEt8BAKAe2R0I97Qj2NcAoAkFhWn0WDts/0zdh2lYerOUqNFbR2NZGj85ie8AAFBMquyOzXEAgMOEQZmAFguD6XQwhr7GxPa8d0cXIMSf6AsAAIAPBKZnfCYDvjhtBZjVqwmPQR4Ou16vw3qQrgpQ1+1229h6GllNYG6+M4vMxHcAACjj9+IqNlJjLUcqv7tDpyYquwMwq+0To0vr0V5BYRrbB66XpmeuG79I92EmPj8DA6gpLEh2h+R8eRYAADXYvIMNTzvI9V+9f7utDYBFNCwrsjtMRuuFMfQ15rbdwu2MwRl71jKqDOHEdwAAAGp7u/vQcI9v2Dt+ABhsf7E4X1Zkd1hQk/mY1yQALK7r6v6LmsJ89vQdLZ8MxHcAoCQftmA1Cdu8FR21nH9fwtOfoCMArOlMWZHdYVZvm/H5ydjhXw21JNwBgGF6V5O3P0RNYTI7X7qj5ZOE+A4AANnZuYNWDp+2OmoF4LdPa8qrJKiCwjTGnLl++ksBqEUeFFrx0h3KuWqRAFDORys0tZ7qcmZ39CxSOdBN9rdhwR3Yb7sz6jjkd3jedfiQSb9gSns+4d3qB+pETEnVgEuHavL2x+pizERwh6LEdwCgmK5ntJBNzuzORbcimTM9ZaMxC+7Ap8R3qO7k1Ot3I3c+xMpaHbvqR6xGm4cvbfMHVissQnCH0sR3AKCGJiEGdZ9a0mZ3LnoT+QzoL5o9vGVDnAmMmYDpDizi5OmREANr0vLhh/NZhE4v8oFUdi5ktHaSE98BgIxGphZMBshJdgc+1a/XaPOwk/gOc1BQoK3mfUpXYm6+OQt+Mz2DDYI7zORP9AUAAADQwO12a7ujZ18DYE3NC8pFTWFt9/bvlbqwR+ZP8kCghqXkx8+EovZ3B02dWrx9BwAAYCond/QsEgH4oqZAW8f6lK7EOnxzFuxxZoamK1HXRy1fU6co8R0AAICZ+TYfAJrYs12urMBHJBUAOM+qn3WYOzE98R0AAAAAAAAAIK+v+I6EA7MS3wEAAAAAAAAAgDB/RV8AAAAAAAAAAACsS3wHAAAAAAAAAADCiO8AAAAAAAAAAEAY8R0AAAAAAAAAAAgjvgMAAAAAAAAAAGHEdwAAAAAAAAAAIIz4DgAAAAAAAAAAhBHfAQAAAAAAAACAMOI7AAAAAAAAAAAQRnwHAAAAAAAAAADCiO8AAAAAAAAAAEAY8R0AAAAAAAAAAAgjvgMAAAAAAAAAAGHEdwAAAAAAAAAAIIz4DgAAAAAAAAAAhBHfAQAAAAAAAACAMOI7AAAAAAAAAAAQRnwHAAAAAAAAAADCiO8AAAAAAAAAAEAY8R0AAAAAAAAAAAgjvgMAAAAAAAAAAGHEdwAAAAAAAAAAIIz4DgAAAAAAAAAAhBHfAQAAAAAAAACAMOI7AAAAAAAAAAAQRnwHAAAAAAAAAADCiO8AAAAAAAAAAEAY8R0AAAAAAAAAAAgjvgMAAP+/XTsWAAAAABjkbz2MPcURAAAAAADARt8BAAAAAAAAAICNvgMAAAAAAAAAABt9BwAAAAAAAAAANvoOAAAAAAAAAABs9B0AAAAAAAAAANjoOwAAAAAAAAAAsNF3AAAAAAAAAABgo+8AAAAAAAAAAMBG3wEAAAAAAAAAgI2+AwAAAAAAAAAAG30HAAAAAAAAAAA2+g4AAAAAAAAAAGz0HQAAAAAAAAAA2Og7AAAAAAAAAACw0XcAAAAAAAAAAGCj7wAAAAAAAAAAwEbfAQAAAAAAAACAjb4DAAAAAAAAAAAbfQcAAAAAAAAAADb6DgAAAAAAAAAAbPQdAAAAAAAAAADY6DsAAAAAAAAAALDRdwAAAAAAAAAAYKPvAAAAAAAAAADARt8BAAAAAAAAAIBNU3H4aRTkcjgAAAAASUVORK5CYII=;" parent="1" vertex="1">
          <mxGeometry x="576.25" y="990" width="585" height="396" as="geometry" />
        </mxCell>
        <mxCell id="IZgi5f1fYp0vKWYEMyVF-39" value="" style="shape=table;startSize=0;container=1;collapsible=0;childLayout=tableLayout;fontSize=20;" parent="1" vertex="1">
          <mxGeometry x="570.25" y="1440" width="614.75" height="300" as="geometry" />
        </mxCell>
        <mxCell id="IZgi5f1fYp0vKWYEMyVF-40" value="" style="shape=tableRow;horizontal=0;startSize=0;swimlaneHead=0;swimlaneBody=0;strokeColor=inherit;top=0;left=0;bottom=0;right=0;collapsible=0;dropTarget=0;fillColor=none;points=[[0,0.5],[1,0.5]];portConstraint=eastwest;fontSize=20;" parent="IZgi5f1fYp0vKWYEMyVF-39" vertex="1">
          <mxGeometry width="614.75" height="60" as="geometry" />
        </mxCell>
        <mxCell id="IZgi5f1fYp0vKWYEMyVF-41" value="" style="shape=partialRectangle;html=1;whiteSpace=wrap;connectable=0;strokeColor=inherit;overflow=hidden;fillColor=none;top=0;left=0;bottom=0;right=0;pointerEvents=1;fontSize=20;" parent="IZgi5f1fYp0vKWYEMyVF-40" vertex="1">
          <mxGeometry width="61" height="60" as="geometry">
            <mxRectangle width="61" height="60" as="alternateBounds" />
          </mxGeometry>
        </mxCell>
        <mxCell id="IZgi5f1fYp0vKWYEMyVF-42" value="1" style="shape=partialRectangle;html=1;whiteSpace=wrap;connectable=0;strokeColor=inherit;overflow=hidden;fillColor=none;top=0;left=0;bottom=0;right=0;pointerEvents=1;fontSize=20;" parent="IZgi5f1fYp0vKWYEMyVF-40" vertex="1">
          <mxGeometry x="61" width="62" height="60" as="geometry">
            <mxRectangle width="62" height="60" as="alternateBounds" />
          </mxGeometry>
        </mxCell>
        <mxCell id="IZgi5f1fYp0vKWYEMyVF-43" value="2" style="shape=partialRectangle;html=1;whiteSpace=wrap;connectable=0;strokeColor=inherit;overflow=hidden;fillColor=none;top=0;left=0;bottom=0;right=0;pointerEvents=1;fontSize=20;" parent="IZgi5f1fYp0vKWYEMyVF-40" vertex="1">
          <mxGeometry x="123" width="61" height="60" as="geometry">
            <mxRectangle width="61" height="60" as="alternateBounds" />
          </mxGeometry>
        </mxCell>
        <mxCell id="IZgi5f1fYp0vKWYEMyVF-44" value="3" style="shape=partialRectangle;html=1;whiteSpace=wrap;connectable=0;strokeColor=inherit;overflow=hidden;fillColor=none;top=0;left=0;bottom=0;right=0;pointerEvents=1;fontSize=20;" parent="IZgi5f1fYp0vKWYEMyVF-40" vertex="1">
          <mxGeometry x="184" width="62" height="60" as="geometry">
            <mxRectangle width="62" height="60" as="alternateBounds" />
          </mxGeometry>
        </mxCell>
        <mxCell id="IZgi5f1fYp0vKWYEMyVF-45" value="4" style="shape=partialRectangle;html=1;whiteSpace=wrap;connectable=0;strokeColor=inherit;overflow=hidden;fillColor=none;top=0;left=0;bottom=0;right=0;pointerEvents=1;fontSize=20;" parent="IZgi5f1fYp0vKWYEMyVF-40" vertex="1">
          <mxGeometry x="246" width="61" height="60" as="geometry">
            <mxRectangle width="61" height="60" as="alternateBounds" />
          </mxGeometry>
        </mxCell>
        <mxCell id="IZgi5f1fYp0vKWYEMyVF-46" value="5" style="shape=partialRectangle;html=1;whiteSpace=wrap;connectable=0;strokeColor=inherit;overflow=hidden;fillColor=none;top=0;left=0;bottom=0;right=0;pointerEvents=1;fontSize=20;" parent="IZgi5f1fYp0vKWYEMyVF-40" vertex="1">
          <mxGeometry x="307" width="62" height="60" as="geometry">
            <mxRectangle width="62" height="60" as="alternateBounds" />
          </mxGeometry>
        </mxCell>
        <mxCell id="IZgi5f1fYp0vKWYEMyVF-47" value="6" style="shape=partialRectangle;html=1;whiteSpace=wrap;connectable=0;strokeColor=inherit;overflow=hidden;fillColor=none;top=0;left=0;bottom=0;right=0;pointerEvents=1;fontSize=20;" parent="IZgi5f1fYp0vKWYEMyVF-40" vertex="1">
          <mxGeometry x="369" width="61" height="60" as="geometry">
            <mxRectangle width="61" height="60" as="alternateBounds" />
          </mxGeometry>
        </mxCell>
        <mxCell id="IZgi5f1fYp0vKWYEMyVF-48" value="7" style="shape=partialRectangle;html=1;whiteSpace=wrap;connectable=0;strokeColor=inherit;overflow=hidden;fillColor=none;top=0;left=0;bottom=0;right=0;pointerEvents=1;fontSize=20;" parent="IZgi5f1fYp0vKWYEMyVF-40" vertex="1">
          <mxGeometry x="430" width="62" height="60" as="geometry">
            <mxRectangle width="62" height="60" as="alternateBounds" />
          </mxGeometry>
        </mxCell>
        <mxCell id="IZgi5f1fYp0vKWYEMyVF-49" value="8" style="shape=partialRectangle;html=1;whiteSpace=wrap;connectable=0;strokeColor=inherit;overflow=hidden;fillColor=none;top=0;left=0;bottom=0;right=0;pointerEvents=1;fontSize=20;" parent="IZgi5f1fYp0vKWYEMyVF-40" vertex="1">
          <mxGeometry x="492" width="61" height="60" as="geometry">
            <mxRectangle width="61" height="60" as="alternateBounds" />
          </mxGeometry>
        </mxCell>
        <mxCell id="IZgi5f1fYp0vKWYEMyVF-50" value="9" style="shape=partialRectangle;html=1;whiteSpace=wrap;connectable=0;strokeColor=inherit;overflow=hidden;fillColor=none;top=0;left=0;bottom=0;right=0;pointerEvents=1;fontSize=20;" parent="IZgi5f1fYp0vKWYEMyVF-40" vertex="1">
          <mxGeometry x="553" width="62" height="60" as="geometry">
            <mxRectangle width="62" height="60" as="alternateBounds" />
          </mxGeometry>
        </mxCell>
        <mxCell id="IZgi5f1fYp0vKWYEMyVF-51" value="" style="shape=tableRow;horizontal=0;startSize=0;swimlaneHead=0;swimlaneBody=0;strokeColor=inherit;top=0;left=0;bottom=0;right=0;collapsible=0;dropTarget=0;fillColor=none;points=[[0,0.5],[1,0.5]];portConstraint=eastwest;fontSize=20;" parent="IZgi5f1fYp0vKWYEMyVF-39" vertex="1">
          <mxGeometry y="60" width="614.75" height="60" as="geometry" />
        </mxCell>
        <mxCell id="IZgi5f1fYp0vKWYEMyVF-52" value="A" style="shape=partialRectangle;html=1;whiteSpace=wrap;connectable=0;strokeColor=inherit;overflow=hidden;fillColor=none;top=0;left=0;bottom=0;right=0;pointerEvents=1;fontSize=20;" parent="IZgi5f1fYp0vKWYEMyVF-51" vertex="1">
          <mxGeometry width="61" height="60" as="geometry">
            <mxRectangle width="61" height="60" as="alternateBounds" />
          </mxGeometry>
        </mxCell>
        <mxCell id="IZgi5f1fYp0vKWYEMyVF-53" value="0.206" style="shape=partialRectangle;html=1;whiteSpace=wrap;connectable=0;strokeColor=inherit;overflow=hidden;fillColor=none;top=0;left=0;bottom=0;right=0;pointerEvents=1;fontSize=20;" parent="IZgi5f1fYp0vKWYEMyVF-51" vertex="1">
          <mxGeometry x="61" width="62" height="60" as="geometry">
            <mxRectangle width="62" height="60" as="alternateBounds" />
          </mxGeometry>
        </mxCell>
        <mxCell id="IZgi5f1fYp0vKWYEMyVF-54" value="0.059" style="shape=partialRectangle;html=1;whiteSpace=wrap;connectable=0;strokeColor=inherit;overflow=hidden;fillColor=none;top=0;left=0;bottom=0;right=0;pointerEvents=1;fontSize=20;" parent="IZgi5f1fYp0vKWYEMyVF-51" vertex="1">
          <mxGeometry x="123" width="61" height="60" as="geometry">
            <mxRectangle width="61" height="60" as="alternateBounds" />
          </mxGeometry>
        </mxCell>
        <mxCell id="IZgi5f1fYp0vKWYEMyVF-55" value="0.588" style="shape=partialRectangle;html=1;whiteSpace=wrap;connectable=0;strokeColor=inherit;overflow=hidden;fillColor=none;top=0;left=0;bottom=0;right=0;pointerEvents=1;fontSize=20;" parent="IZgi5f1fYp0vKWYEMyVF-51" vertex="1">
          <mxGeometry x="184" width="62" height="60" as="geometry">
            <mxRectangle width="62" height="60" as="alternateBounds" />
          </mxGeometry>
        </mxCell>
        <mxCell id="IZgi5f1fYp0vKWYEMyVF-56" value="0.029" style="shape=partialRectangle;html=1;whiteSpace=wrap;connectable=0;strokeColor=inherit;overflow=hidden;fillColor=none;top=0;left=0;bottom=0;right=0;pointerEvents=1;fontSize=20;" parent="IZgi5f1fYp0vKWYEMyVF-51" vertex="1">
          <mxGeometry x="246" width="61" height="60" as="geometry">
            <mxRectangle width="61" height="60" as="alternateBounds" />
          </mxGeometry>
        </mxCell>
        <mxCell id="IZgi5f1fYp0vKWYEMyVF-57" value="0" style="shape=partialRectangle;html=1;whiteSpace=wrap;connectable=0;strokeColor=inherit;overflow=hidden;fillColor=none;top=0;left=0;bottom=0;right=0;pointerEvents=1;fontSize=20;" parent="IZgi5f1fYp0vKWYEMyVF-51" vertex="1">
          <mxGeometry x="307" width="62" height="60" as="geometry">
            <mxRectangle width="62" height="60" as="alternateBounds" />
          </mxGeometry>
        </mxCell>
        <mxCell id="IZgi5f1fYp0vKWYEMyVF-58" value="0" style="shape=partialRectangle;html=1;whiteSpace=wrap;connectable=0;strokeColor=inherit;overflow=hidden;fillColor=none;top=0;left=0;bottom=0;right=0;pointerEvents=1;fontSize=20;" parent="IZgi5f1fYp0vKWYEMyVF-51" vertex="1">
          <mxGeometry x="369" width="61" height="60" as="geometry">
            <mxRectangle width="61" height="60" as="alternateBounds" />
          </mxGeometry>
        </mxCell>
        <mxCell id="IZgi5f1fYp0vKWYEMyVF-59" value="0.059" style="shape=partialRectangle;html=1;whiteSpace=wrap;connectable=0;strokeColor=inherit;overflow=hidden;fillColor=none;top=0;left=0;bottom=0;right=0;pointerEvents=1;fontSize=20;" parent="IZgi5f1fYp0vKWYEMyVF-51" vertex="1">
          <mxGeometry x="430" width="62" height="60" as="geometry">
            <mxRectangle width="62" height="60" as="alternateBounds" />
          </mxGeometry>
        </mxCell>
        <mxCell id="IZgi5f1fYp0vKWYEMyVF-60" value="0" style="shape=partialRectangle;html=1;whiteSpace=wrap;connectable=0;strokeColor=inherit;overflow=hidden;fillColor=none;top=0;left=0;bottom=0;right=0;pointerEvents=1;fontSize=20;" parent="IZgi5f1fYp0vKWYEMyVF-51" vertex="1">
          <mxGeometry x="492" width="61" height="60" as="geometry">
            <mxRectangle width="61" height="60" as="alternateBounds" />
          </mxGeometry>
        </mxCell>
        <mxCell id="IZgi5f1fYp0vKWYEMyVF-61" value="0.059" style="shape=partialRectangle;html=1;whiteSpace=wrap;connectable=0;strokeColor=inherit;overflow=hidden;fillColor=none;top=0;left=0;bottom=0;right=0;pointerEvents=1;fontSize=20;" parent="IZgi5f1fYp0vKWYEMyVF-51" vertex="1">
          <mxGeometry x="553" width="62" height="60" as="geometry">
            <mxRectangle width="62" height="60" as="alternateBounds" />
          </mxGeometry>
        </mxCell>
        <mxCell id="IZgi5f1fYp0vKWYEMyVF-62" value="" style="shape=tableRow;horizontal=0;startSize=0;swimlaneHead=0;swimlaneBody=0;strokeColor=inherit;top=0;left=0;bottom=0;right=0;collapsible=0;dropTarget=0;fillColor=none;points=[[0,0.5],[1,0.5]];portConstraint=eastwest;fontSize=20;" parent="IZgi5f1fYp0vKWYEMyVF-39" vertex="1">
          <mxGeometry y="120" width="614.75" height="60" as="geometry" />
        </mxCell>
        <mxCell id="IZgi5f1fYp0vKWYEMyVF-63" value="C" style="shape=partialRectangle;html=1;whiteSpace=wrap;connectable=0;strokeColor=inherit;overflow=hidden;fillColor=none;top=0;left=0;bottom=0;right=0;pointerEvents=1;fontSize=20;" parent="IZgi5f1fYp0vKWYEMyVF-62" vertex="1">
          <mxGeometry width="61" height="60" as="geometry">
            <mxRectangle width="61" height="60" as="alternateBounds" />
          </mxGeometry>
        </mxCell>
        <mxCell id="IZgi5f1fYp0vKWYEMyVF-64" value="0.235" style="shape=partialRectangle;html=1;whiteSpace=wrap;connectable=0;strokeColor=inherit;overflow=hidden;fillColor=none;top=0;left=0;bottom=0;right=0;pointerEvents=1;fontSize=20;" parent="IZgi5f1fYp0vKWYEMyVF-62" vertex="1">
          <mxGeometry x="61" width="62" height="60" as="geometry">
            <mxRectangle width="62" height="60" as="alternateBounds" />
          </mxGeometry>
        </mxCell>
        <mxCell id="IZgi5f1fYp0vKWYEMyVF-65" value="0.176" style="shape=partialRectangle;html=1;whiteSpace=wrap;connectable=0;strokeColor=inherit;overflow=hidden;fillColor=none;top=0;left=0;bottom=0;right=0;pointerEvents=1;fontSize=20;" parent="IZgi5f1fYp0vKWYEMyVF-62" vertex="1">
          <mxGeometry x="123" width="61" height="60" as="geometry">
            <mxRectangle width="61" height="60" as="alternateBounds" />
          </mxGeometry>
        </mxCell>
        <mxCell id="IZgi5f1fYp0vKWYEMyVF-66" value="0" style="shape=partialRectangle;html=1;whiteSpace=wrap;connectable=0;strokeColor=inherit;overflow=hidden;fillColor=none;top=0;left=0;bottom=0;right=0;pointerEvents=1;fontSize=20;" parent="IZgi5f1fYp0vKWYEMyVF-62" vertex="1">
          <mxGeometry x="184" width="62" height="60" as="geometry">
            <mxRectangle width="62" height="60" as="alternateBounds" />
          </mxGeometry>
        </mxCell>
        <mxCell id="IZgi5f1fYp0vKWYEMyVF-67" value="0" style="shape=partialRectangle;html=1;whiteSpace=wrap;connectable=0;strokeColor=inherit;overflow=hidden;fillColor=none;top=0;left=0;bottom=0;right=0;pointerEvents=1;fontSize=20;" parent="IZgi5f1fYp0vKWYEMyVF-62" vertex="1">
          <mxGeometry x="246" width="61" height="60" as="geometry">
            <mxRectangle width="61" height="60" as="alternateBounds" />
          </mxGeometry>
        </mxCell>
        <mxCell id="IZgi5f1fYp0vKWYEMyVF-68" value="1" style="shape=partialRectangle;html=1;whiteSpace=wrap;connectable=0;strokeColor=inherit;overflow=hidden;fillColor=none;top=0;left=0;bottom=0;right=0;pointerEvents=1;fontSize=20;" parent="IZgi5f1fYp0vKWYEMyVF-62" vertex="1">
          <mxGeometry x="307" width="62" height="60" as="geometry">
            <mxRectangle width="62" height="60" as="alternateBounds" />
          </mxGeometry>
        </mxCell>
        <mxCell id="IZgi5f1fYp0vKWYEMyVF-69" value="0" style="shape=partialRectangle;html=1;whiteSpace=wrap;connectable=0;strokeColor=inherit;overflow=hidden;fillColor=none;top=0;left=0;bottom=0;right=0;pointerEvents=1;fontSize=20;" parent="IZgi5f1fYp0vKWYEMyVF-62" vertex="1">
          <mxGeometry x="369" width="61" height="60" as="geometry">
            <mxRectangle width="61" height="60" as="alternateBounds" />
          </mxGeometry>
        </mxCell>
        <mxCell id="IZgi5f1fYp0vKWYEMyVF-70" value="0.941" style="shape=partialRectangle;html=1;whiteSpace=wrap;connectable=0;strokeColor=inherit;overflow=hidden;fillColor=none;top=0;left=0;bottom=0;right=0;pointerEvents=1;fontSize=20;" parent="IZgi5f1fYp0vKWYEMyVF-62" vertex="1">
          <mxGeometry x="430" width="62" height="60" as="geometry">
            <mxRectangle width="62" height="60" as="alternateBounds" />
          </mxGeometry>
        </mxCell>
        <mxCell id="IZgi5f1fYp0vKWYEMyVF-71" value="0" style="shape=partialRectangle;html=1;whiteSpace=wrap;connectable=0;strokeColor=inherit;overflow=hidden;fillColor=none;top=0;left=0;bottom=0;right=0;pointerEvents=1;fontSize=20;" parent="IZgi5f1fYp0vKWYEMyVF-62" vertex="1">
          <mxGeometry x="492" width="61" height="60" as="geometry">
            <mxRectangle width="61" height="60" as="alternateBounds" />
          </mxGeometry>
        </mxCell>
        <mxCell id="IZgi5f1fYp0vKWYEMyVF-72" value="0.471" style="shape=partialRectangle;html=1;whiteSpace=wrap;connectable=0;strokeColor=inherit;overflow=hidden;fillColor=none;top=0;left=0;bottom=0;right=0;pointerEvents=1;fontSize=20;" parent="IZgi5f1fYp0vKWYEMyVF-62" vertex="1">
          <mxGeometry x="553" width="62" height="60" as="geometry">
            <mxRectangle width="62" height="60" as="alternateBounds" />
          </mxGeometry>
        </mxCell>
        <mxCell id="IZgi5f1fYp0vKWYEMyVF-73" value="" style="shape=tableRow;horizontal=0;startSize=0;swimlaneHead=0;swimlaneBody=0;strokeColor=inherit;top=0;left=0;bottom=0;right=0;collapsible=0;dropTarget=0;fillColor=none;points=[[0,0.5],[1,0.5]];portConstraint=eastwest;fontSize=20;" parent="IZgi5f1fYp0vKWYEMyVF-39" vertex="1">
          <mxGeometry y="180" width="614.75" height="60" as="geometry" />
        </mxCell>
        <mxCell id="IZgi5f1fYp0vKWYEMyVF-74" value="G" style="shape=partialRectangle;html=1;whiteSpace=wrap;connectable=0;strokeColor=inherit;overflow=hidden;fillColor=none;top=0;left=0;bottom=0;right=0;pointerEvents=1;fontSize=20;" parent="IZgi5f1fYp0vKWYEMyVF-73" vertex="1">
          <mxGeometry width="61" height="60" as="geometry">
            <mxRectangle width="61" height="60" as="alternateBounds" />
          </mxGeometry>
        </mxCell>
        <mxCell id="IZgi5f1fYp0vKWYEMyVF-75" value="0.412" style="shape=partialRectangle;html=1;whiteSpace=wrap;connectable=0;strokeColor=inherit;overflow=hidden;fillColor=none;top=0;left=0;bottom=0;right=0;pointerEvents=1;fontSize=20;" parent="IZgi5f1fYp0vKWYEMyVF-73" vertex="1">
          <mxGeometry x="61" width="62" height="60" as="geometry">
            <mxRectangle width="62" height="60" as="alternateBounds" />
          </mxGeometry>
        </mxCell>
        <mxCell id="IZgi5f1fYp0vKWYEMyVF-76" value="0.765" style="shape=partialRectangle;html=1;whiteSpace=wrap;connectable=0;strokeColor=inherit;overflow=hidden;fillColor=none;top=0;left=0;bottom=0;right=0;pointerEvents=1;fontSize=20;" parent="IZgi5f1fYp0vKWYEMyVF-73" vertex="1">
          <mxGeometry x="123" width="61" height="60" as="geometry">
            <mxRectangle width="61" height="60" as="alternateBounds" />
          </mxGeometry>
        </mxCell>
        <mxCell id="IZgi5f1fYp0vKWYEMyVF-77" value="0" style="shape=partialRectangle;html=1;whiteSpace=wrap;connectable=0;strokeColor=inherit;overflow=hidden;fillColor=none;top=0;left=0;bottom=0;right=0;pointerEvents=1;fontSize=20;" parent="IZgi5f1fYp0vKWYEMyVF-73" vertex="1">
          <mxGeometry x="184" width="62" height="60" as="geometry">
            <mxRectangle width="62" height="60" as="alternateBounds" />
          </mxGeometry>
        </mxCell>
        <mxCell id="IZgi5f1fYp0vKWYEMyVF-78" value="0.971" style="shape=partialRectangle;html=1;whiteSpace=wrap;connectable=0;strokeColor=inherit;overflow=hidden;fillColor=none;top=0;left=0;bottom=0;right=0;pointerEvents=1;fontSize=20;" parent="IZgi5f1fYp0vKWYEMyVF-73" vertex="1">
          <mxGeometry x="246" width="61" height="60" as="geometry">
            <mxRectangle width="61" height="60" as="alternateBounds" />
          </mxGeometry>
        </mxCell>
        <mxCell id="IZgi5f1fYp0vKWYEMyVF-79" value="0" style="shape=partialRectangle;html=1;whiteSpace=wrap;connectable=0;strokeColor=inherit;overflow=hidden;fillColor=none;top=0;left=0;bottom=0;right=0;pointerEvents=1;fontSize=20;" parent="IZgi5f1fYp0vKWYEMyVF-73" vertex="1">
          <mxGeometry x="307" width="62" height="60" as="geometry">
            <mxRectangle width="62" height="60" as="alternateBounds" />
          </mxGeometry>
        </mxCell>
        <mxCell id="IZgi5f1fYp0vKWYEMyVF-80" value="1" style="shape=partialRectangle;html=1;whiteSpace=wrap;connectable=0;strokeColor=inherit;overflow=hidden;fillColor=none;top=0;left=0;bottom=0;right=0;pointerEvents=1;fontSize=20;" parent="IZgi5f1fYp0vKWYEMyVF-73" vertex="1">
          <mxGeometry x="369" width="61" height="60" as="geometry">
            <mxRectangle width="61" height="60" as="alternateBounds" />
          </mxGeometry>
        </mxCell>
        <mxCell id="IZgi5f1fYp0vKWYEMyVF-81" value="0" style="shape=partialRectangle;html=1;whiteSpace=wrap;connectable=0;strokeColor=inherit;overflow=hidden;fillColor=none;top=0;left=0;bottom=0;right=0;pointerEvents=1;fontSize=20;" parent="IZgi5f1fYp0vKWYEMyVF-73" vertex="1">
          <mxGeometry x="430" width="62" height="60" as="geometry">
            <mxRectangle width="62" height="60" as="alternateBounds" />
          </mxGeometry>
        </mxCell>
        <mxCell id="IZgi5f1fYp0vKWYEMyVF-82" value="1" style="shape=partialRectangle;html=1;whiteSpace=wrap;connectable=0;strokeColor=inherit;overflow=hidden;fillColor=none;top=0;left=0;bottom=0;right=0;pointerEvents=1;fontSize=20;" parent="IZgi5f1fYp0vKWYEMyVF-73" vertex="1">
          <mxGeometry x="492" width="61" height="60" as="geometry">
            <mxRectangle width="61" height="60" as="alternateBounds" />
          </mxGeometry>
        </mxCell>
        <mxCell id="IZgi5f1fYp0vKWYEMyVF-83" value="0.235" style="shape=partialRectangle;html=1;whiteSpace=wrap;connectable=0;strokeColor=inherit;overflow=hidden;fillColor=none;top=0;left=0;bottom=0;right=0;pointerEvents=1;fontSize=20;" parent="IZgi5f1fYp0vKWYEMyVF-73" vertex="1">
          <mxGeometry x="553" width="62" height="60" as="geometry">
            <mxRectangle width="62" height="60" as="alternateBounds" />
          </mxGeometry>
        </mxCell>
        <mxCell id="IZgi5f1fYp0vKWYEMyVF-84" value="" style="shape=tableRow;horizontal=0;startSize=0;swimlaneHead=0;swimlaneBody=0;strokeColor=inherit;top=0;left=0;bottom=0;right=0;collapsible=0;dropTarget=0;fillColor=none;points=[[0,0.5],[1,0.5]];portConstraint=eastwest;fontSize=20;" parent="IZgi5f1fYp0vKWYEMyVF-39" vertex="1">
          <mxGeometry y="240" width="614.75" height="60" as="geometry" />
        </mxCell>
        <mxCell id="IZgi5f1fYp0vKWYEMyVF-85" value="T" style="shape=partialRectangle;html=1;whiteSpace=wrap;connectable=0;strokeColor=inherit;overflow=hidden;fillColor=none;top=0;left=0;bottom=0;right=0;pointerEvents=1;fontSize=20;" parent="IZgi5f1fYp0vKWYEMyVF-84" vertex="1">
          <mxGeometry width="61" height="60" as="geometry">
            <mxRectangle width="61" height="60" as="alternateBounds" />
          </mxGeometry>
        </mxCell>
        <mxCell id="IZgi5f1fYp0vKWYEMyVF-86" value="0.147" style="shape=partialRectangle;html=1;whiteSpace=wrap;connectable=0;strokeColor=inherit;overflow=hidden;fillColor=none;top=0;left=0;bottom=0;right=0;pointerEvents=1;fontSize=20;" parent="IZgi5f1fYp0vKWYEMyVF-84" vertex="1">
          <mxGeometry x="61" width="62" height="60" as="geometry">
            <mxRectangle width="62" height="60" as="alternateBounds" />
          </mxGeometry>
        </mxCell>
        <mxCell id="IZgi5f1fYp0vKWYEMyVF-87" value="0" style="shape=partialRectangle;html=1;whiteSpace=wrap;connectable=0;strokeColor=inherit;overflow=hidden;fillColor=none;top=0;left=0;bottom=0;right=0;pointerEvents=1;fontSize=20;" parent="IZgi5f1fYp0vKWYEMyVF-84" vertex="1">
          <mxGeometry x="123" width="61" height="60" as="geometry">
            <mxRectangle width="61" height="60" as="alternateBounds" />
          </mxGeometry>
        </mxCell>
        <mxCell id="IZgi5f1fYp0vKWYEMyVF-88" value="0.412" style="shape=partialRectangle;html=1;whiteSpace=wrap;connectable=0;strokeColor=inherit;overflow=hidden;fillColor=none;top=0;left=0;bottom=0;right=0;pointerEvents=1;fontSize=20;" parent="IZgi5f1fYp0vKWYEMyVF-84" vertex="1">
          <mxGeometry x="184" width="62" height="60" as="geometry">
            <mxRectangle width="62" height="60" as="alternateBounds" />
          </mxGeometry>
        </mxCell>
        <mxCell id="IZgi5f1fYp0vKWYEMyVF-89" value="0" style="shape=partialRectangle;html=1;whiteSpace=wrap;connectable=0;strokeColor=inherit;overflow=hidden;fillColor=none;top=0;left=0;bottom=0;right=0;pointerEvents=1;fontSize=20;" parent="IZgi5f1fYp0vKWYEMyVF-84" vertex="1">
          <mxGeometry x="246" width="61" height="60" as="geometry">
            <mxRectangle width="61" height="60" as="alternateBounds" />
          </mxGeometry>
        </mxCell>
        <mxCell id="IZgi5f1fYp0vKWYEMyVF-90" value="0" style="shape=partialRectangle;html=1;whiteSpace=wrap;connectable=0;strokeColor=inherit;overflow=hidden;fillColor=none;top=0;left=0;bottom=0;right=0;pointerEvents=1;fontSize=20;" parent="IZgi5f1fYp0vKWYEMyVF-84" vertex="1">
          <mxGeometry x="307" width="62" height="60" as="geometry">
            <mxRectangle width="62" height="60" as="alternateBounds" />
          </mxGeometry>
        </mxCell>
        <mxCell id="IZgi5f1fYp0vKWYEMyVF-91" value="0" style="shape=partialRectangle;html=1;whiteSpace=wrap;connectable=0;strokeColor=inherit;overflow=hidden;fillColor=none;top=0;left=0;bottom=0;right=0;pointerEvents=1;fontSize=20;" parent="IZgi5f1fYp0vKWYEMyVF-84" vertex="1">
          <mxGeometry x="369" width="61" height="60" as="geometry">
            <mxRectangle width="61" height="60" as="alternateBounds" />
          </mxGeometry>
        </mxCell>
        <mxCell id="IZgi5f1fYp0vKWYEMyVF-92" value="0" style="shape=partialRectangle;html=1;whiteSpace=wrap;connectable=0;strokeColor=inherit;overflow=hidden;fillColor=none;top=0;left=0;bottom=0;right=0;pointerEvents=1;fontSize=20;" parent="IZgi5f1fYp0vKWYEMyVF-84" vertex="1">
          <mxGeometry x="430" width="62" height="60" as="geometry">
            <mxRectangle width="62" height="60" as="alternateBounds" />
          </mxGeometry>
        </mxCell>
        <mxCell id="IZgi5f1fYp0vKWYEMyVF-93" value="0" style="shape=partialRectangle;html=1;whiteSpace=wrap;connectable=0;strokeColor=inherit;overflow=hidden;fillColor=none;top=0;left=0;bottom=0;right=0;pointerEvents=1;fontSize=20;" parent="IZgi5f1fYp0vKWYEMyVF-84" vertex="1">
          <mxGeometry x="492" width="61" height="60" as="geometry">
            <mxRectangle width="61" height="60" as="alternateBounds" />
          </mxGeometry>
        </mxCell>
        <mxCell id="IZgi5f1fYp0vKWYEMyVF-94" value="0.235" style="shape=partialRectangle;html=1;whiteSpace=wrap;connectable=0;strokeColor=inherit;overflow=hidden;fillColor=none;top=0;left=0;bottom=0;right=0;pointerEvents=1;fontSize=20;" parent="IZgi5f1fYp0vKWYEMyVF-84" vertex="1">
          <mxGeometry x="553" width="62" height="60" as="geometry">
            <mxRectangle width="62" height="60" as="alternateBounds" />
          </mxGeometry>
        </mxCell>
        <mxCell id="IZgi5f1fYp0vKWYEMyVF-95" value="&lt;font style=&quot;font-size: 28px;&quot;&gt;Position Probability Matrix&lt;/font&gt;" style="text;html=1;strokeColor=none;fillColor=none;align=center;verticalAlign=middle;whiteSpace=wrap;rounded=0;" parent="1" vertex="1">
          <mxGeometry x="690" y="1398" width="352" height="30" as="geometry" />
        </mxCell>
        <mxCell id="IZgi5f1fYp0vKWYEMyVF-96" value="&lt;font style=&quot;font-size: 24px;&quot;&gt;pre&amp;nbsp; 1 &lt;b&gt;2&lt;/b&gt; 3 4 5 6&amp;nbsp; next&lt;/font&gt;" style="text;html=1;strokeColor=none;fillColor=none;align=left;verticalAlign=middle;whiteSpace=wrap;rounded=0;" parent="1" vertex="1">
          <mxGeometry x="443" y="1754" width="288" height="30" as="geometry" />
        </mxCell>
        <mxCell id="IZgi5f1fYp0vKWYEMyVF-97" value="&lt;font style=&quot;font-size: 20px;&quot;&gt;2/13&lt;/font&gt;" style="text;html=1;strokeColor=none;fillColor=none;align=center;verticalAlign=middle;whiteSpace=wrap;rounded=0;" parent="1" vertex="1">
          <mxGeometry x="1125" y="1770" width="60" height="30" as="geometry" />
        </mxCell>
        <mxCell id="IZgi5f1fYp0vKWYEMyVF-98" value="" style="shape=table;startSize=0;container=1;collapsible=0;childLayout=tableLayout;fillColor=#f5f5f5;fontColor=#333333;strokeColor=#666666;" parent="1" vertex="1">
          <mxGeometry x="-135" y="1222" width="540" height="585" as="geometry" />
        </mxCell>
        <mxCell id="IZgi5f1fYp0vKWYEMyVF-99" value="" style="shape=tableRow;horizontal=0;startSize=0;swimlaneHead=0;swimlaneBody=0;strokeColor=inherit;top=0;left=0;bottom=0;right=0;collapsible=0;dropTarget=0;fillColor=none;points=[[0,0.5],[1,0.5]];portConstraint=eastwest;" parent="IZgi5f1fYp0vKWYEMyVF-98" vertex="1">
          <mxGeometry width="540" height="100" as="geometry" />
        </mxCell>
        <mxCell id="IZgi5f1fYp0vKWYEMyVF-100" value="&lt;font style=&quot;font-size: 24px;&quot;&gt;GEO Number&lt;/font&gt;" style="shape=partialRectangle;html=1;whiteSpace=wrap;connectable=0;strokeColor=inherit;overflow=hidden;fillColor=none;top=0;left=0;bottom=0;right=0;pointerEvents=1;" parent="IZgi5f1fYp0vKWYEMyVF-99" vertex="1">
          <mxGeometry width="180" height="100" as="geometry">
            <mxRectangle width="180" height="100" as="alternateBounds" />
          </mxGeometry>
        </mxCell>
        <mxCell id="IZgi5f1fYp0vKWYEMyVF-101" value="&lt;font style=&quot;font-size: 24px;&quot;&gt;Biosample Type&lt;br&gt;&lt;/font&gt;" style="shape=partialRectangle;html=1;whiteSpace=wrap;connectable=0;strokeColor=inherit;overflow=hidden;fillColor=none;top=0;left=0;bottom=0;right=0;pointerEvents=1;" parent="IZgi5f1fYp0vKWYEMyVF-99" vertex="1">
          <mxGeometry x="180" width="180" height="100" as="geometry">
            <mxRectangle width="180" height="100" as="alternateBounds" />
          </mxGeometry>
        </mxCell>
        <mxCell id="IZgi5f1fYp0vKWYEMyVF-102" value="&lt;font style=&quot;font-size: 24px;&quot;&gt;Biosample Summary&lt;/font&gt;" style="shape=partialRectangle;html=1;whiteSpace=wrap;connectable=0;strokeColor=inherit;overflow=hidden;fillColor=none;top=0;left=0;bottom=0;right=0;pointerEvents=1;" parent="IZgi5f1fYp0vKWYEMyVF-99" vertex="1">
          <mxGeometry x="360" width="180" height="100" as="geometry">
            <mxRectangle width="180" height="100" as="alternateBounds" />
          </mxGeometry>
        </mxCell>
        <mxCell id="IZgi5f1fYp0vKWYEMyVF-103" value="" style="shape=tableRow;horizontal=0;startSize=0;swimlaneHead=0;swimlaneBody=0;strokeColor=inherit;top=0;left=0;bottom=0;right=0;collapsible=0;dropTarget=0;fillColor=none;points=[[0,0.5],[1,0.5]];portConstraint=eastwest;fontSize=24;" parent="IZgi5f1fYp0vKWYEMyVF-98" vertex="1">
          <mxGeometry y="100" width="540" height="96" as="geometry" />
        </mxCell>
        <mxCell id="IZgi5f1fYp0vKWYEMyVF-104" value="GSE172962" style="shape=partialRectangle;html=1;whiteSpace=wrap;connectable=0;strokeColor=inherit;overflow=hidden;fillColor=none;top=0;left=0;bottom=0;right=0;pointerEvents=1;fontSize=24;" parent="IZgi5f1fYp0vKWYEMyVF-103" vertex="1">
          <mxGeometry width="180" height="96" as="geometry">
            <mxRectangle width="180" height="96" as="alternateBounds" />
          </mxGeometry>
        </mxCell>
        <mxCell id="IZgi5f1fYp0vKWYEMyVF-105" value="&amp;nbsp;cell line" style="shape=partialRectangle;html=1;whiteSpace=wrap;connectable=0;strokeColor=inherit;overflow=hidden;fillColor=none;top=0;left=0;bottom=0;right=0;pointerEvents=1;fontSize=24;" parent="IZgi5f1fYp0vKWYEMyVF-103" vertex="1">
          <mxGeometry x="180" width="180" height="96" as="geometry">
            <mxRectangle width="180" height="96" as="alternateBounds" />
          </mxGeometry>
        </mxCell>
        <mxCell id="IZgi5f1fYp0vKWYEMyVF-106" value="GM19043" style="shape=partialRectangle;html=1;whiteSpace=wrap;connectable=0;strokeColor=inherit;overflow=hidden;fillColor=none;top=0;left=0;bottom=0;right=0;pointerEvents=1;fontSize=24;" parent="IZgi5f1fYp0vKWYEMyVF-103" vertex="1">
          <mxGeometry x="360" width="180" height="96" as="geometry">
            <mxRectangle width="180" height="96" as="alternateBounds" />
          </mxGeometry>
        </mxCell>
        <mxCell id="IZgi5f1fYp0vKWYEMyVF-107" value="" style="shape=tableRow;horizontal=0;startSize=0;swimlaneHead=0;swimlaneBody=0;strokeColor=inherit;top=0;left=0;bottom=0;right=0;collapsible=0;dropTarget=0;fillColor=none;points=[[0,0.5],[1,0.5]];portConstraint=eastwest;fontSize=24;" parent="IZgi5f1fYp0vKWYEMyVF-98" vertex="1">
          <mxGeometry y="196" width="540" height="94" as="geometry" />
        </mxCell>
        <mxCell id="IZgi5f1fYp0vKWYEMyVF-108" value="GSE172805" style="shape=partialRectangle;html=1;whiteSpace=wrap;connectable=0;strokeColor=inherit;overflow=hidden;fillColor=none;top=0;left=0;bottom=0;right=0;pointerEvents=1;fontSize=24;" parent="IZgi5f1fYp0vKWYEMyVF-107" vertex="1">
          <mxGeometry width="180" height="94" as="geometry">
            <mxRectangle width="180" height="94" as="alternateBounds" />
          </mxGeometry>
        </mxCell>
        <mxCell id="IZgi5f1fYp0vKWYEMyVF-109" value="&amp;nbsp;cell line" style="shape=partialRectangle;html=1;whiteSpace=wrap;connectable=0;strokeColor=inherit;overflow=hidden;fillColor=none;top=0;left=0;bottom=0;right=0;pointerEvents=1;fontSize=24;" parent="IZgi5f1fYp0vKWYEMyVF-107" vertex="1">
          <mxGeometry x="180" width="180" height="94" as="geometry">
            <mxRectangle width="180" height="94" as="alternateBounds" />
          </mxGeometry>
        </mxCell>
        <mxCell id="IZgi5f1fYp0vKWYEMyVF-110" value="GM18508" style="shape=partialRectangle;html=1;whiteSpace=wrap;connectable=0;strokeColor=inherit;overflow=hidden;fillColor=none;top=0;left=0;bottom=0;right=0;pointerEvents=1;fontSize=24;" parent="IZgi5f1fYp0vKWYEMyVF-107" vertex="1">
          <mxGeometry x="360" width="180" height="94" as="geometry">
            <mxRectangle width="180" height="94" as="alternateBounds" />
          </mxGeometry>
        </mxCell>
        <mxCell id="IZgi5f1fYp0vKWYEMyVF-111" value="" style="shape=tableRow;horizontal=0;startSize=0;swimlaneHead=0;swimlaneBody=0;strokeColor=inherit;top=0;left=0;bottom=0;right=0;collapsible=0;dropTarget=0;fillColor=none;points=[[0,0.5],[1,0.5]];portConstraint=eastwest;fontSize=24;" parent="IZgi5f1fYp0vKWYEMyVF-98" vertex="1">
          <mxGeometry y="290" width="540" height="99" as="geometry" />
        </mxCell>
        <mxCell id="IZgi5f1fYp0vKWYEMyVF-112" value="GSE172696" style="shape=partialRectangle;html=1;whiteSpace=wrap;connectable=0;strokeColor=inherit;overflow=hidden;fillColor=none;top=0;left=0;bottom=0;right=0;pointerEvents=1;fontSize=24;" parent="IZgi5f1fYp0vKWYEMyVF-111" vertex="1">
          <mxGeometry width="180" height="99" as="geometry">
            <mxRectangle width="180" height="99" as="alternateBounds" />
          </mxGeometry>
        </mxCell>
        <mxCell id="IZgi5f1fYp0vKWYEMyVF-113" value="&amp;nbsp;cell line" style="shape=partialRectangle;html=1;whiteSpace=wrap;connectable=0;strokeColor=inherit;overflow=hidden;fillColor=none;top=0;left=0;bottom=0;right=0;pointerEvents=1;fontSize=24;" parent="IZgi5f1fYp0vKWYEMyVF-111" vertex="1">
          <mxGeometry x="180" width="180" height="99" as="geometry">
            <mxRectangle width="180" height="99" as="alternateBounds" />
          </mxGeometry>
        </mxCell>
        <mxCell id="IZgi5f1fYp0vKWYEMyVF-114" value="GM18868" style="shape=partialRectangle;html=1;whiteSpace=wrap;connectable=0;strokeColor=inherit;overflow=hidden;fillColor=none;top=0;left=0;bottom=0;right=0;pointerEvents=1;fontSize=24;" parent="IZgi5f1fYp0vKWYEMyVF-111" vertex="1">
          <mxGeometry x="360" width="180" height="99" as="geometry">
            <mxRectangle width="180" height="99" as="alternateBounds" />
          </mxGeometry>
        </mxCell>
        <mxCell id="IZgi5f1fYp0vKWYEMyVF-115" value="" style="shape=tableRow;horizontal=0;startSize=0;swimlaneHead=0;swimlaneBody=0;strokeColor=inherit;top=0;left=0;bottom=0;right=0;collapsible=0;dropTarget=0;fillColor=none;points=[[0,0.5],[1,0.5]];portConstraint=eastwest;fontSize=24;" parent="IZgi5f1fYp0vKWYEMyVF-98" vertex="1">
          <mxGeometry y="389" width="540" height="96" as="geometry" />
        </mxCell>
        <mxCell id="IZgi5f1fYp0vKWYEMyVF-116" value="GSE172814" style="shape=partialRectangle;html=1;whiteSpace=wrap;connectable=0;strokeColor=inherit;overflow=hidden;fillColor=none;top=0;left=0;bottom=0;right=0;pointerEvents=1;fontSize=24;" parent="IZgi5f1fYp0vKWYEMyVF-115" vertex="1">
          <mxGeometry width="180" height="96" as="geometry">
            <mxRectangle width="180" height="96" as="alternateBounds" />
          </mxGeometry>
        </mxCell>
        <mxCell id="IZgi5f1fYp0vKWYEMyVF-117" value="&amp;nbsp;cell line" style="shape=partialRectangle;html=1;whiteSpace=wrap;connectable=0;strokeColor=inherit;overflow=hidden;fillColor=none;top=0;left=0;bottom=0;right=0;pointerEvents=1;fontSize=24;" parent="IZgi5f1fYp0vKWYEMyVF-115" vertex="1">
          <mxGeometry x="180" width="180" height="96" as="geometry">
            <mxRectangle width="180" height="96" as="alternateBounds" />
          </mxGeometry>
        </mxCell>
        <mxCell id="IZgi5f1fYp0vKWYEMyVF-118" value="HG03095" style="shape=partialRectangle;html=1;whiteSpace=wrap;connectable=0;strokeColor=inherit;overflow=hidden;fillColor=none;top=0;left=0;bottom=0;right=0;pointerEvents=1;fontSize=24;" parent="IZgi5f1fYp0vKWYEMyVF-115" vertex="1">
          <mxGeometry x="360" width="180" height="96" as="geometry">
            <mxRectangle width="180" height="96" as="alternateBounds" />
          </mxGeometry>
        </mxCell>
        <mxCell id="IZgi5f1fYp0vKWYEMyVF-119" value="" style="shape=tableRow;horizontal=0;startSize=0;swimlaneHead=0;swimlaneBody=0;strokeColor=inherit;top=0;left=0;bottom=0;right=0;collapsible=0;dropTarget=0;fillColor=none;points=[[0,0.5],[1,0.5]];portConstraint=eastwest;fontSize=32;" parent="IZgi5f1fYp0vKWYEMyVF-98" vertex="1">
          <mxGeometry y="485" width="540" height="100" as="geometry" />
        </mxCell>
        <mxCell id="IZgi5f1fYp0vKWYEMyVF-120" value="&lt;span style=&quot;font-size: 40px;&quot;&gt;...&lt;/span&gt;" style="shape=partialRectangle;html=1;whiteSpace=wrap;connectable=0;strokeColor=inherit;overflow=hidden;fillColor=none;top=0;left=0;bottom=0;right=0;pointerEvents=1;fontSize=32;" parent="IZgi5f1fYp0vKWYEMyVF-119" vertex="1">
          <mxGeometry width="180" height="100" as="geometry">
            <mxRectangle width="180" height="100" as="alternateBounds" />
          </mxGeometry>
        </mxCell>
        <mxCell id="IZgi5f1fYp0vKWYEMyVF-121" value="..." style="shape=partialRectangle;html=1;whiteSpace=wrap;connectable=0;strokeColor=inherit;overflow=hidden;fillColor=none;top=0;left=0;bottom=0;right=0;pointerEvents=1;fontSize=40;" parent="IZgi5f1fYp0vKWYEMyVF-119" vertex="1">
          <mxGeometry x="180" width="180" height="100" as="geometry">
            <mxRectangle width="180" height="100" as="alternateBounds" />
          </mxGeometry>
        </mxCell>
        <mxCell id="IZgi5f1fYp0vKWYEMyVF-122" value="..." style="shape=partialRectangle;html=1;whiteSpace=wrap;connectable=0;strokeColor=inherit;overflow=hidden;fillColor=none;top=0;left=0;bottom=0;right=0;pointerEvents=1;fontSize=40;" parent="IZgi5f1fYp0vKWYEMyVF-119" vertex="1">
          <mxGeometry x="360" width="180" height="100" as="geometry">
            <mxRectangle width="180" height="100" as="alternateBounds" />
          </mxGeometry>
        </mxCell>
        <mxCell id="IZgi5f1fYp0vKWYEMyVF-123" value="&lt;font style=&quot;font-size: 28px;&quot;&gt;GEO number: GSE172962&lt;br&gt;TF: ZBT14&lt;/font&gt;" style="text;html=1;strokeColor=none;fillColor=#f5f5f5;align=center;verticalAlign=middle;whiteSpace=wrap;rounded=0;fontColor=#333333;" parent="1" vertex="1">
          <mxGeometry x="803" y="885" width="360" height="30" as="geometry" />
        </mxCell>
        <mxCell id="IZgi5f1fYp0vKWYEMyVF-124" value="&lt;font style=&quot;font-size: 28px;&quot;&gt;Homo ATAC-seq data&lt;br&gt;Motif number: 234&lt;br&gt;&lt;/font&gt;" style="text;html=1;strokeColor=none;fillColor=#f5f5f5;align=center;verticalAlign=middle;whiteSpace=wrap;rounded=0;fontColor=#333333;" parent="1" vertex="1">
          <mxGeometry x="443" y="885" width="360" height="25" as="geometry" />
        </mxCell>
      </root>
    </mxGraphModel>
  </diagram>
</mxfile>
